Aleo-Regular.ufo
<glyph name="quotedbl" format="1">
  <advance width="330"/>
  <unicode hex="0022"/>
  <note>
    quotedbl
  </note>
  <outline>
    <contour>
      <point x="121" y="716" type="line"/>
      <point x="44" y="716" type="line"/>
      <point x="44" y="572" type="line"/>
      <point x="52" y="494" type="line"/>
      <point x="54" y="484"/>
      <point x="57" y="475"/>
      <point x="62" y="469" type="curve" smooth="yes"/>
      <point x="67" y="463"/>
      <point x="74" y="460"/>
      <point x="82" y="460" type="curve" smooth="yes"/>
      <point x="92" y="460"/>
      <point x="100" y="463"/>
      <point x="104" y="469" type="curve" smooth="yes"/>
      <point x="108" y="475"/>
      <point x="112" y="484"/>
      <point x="113" y="494" type="curve" smooth="yes"/>
      <point x="121" y="571" type="line"/>
    </contour>
    <contour>
      <point x="288" y="716" type="line"/>
      <point x="210" y="716" type="line"/>
      <point x="210" y="571" type="line"/>
      <point x="218" y="494" type="line"/>
      <point x="220" y="484"/>
      <point x="223" y="474"/>
      <point x="228" y="468" type="curve" smooth="yes"/>
      <point x="233" y="462"/>
      <point x="240" y="460"/>
      <point x="248" y="460" type="curve" smooth="yes"/>
      <point x="258" y="460"/>
      <point x="267" y="462"/>
      <point x="271" y="468" type="curve" smooth="yes"/>
      <point x="275" y="474"/>
      <point x="279" y="483"/>
      <point x="280" y="493" type="curve" smooth="yes"/>
      <point x="288" y="570" type="line"/>
    </contour>
  </outline>
</glyph>
<glyph name="ampersand" format="1">
  <advance width="700"/>
  <unicode hex="0026"/>
  <note>
    ampersand
  </note>
  <outline>
    <contour>
      <point x="314" y="724" type="line"/>
      <point x="284" y="724"/>
      <point x="258" y="720"/>
      <point x="234" y="711" type="curve" smooth="yes"/>
      <point x="210" y="702"/>
      <point x="189" y="690"/>
      <point x="173" y="674" type="curve" smooth="yes"/>
      <point x="157" y="658"/>
      <point x="143" y="640"/>
      <point x="134" y="618" type="curve" smooth="yes"/>
      <point x="125" y="596"/>
      <point x="121" y="572"/>
      <point x="121" y="548" type="curve" smooth="yes"/>
      <point x="121" y="522"/>
      <point x="126" y="497"/>
      <point x="136" y="473" type="curve" smooth="yes"/>
      <point x="146" y="449"/>
      <point x="160" y="424"/>
      <point x="180" y="398" type="curve"/>
      <point x="158" y="388"/>
      <point x="137" y="376"/>
      <point x="118" y="362" type="curve" smooth="yes"/>
      <point x="99" y="348"/>
      <point x="82" y="332"/>
      <point x="68" y="314" type="curve" smooth="yes"/>
      <point x="54" y="296"/>
      <point x="44" y="277"/>
      <point x="36" y="256" type="curve" smooth="yes"/>
      <point x="28" y="235"/>
      <point x="24" y="214"/>
      <point x="24" y="190" type="curve" smooth="yes"/>
      <point x="24" y="159"/>
      <point x="30" y="130"/>
      <point x="42" y="106" type="curve" smooth="yes"/>
      <point x="54" y="82"/>
      <point x="70" y="61"/>
      <point x="90" y="44" type="curve" smooth="yes"/>
      <point x="110" y="27"/>
      <point x="133" y="14"/>
      <point x="159" y="5" type="curve" smooth="yes"/>
      <point x="185" y="-4"/>
      <point x="211" y="-8"/>
      <point x="237" y="-8" type="curve" smooth="yes"/>
      <point x="286" y="-8"/>
      <point x="331" y="0"/>
      <point x="372" y="18" type="curve" smooth="yes"/>
      <point x="413" y="36"/>
      <point x="448" y="60"/>
      <point x="480" y="90" type="curve"/>
      <point x="552" y="18" type="line" smooth="yes"/>
      <point x="560" y="10"/>
      <point x="566" y="4"/>
      <point x="572" y="2" type="curve" smooth="yes"/>
      <point x="578" y="0"/>
      <point x="586" y="-1"/>
      <point x="596" y="-1" type="curve" smooth="yes"/>
      <point x="682" y="-1" type="line"/>
      <point x="532" y="151" type="line"/>
      <point x="554" y="183"/>
      <point x="570" y="218"/>
      <point x="582" y="255" type="curve" smooth="yes"/>
      <point x="594" y="292"/>
      <point x="600" y="330"/>
      <point x="600" y="368" type="curve"/>
      <point x="546" y="368" type="line" smooth="yes"/>
      <point x="540" y="368"/>
      <point x="536" y="366"/>
      <point x="532" y="362" type="curve" smooth="yes"/>
      <point x="528" y="358"/>
      <point x="526" y="354"/>
      <point x="526" y="348" type="curve"/>
      <point x="524" y="324"/>
      <point x="518" y="298"/>
      <point x="510" y="274" type="curve" smooth="yes"/>
      <point x="502" y="250"/>
      <point x="492" y="226"/>
      <point x="480" y="204" type="curve"/>
      <point x="274" y="413" type="line" smooth="yes"/>
      <point x="262" y="425"/>
      <point x="251" y="437"/>
      <point x="242" y="449" type="curve" smooth="yes"/>
      <point x="233" y="461"/>
      <point x="226" y="471"/>
      <point x="220" y="482" type="curve" smooth="yes"/>
      <point x="214" y="493"/>
      <point x="210" y="504"/>
      <point x="207" y="514" type="curve" smooth="yes"/>
      <point x="204" y="524"/>
      <point x="202" y="536"/>
      <point x="202" y="548" type="curve" smooth="yes"/>
      <point x="202" y="563"/>
      <point x="205" y="577"/>
      <point x="210" y="590" type="curve" smooth="yes"/>
      <point x="215" y="603"/>
      <point x="222" y="613"/>
      <point x="232" y="623" type="curve" smooth="yes"/>
      <point x="242" y="633"/>
      <point x="252" y="640"/>
      <point x="266" y="646" type="curve" smooth="yes"/>
      <point x="280" y="652"/>
      <point x="296" y="654"/>
      <point x="312" y="654" type="curve" smooth="yes"/>
      <point x="328" y="654"/>
      <point x="340" y="651"/>
      <point x="352" y="646" type="curve" smooth="yes"/>
      <point x="364" y="641"/>
      <point x="374" y="635"/>
      <point x="382" y="627" type="curve" smooth="yes"/>
      <point x="390" y="619"/>
      <point x="396" y="612"/>
      <point x="401" y="602" type="curve" smooth="yes"/>
      <point x="406" y="592"/>
      <point x="410" y="582"/>
      <point x="412" y="574" type="curve"/>
      <point x="414" y="568"/>
      <point x="416" y="564"/>
      <point x="420" y="562" type="curve" smooth="yes"/>
      <point x="424" y="560"/>
      <point x="428" y="558"/>
      <point x="432" y="558" type="curve" smooth="yes"/>
      <point x="434" y="558"/>
      <point x="435" y="559"/>
      <point x="437" y="559" type="curve"/>
      <point x="492" y="570" type="line"/>
      <point x="490" y="590"/>
      <point x="485" y="610"/>
      <point x="476" y="628" type="curve" smooth="yes"/>
      <point x="467" y="646"/>
      <point x="455" y="662"/>
      <point x="439" y="676" type="curve" smooth="yes"/>
      <point x="423" y="690"/>
      <point x="404" y="702"/>
      <point x="382" y="710" type="curve" smooth="yes"/>
      <point x="360" y="718"/>
      <point x="336" y="722"/>
      <point x="310" y="722" type="curve"/>
    </contour>
    <contour>
      <point x="112" y="196" type="line"/>
      <point x="112" y="228"/>
      <point x="121" y="257"/>
      <point x="139" y="283" type="curve" smooth="yes"/>
      <point x="157" y="309"/>
      <point x="183" y="332"/>
      <point x="219" y="351" type="curve"/>
      <point x="430" y="138" type="line"/>
      <point x="408" y="116"/>
      <point x="382" y="98"/>
      <point x="352" y="84" type="curve" smooth="yes"/>
      <point x="322" y="70"/>
      <point x="290" y="63"/>
      <point x="252" y="63" type="curve" smooth="yes"/>
      <point x="234" y="63"/>
      <point x="217" y="66"/>
      <point x="201" y="72" type="curve" smooth="yes"/>
      <point x="185" y="78"/>
      <point x="169" y="86"/>
      <point x="156" y="98" type="curve" smooth="yes"/>
      <point x="143" y="110"/>
      <point x="133" y="124"/>
      <point x="125" y="140" type="curve" smooth="yes"/>
      <point x="117" y="156"/>
      <point x="113" y="175"/>
      <point x="113" y="197" type="curve"/>
    </contour>
  </outline>
</glyph>
<glyph name="asterisk" format="1">
  <advance width="368"/>
  <unicode hex="002A"/>
  <note>
    asterisk
  </note>
  <outline>
    <contour>
      <point x="162" y="432" type="line"/>
      <point x="206" y="432" type="line"/>
      <point x="206" y="530" type="line" smooth="yes"/>
      <point x="206" y="543"/>
      <point x="204" y="555"/>
      <point x="198" y="566" type="curve"/>
      <point x="202" y="560"/>
      <point x="206" y="557"/>
      <point x="210" y="553" type="curve" smooth="yes"/>
      <point x="214" y="549"/>
      <point x="220" y="546"/>
      <point x="226" y="542" type="curve"/>
      <point x="312" y="492" type="line"/>
      <point x="334" y="530" type="line"/>
      <point x="248" y="580" type="line"/>
      <point x="242" y="584"/>
      <point x="237" y="586"/>
      <point x="231" y="588" type="curve" smooth="yes"/>
      <point x="225" y="590"/>
      <point x="220" y="592"/>
      <point x="214" y="592" type="curve"/>
      <point x="220" y="592"/>
      <point x="224" y="594"/>
      <point x="230" y="596" type="curve" smooth="yes"/>
      <point x="236" y="598"/>
      <point x="241" y="600"/>
      <point x="247" y="604" type="curve"/>
      <point x="333" y="654" type="line"/>
      <point x="311" y="692" type="line"/>
      <point x="225" y="642" type="line"/>
      <point x="219" y="638"/>
      <point x="214" y="636"/>
      <point x="210" y="632" type="curve" smooth="yes"/>
      <point x="206" y="628"/>
      <point x="202" y="624"/>
      <point x="198" y="619" type="curve"/>
      <point x="202" y="629"/>
      <point x="205" y="641"/>
      <point x="205" y="655" type="curve" smooth="yes"/>
      <point x="205" y="754" type="line"/>
      <point x="161" y="754" type="line"/>
      <point x="161" y="654" type="line" smooth="yes"/>
      <point x="161" y="648"/>
      <point x="161" y="642"/>
      <point x="162" y="636" type="curve" smooth="yes"/>
      <point x="163" y="630"/>
      <point x="165" y="624"/>
      <point x="168" y="618" type="curve"/>
      <point x="160" y="628"/>
      <point x="152" y="637"/>
      <point x="140" y="643" type="curve"/>
      <point x="54" y="693" type="line"/>
      <point x="32" y="656" type="line"/>
      <point x="118" y="605" type="line"/>
      <point x="124" y="601"/>
      <point x="130" y="598"/>
      <point x="136" y="596" type="curve" smooth="yes"/>
      <point x="142" y="594"/>
      <point x="148" y="592"/>
      <point x="154" y="592" type="curve"/>
      <point x="142" y="591"/>
      <point x="130" y="587"/>
      <point x="118" y="580" type="curve" smooth="yes"/>
      <point x="32" y="530" type="line"/>
      <point x="54" y="492" type="line"/>
      <point x="140" y="542" type="line" smooth="yes"/>
      <point x="151" y="548"/>
      <point x="160" y="556"/>
      <point x="166" y="564" type="curve"/>
      <point x="164" y="558"/>
      <point x="163" y="554"/>
      <point x="162" y="548" type="curve" smooth="yes"/>
      <point x="161" y="542"/>
      <point x="160" y="536"/>
      <point x="160" y="530" type="curve" smooth="yes"/>
    </contour>
  </outline>
</glyph>
<glyph name="comma" format="1">
  <advance width="208"/>
  <unicode hex="002C"/>
  <note>
    comma
  </note>
  <outline>
    <contour>
      <point x="46" y="62" type="line"/>
      <point x="46" y="53"/>
      <point x="47" y="44"/>
      <point x="50" y="36" type="curve" smooth="yes"/>
      <point x="53" y="28"/>
      <point x="57" y="23"/>
      <point x="62" y="17" type="curve" smooth="yes"/>
      <point x="67" y="11"/>
      <point x="73" y="7"/>
      <point x="80" y="4" type="curve" smooth="yes"/>
      <point x="87" y="1"/>
      <point x="96" y="0"/>
      <point x="104" y="0" type="curve" smooth="yes"/>
      <point x="110" y="0" type="line"/>
      <point x="108" y="-11"/>
      <point x="104" y="-22"/>
      <point x="100" y="-32" type="curve" smooth="yes"/>
      <point x="96" y="-42"/>
      <point x="92" y="-50"/>
      <point x="86" y="-58" type="curve" smooth="yes"/>
      <point x="80" y="-66"/>
      <point x="75" y="-73"/>
      <point x="70" y="-79" type="curve" smooth="yes"/>
      <point x="65" y="-85"/>
      <point x="60" y="-90"/>
      <point x="56" y="-94" type="curve" smooth="yes"/>
      <point x="52" y="-98"/>
      <point x="50" y="-103"/>
      <point x="50" y="-107" type="curve" smooth="yes"/>
      <point x="50" y="-113"/>
      <point x="52" y="-117"/>
      <point x="56" y="-121" type="curve" smooth="yes"/>
      <point x="71" y="-136" type="line"/>
      <point x="86" y="-124"/>
      <point x="100" y="-109"/>
      <point x="112" y="-94" type="curve" smooth="yes"/>
      <point x="124" y="-79"/>
      <point x="134" y="-64"/>
      <point x="142" y="-48" type="curve" smooth="yes"/>
      <point x="150" y="-32"/>
      <point x="156" y="-16"/>
      <point x="160" y="0" type="curve" smooth="yes"/>
      <point x="164" y="16"/>
      <point x="166" y="32"/>
      <point x="166" y="47" type="curve" smooth="yes"/>
      <point x="166" y="57"/>
      <point x="164" y="66"/>
      <point x="162" y="74" type="curve" smooth="yes"/>
      <point x="160" y="82"/>
      <point x="156" y="91"/>
      <point x="151" y="97" type="curve" smooth="yes"/>
      <point x="146" y="103"/>
      <point x="140" y="108"/>
      <point x="132" y="112" type="curve" smooth="yes"/>
      <point x="124" y="116"/>
      <point x="114" y="118"/>
      <point x="104" y="118" type="curve" smooth="yes"/>
      <point x="96" y="118"/>
      <point x="88" y="116"/>
      <point x="80" y="113" type="curve" smooth="yes"/>
      <point x="72" y="110"/>
      <point x="67" y="106"/>
      <point x="62" y="101" type="curve" smooth="yes"/>
      <point x="57" y="96"/>
      <point x="53" y="90"/>
      <point x="50" y="83" type="curve" smooth="yes"/>
      <point x="47" y="76"/>
      <point x="45" y="69"/>
      <point x="45" y="61" type="curve"/>
    </contour>
  </outline>
</glyph>
<glyph name="period" format="1">
  <advance width="211"/>
  <unicode hex="002E"/>
  <note>
    period
  </note>
  <outline>
    <contour>
      <point x="44" y="55" type="line"/>
      <point x="44" y="46"/>
      <point x="46" y="38"/>
      <point x="49" y="30" type="curve" smooth="yes"/>
      <point x="52" y="22"/>
      <point x="56" y="16"/>
      <point x="62" y="10" type="curve" smooth="yes"/>
      <point x="68" y="4"/>
      <point x="74" y="1"/>
      <point x="82" y="-2" type="curve" smooth="yes"/>
      <point x="90" y="-5"/>
      <point x="98" y="-7"/>
      <point x="106" y="-7" type="curve" smooth="yes"/>
      <point x="114" y="-7"/>
      <point x="122" y="-5"/>
      <point x="130" y="-2" type="curve" smooth="yes"/>
      <point x="138" y="1"/>
      <point x="143" y="4"/>
      <point x="149" y="10" type="curve" smooth="yes"/>
      <point x="155" y="16"/>
      <point x="159" y="22"/>
      <point x="162" y="30" type="curve" smooth="yes"/>
      <point x="165" y="38"/>
      <point x="166" y="45"/>
      <point x="166" y="54" type="curve" smooth="yes"/>
      <point x="166" y="62"/>
      <point x="165" y="70"/>
      <point x="162" y="78" type="curve" smooth="yes"/>
      <point x="159" y="86"/>
      <point x="155" y="92"/>
      <point x="149" y="98" type="curve" smooth="yes"/>
      <point x="143" y="104"/>
      <point x="138" y="108"/>
      <point x="130" y="112" type="curve" smooth="yes"/>
      <point x="122" y="116"/>
      <point x="114" y="116"/>
      <point x="106" y="116" type="curve" smooth="yes"/>
      <point x="98" y="116"/>
      <point x="90" y="116"/>
      <point x="82" y="112" type="curve" smooth="yes"/>
      <point x="74" y="108"/>
      <point x="68" y="104"/>
      <point x="62" y="98" type="curve" smooth="yes"/>
      <point x="56" y="92"/>
      <point x="52" y="86"/>
      <point x="49" y="78" type="curve" smooth="yes"/>
      <point x="46" y="70"/>
      <point x="44" y="62"/>
      <point x="44" y="54" type="curve"/>
    </contour>
  </outline>
</glyph>
<glyph name="slash" format="1">
  <advance width="420"/>
  <unicode hex="002F"/>
  <note>
    slash
  </note>
  <outline>
    <contour>
      <point x="103" y="-10" type="line"/>
      <point x="402" y="736" type="line"/>
      <point x="364" y="736" type="line" smooth="yes"/>
      <point x="353" y="736"/>
      <point x="344" y="734"/>
      <point x="336" y="728" type="curve" smooth="yes"/>
      <point x="328" y="722"/>
      <point x="321" y="714"/>
      <point x="317" y="704" type="curve" smooth="yes"/>
      <point x="16" y="-44" type="line"/>
      <point x="54" y="-44" type="line" smooth="yes"/>
      <point x="64" y="-44"/>
      <point x="73" y="-42"/>
      <point x="82" y="-36" type="curve" smooth="yes"/>
      <point x="91" y="-30"/>
      <point x="98" y="-22"/>
      <point x="102" y="-10" type="curve"/>
    </contour>
  </outline>
</glyph>
<glyph name="zero" format="1">
  <advance width="589"/>
  <unicode hex="0030"/>
  <note>
    zero
  </note>
  <outline>
    <contour>
      <point x="555" y="358" type="line"/>
      <point x="555" y="420"/>
      <point x="548" y="475"/>
      <point x="534" y="521" type="curve" smooth="yes"/>
      <point x="520" y="567"/>
      <point x="503" y="605"/>
      <point x="479" y="635" type="curve" smooth="yes"/>
      <point x="455" y="665"/>
      <point x="428" y="688"/>
      <point x="396" y="702" type="curve" smooth="yes"/>
      <point x="364" y="716"/>
      <point x="330" y="724"/>
      <point x="294" y="724" type="curve" smooth="yes"/>
      <point x="258" y="724"/>
      <point x="224" y="716"/>
      <point x="192" y="702" type="curve" smooth="yes"/>
      <point x="160" y="688"/>
      <point x="133" y="665"/>
      <point x="109" y="635" type="curve" smooth="yes"/>
      <point x="85" y="605"/>
      <point x="68" y="567"/>
      <point x="54" y="521" type="curve" smooth="yes"/>
      <point x="40" y="475"/>
      <point x="34" y="420"/>
      <point x="34" y="358" type="curve" smooth="yes"/>
      <point x="34" y="296"/>
      <point x="40" y="241"/>
      <point x="54" y="195" type="curve" smooth="yes"/>
      <point x="68" y="149"/>
      <point x="85" y="111"/>
      <point x="109" y="81" type="curve" smooth="yes"/>
      <point x="133" y="51"/>
      <point x="160" y="28"/>
      <point x="192" y="14" type="curve" smooth="yes"/>
      <point x="224" y="0"/>
      <point x="258" y="-8"/>
      <point x="294" y="-8" type="curve" smooth="yes"/>
      <point x="330" y="-8"/>
      <point x="364" y="0"/>
      <point x="396" y="14" type="curve" smooth="yes"/>
      <point x="428" y="28"/>
      <point x="455" y="51"/>
      <point x="479" y="81" type="curve" smooth="yes"/>
      <point x="503" y="111"/>
      <point x="520" y="149"/>
      <point x="534" y="195" type="curve" smooth="yes"/>
      <point x="548" y="241"/>
      <point x="554" y="296"/>
      <point x="554" y="358" type="curve"/>
    </contour>
    <contour>
      <point x="462" y="358" type="line"/>
      <point x="462" y="304"/>
      <point x="457" y="257"/>
      <point x="448" y="220" type="curve" smooth="yes"/>
      <point x="439" y="183"/>
      <point x="428" y="153"/>
      <point x="412" y="131" type="curve" smooth="yes"/>
      <point x="396" y="109"/>
      <point x="378" y="92"/>
      <point x="358" y="82" type="curve" smooth="yes"/>
      <point x="338" y="72"/>
      <point x="316" y="67"/>
      <point x="294" y="67" type="curve" smooth="yes"/>
      <point x="272" y="67"/>
      <point x="250" y="72"/>
      <point x="230" y="82" type="curve" smooth="yes"/>
      <point x="210" y="92"/>
      <point x="192" y="108"/>
      <point x="176" y="130" type="curve" smooth="yes"/>
      <point x="160" y="152"/>
      <point x="149" y="183"/>
      <point x="140" y="220" type="curve" smooth="yes"/>
      <point x="131" y="257"/>
      <point x="126" y="304"/>
      <point x="126" y="358" type="curve" smooth="yes"/>
      <point x="126" y="412"/>
      <point x="131" y="458"/>
      <point x="140" y="495" type="curve" smooth="yes"/>
      <point x="149" y="532"/>
      <point x="160" y="562"/>
      <point x="176" y="584" type="curve" smooth="yes"/>
      <point x="192" y="606"/>
      <point x="210" y="623"/>
      <point x="230" y="633" type="curve" smooth="yes"/>
      <point x="250" y="643"/>
      <point x="272" y="648"/>
      <point x="294" y="648" type="curve" smooth="yes"/>
      <point x="316" y="648"/>
      <point x="337" y="643"/>
      <point x="357" y="633" type="curve" smooth="yes"/>
      <point x="377" y="623"/>
      <point x="395" y="606"/>
      <point x="411" y="584" type="curve" smooth="yes"/>
      <point x="427" y="562"/>
      <point x="439" y="531"/>
      <point x="448" y="494" type="curve" smooth="yes"/>
      <point x="457" y="457"/>
      <point x="462" y="411"/>
      <point x="462" y="357" type="curve"/>
    </contour>
  </outline>
</glyph>
<glyph name="two" format="1">
  <advance width="531"/>
  <unicode hex="0032"/>
  <note>
    two
  </note>
  <outline>
    <contour>
      <point x="502" y="62" type="line"/>
      <point x="502" y="78" type="line"/>
      <point x="502" y="160" type="line"/>
      <point x="453" y="160" type="line" smooth="yes"/>
      <point x="443" y="160"/>
      <point x="434" y="152"/>
      <point x="432" y="142" type="curve"/>
      <point x="432" y="138"/>
      <point x="428" y="113"/>
      <point x="426" y="85" type="curve"/>
      <point x="230" y="85" type="line" smooth="yes"/>
      <point x="218" y="85"/>
      <point x="205" y="84"/>
      <point x="191" y="82" type="curve" smooth="yes"/>
      <point x="177" y="80"/>
      <point x="164" y="78"/>
      <point x="150" y="74" type="curve"/>
      <point x="339" y="266" type="line" smooth="yes"/>
      <point x="359" y="286"/>
      <point x="378" y="306"/>
      <point x="396" y="326" type="curve" smooth="yes"/>
      <point x="414" y="346"/>
      <point x="430" y="366"/>
      <point x="444" y="387" type="curve" smooth="yes"/>
      <point x="458" y="408"/>
      <point x="468" y="430"/>
      <point x="476" y="452" type="curve" smooth="yes"/>
      <point x="484" y="474"/>
      <point x="488" y="500"/>
      <point x="488" y="526" type="curve" smooth="yes"/>
      <point x="488" y="558"/>
      <point x="483" y="586"/>
      <point x="472" y="610" type="curve" smooth="yes"/>
      <point x="461" y="634"/>
      <point x="445" y="655"/>
      <point x="426" y="672" type="curve" smooth="yes"/>
      <point x="407" y="689"/>
      <point x="384" y="703"/>
      <point x="358" y="712" type="curve" smooth="yes"/>
      <point x="332" y="721"/>
      <point x="302" y="725"/>
      <point x="272" y="725" type="curve" smooth="yes"/>
      <point x="242" y="725"/>
      <point x="213" y="721"/>
      <point x="187" y="712" type="curve" smooth="yes"/>
      <point x="161" y="703"/>
      <point x="136" y="689"/>
      <point x="116" y="672" type="curve" smooth="yes"/>
      <point x="96" y="655"/>
      <point x="80" y="635"/>
      <point x="66" y="610" type="curve" smooth="yes"/>
      <point x="52" y="585"/>
      <point x="42" y="555"/>
      <point x="38" y="523" type="curve"/>
      <point x="85" y="515" type="line"/>
      <point x="87" y="515"/>
      <point x="90" y="514"/>
      <point x="92" y="514" type="curve" smooth="yes"/>
      <point x="96" y="514" type="line" smooth="yes"/>
      <point x="104" y="514"/>
      <point x="112" y="516"/>
      <point x="118" y="520" type="curve" smooth="yes"/>
      <point x="124" y="524"/>
      <point x="128" y="532"/>
      <point x="130" y="542" type="curve"/>
      <point x="134" y="558"/>
      <point x="139" y="571"/>
      <point x="147" y="584" type="curve" smooth="yes"/>
      <point x="155" y="597"/>
      <point x="165" y="608"/>
      <point x="177" y="618" type="curve" smooth="yes"/>
      <point x="189" y="628"/>
      <point x="202" y="634"/>
      <point x="218" y="640" type="curve" smooth="yes"/>
      <point x="234" y="646"/>
      <point x="250" y="648"/>
      <point x="268" y="648" type="curve" smooth="yes"/>
      <point x="286" y="648"/>
      <point x="302" y="646"/>
      <point x="318" y="641" type="curve" smooth="yes"/>
      <point x="334" y="636"/>
      <point x="347" y="628"/>
      <point x="359" y="618" type="curve" smooth="yes"/>
      <point x="371" y="608"/>
      <point x="380" y="594"/>
      <point x="386" y="578" type="curve" smooth="yes"/>
      <point x="392" y="562"/>
      <point x="396" y="544"/>
      <point x="396" y="523" type="curve" smooth="yes"/>
      <point x="396" y="502"/>
      <point x="393" y="482"/>
      <point x="387" y="464" type="curve" smooth="yes"/>
      <point x="381" y="446"/>
      <point x="373" y="426"/>
      <point x="362" y="408" type="curve" smooth="yes"/>
      <point x="351" y="390"/>
      <point x="338" y="372"/>
      <point x="322" y="354" type="curve" smooth="yes"/>
      <point x="306" y="336"/>
      <point x="289" y="318"/>
      <point x="270" y="298" type="curve" smooth="yes"/>
      <point x="40" y="68" type="line" smooth="yes"/>
      <point x="34" y="62"/>
      <point x="30" y="56"/>
      <point x="28" y="50" type="curve" smooth="yes"/>
      <point x="26" y="44"/>
      <point x="24" y="36"/>
      <point x="24" y="30" type="curve" smooth="yes"/>
      <point x="24" y="0" type="line"/>
      <point x="501" y="0" type="line"/>
    </contour>
  </outline>
</glyph>
<glyph name="four" format="1">
  <advance width="584"/>
  <unicode hex="0034"/>
  <note>
    four
  </note>
  <outline>
    <contour>
      <point x="455" y="258" type="line"/>
      <point x="455" y="716" type="line"/>
      <point x="372" y="716" type="line"/>
      <point x="24" y="254" type="line"/>
      <point x="32" y="208" type="line"/>
      <point x="34" y="202"/>
      <point x="37" y="198"/>
      <point x="42" y="194" type="curve" smooth="yes"/>
      <point x="47" y="190"/>
      <point x="53" y="188"/>
      <point x="59" y="188" type="curve" smooth="yes"/>
      <point x="376" y="188" type="line"/>
      <point x="376" y="0" type="line"/>
      <point x="455" y="0" type="line"/>
      <point x="455" y="188" type="line"/>
      <point x="544" y="188" type="line" smooth="yes"/>
      <point x="550" y="188"/>
      <point x="555" y="190"/>
      <point x="558" y="194" type="curve" smooth="yes"/>
      <point x="561" y="198"/>
      <point x="563" y="201"/>
      <point x="563" y="207" type="curve" smooth="yes"/>
      <point x="563" y="258" type="line"/>
    </contour>
    <contour>
      <point x="376" y="258" type="line"/>
      <point x="120" y="258" type="line"/>
      <point x="380" y="612" type="line"/>
      <point x="378" y="602"/>
      <point x="377" y="592"/>
      <point x="377" y="582" type="curve" smooth="yes"/>
      <point x="377" y="572"/>
      <point x="376" y="562"/>
      <point x="376" y="554" type="curve" smooth="yes"/>
    </contour>
  </outline>
</glyph>
<glyph name="five" format="1">
  <advance width="507"/>
  <unicode hex="0035"/>
  <note>
    five
  </note>
  <outline>
    <contour>
      <point x="456" y="678" type="line"/>
      <point x="456" y="716" type="line"/>
      <point x="116" y="716" type="line"/>
      <point x="58" y="382" type="line"/>
      <point x="114" y="365" type="line"/>
      <point x="134" y="371"/>
      <point x="154" y="377"/>
      <point x="174" y="380" type="curve" smooth="yes"/>
      <point x="194" y="383"/>
      <point x="212" y="384"/>
      <point x="230" y="384" type="curve" smooth="yes"/>
      <point x="256" y="384"/>
      <point x="279" y="381"/>
      <point x="299" y="374" type="curve" smooth="yes"/>
      <point x="319" y="367"/>
      <point x="335" y="356"/>
      <point x="348" y="344" type="curve" smooth="yes"/>
      <point x="361" y="332"/>
      <point x="372" y="316"/>
      <point x="378" y="298" type="curve" smooth="yes"/>
      <point x="384" y="280"/>
      <point x="387" y="260"/>
      <point x="387" y="238" type="curve" smooth="yes"/>
      <point x="387" y="212"/>
      <point x="384" y="188"/>
      <point x="376" y="168" type="curve" smooth="yes"/>
      <point x="368" y="148"/>
      <point x="357" y="130"/>
      <point x="343" y="115" type="curve" smooth="yes"/>
      <point x="329" y="100"/>
      <point x="312" y="88"/>
      <point x="292" y="80" type="curve" smooth="yes"/>
      <point x="272" y="72"/>
      <point x="249" y="68"/>
      <point x="224" y="68" type="curve" smooth="yes"/>
      <point x="202" y="68"/>
      <point x="182" y="71"/>
      <point x="166" y="76" type="curve" smooth="yes"/>
      <point x="150" y="81"/>
      <point x="136" y="87"/>
      <point x="124" y="93" type="curve" smooth="yes"/>
      <point x="112" y="99"/>
      <point x="102" y="105"/>
      <point x="94" y="110" type="curve" smooth="yes"/>
      <point x="86" y="115"/>
      <point x="77" y="118"/>
      <point x="71" y="118" type="curve" smooth="yes"/>
      <point x="61" y="118"/>
      <point x="53" y="112"/>
      <point x="47" y="104" type="curve" smooth="yes"/>
      <point x="20" y="66" type="line"/>
      <point x="31" y="56"/>
      <point x="44" y="47"/>
      <point x="58" y="38" type="curve" smooth="yes"/>
      <point x="72" y="29"/>
      <point x="88" y="21"/>
      <point x="104" y="14" type="curve" smooth="yes"/>
      <point x="120" y="7"/>
      <point x="138" y="2"/>
      <point x="158" y="-2" type="curve" smooth="yes"/>
      <point x="178" y="-6"/>
      <point x="198" y="-8"/>
      <point x="219" y="-8" type="curve" smooth="yes"/>
      <point x="255" y="-8"/>
      <point x="289" y="-3"/>
      <point x="321" y="9" type="curve" smooth="yes"/>
      <point x="353" y="21"/>
      <point x="379" y="37"/>
      <point x="402" y="59" type="curve" smooth="yes"/>
      <point x="425" y="81"/>
      <point x="443" y="108"/>
      <point x="457" y="138" type="curve" smooth="yes"/>
      <point x="471" y="168"/>
      <point x="477" y="202"/>
      <point x="477" y="240" type="curve" smooth="yes"/>
      <point x="477" y="271"/>
      <point x="472" y="300"/>
      <point x="462" y="326" type="curve" smooth="yes"/>
      <point x="452" y="352"/>
      <point x="438" y="376"/>
      <point x="418" y="396" type="curve" smooth="yes"/>
      <point x="398" y="416"/>
      <point x="374" y="430"/>
      <point x="346" y="441" type="curve" smooth="yes"/>
      <point x="318" y="452"/>
      <point x="285" y="458"/>
      <point x="247" y="458" type="curve" smooth="yes"/>
      <point x="215" y="458"/>
      <point x="182" y="454"/>
      <point x="144" y="446" type="curve"/>
      <point x="176" y="634" type="line"/>
      <point x="402" y="634" type="line" smooth="yes"/>
      <point x="421" y="634"/>
      <point x="434" y="638"/>
      <point x="442" y="646" type="curve" smooth="yes"/>
      <point x="450" y="654"/>
      <point x="454" y="664"/>
      <point x="454" y="676" type="curve"/>
    </contour>
  </outline>
</glyph>
<glyph name="semicolon" format="1">
  <advance width="206"/>
  <unicode hex="003B"/>
  <note>
    semicolon
  </note>
  <outline>
    <contour>
      <point x="46" y="62" type="line"/>
      <point x="46" y="53"/>
      <point x="47" y="44"/>
      <point x="50" y="36" type="curve" smooth="yes"/>
      <point x="53" y="28"/>
      <point x="57" y="23"/>
      <point x="62" y="17" type="curve" smooth="yes"/>
      <point x="67" y="11"/>
      <point x="73" y="7"/>
      <point x="80" y="4" type="curve" smooth="yes"/>
      <point x="87" y="1"/>
      <point x="96" y="0"/>
      <point x="104" y="0" type="curve" smooth="yes"/>
      <point x="110" y="0" type="line"/>
      <point x="108" y="-11"/>
      <point x="104" y="-22"/>
      <point x="100" y="-32" type="curve" smooth="yes"/>
      <point x="96" y="-42"/>
      <point x="91" y="-50"/>
      <point x="85" y="-58" type="curve" smooth="yes"/>
      <point x="79" y="-66"/>
      <point x="74" y="-73"/>
      <point x="69" y="-79" type="curve" smooth="yes"/>
      <point x="64" y="-85"/>
      <point x="60" y="-90"/>
      <point x="56" y="-94" type="curve" smooth="yes"/>
      <point x="52" y="-98"/>
      <point x="49" y="-103"/>
      <point x="49" y="-107" type="curve" smooth="yes"/>
      <point x="49" y="-113"/>
      <point x="52" y="-117"/>
      <point x="56" y="-121" type="curve" smooth="yes"/>
      <point x="70" y="-136" type="line"/>
      <point x="85" y="-124"/>
      <point x="99" y="-109"/>
      <point x="111" y="-94" type="curve" smooth="yes"/>
      <point x="123" y="-79"/>
      <point x="133" y="-64"/>
      <point x="141" y="-48" type="curve" smooth="yes"/>
      <point x="149" y="-32"/>
      <point x="156" y="-16"/>
      <point x="160" y="0" type="curve" smooth="yes"/>
      <point x="164" y="16"/>
      <point x="166" y="32"/>
      <point x="166" y="47" type="curve" smooth="yes"/>
      <point x="166" y="57"/>
      <point x="164" y="66"/>
      <point x="162" y="74" type="curve" smooth="yes"/>
      <point x="160" y="82"/>
      <point x="155" y="91"/>
      <point x="150" y="97" type="curve" smooth="yes"/>
      <point x="145" y="103"/>
      <point x="139" y="108"/>
      <point x="131" y="112" type="curve" smooth="yes"/>
      <point x="123" y="116"/>
      <point x="114" y="118"/>
      <point x="104" y="118" type="curve" smooth="yes"/>
      <point x="96" y="118"/>
      <point x="88" y="116"/>
      <point x="80" y="113" type="curve" smooth="yes"/>
      <point x="72" y="110"/>
      <point x="66" y="106"/>
      <point x="61" y="101" type="curve" smooth="yes"/>
      <point x="56" y="96"/>
      <point x="52" y="90"/>
      <point x="49" y="83" type="curve" smooth="yes"/>
      <point x="46" y="76"/>
      <point x="44" y="69"/>
      <point x="44" y="61" type="curve"/>
    </contour>
    <contour>
      <point x="42" y="430" type="line"/>
      <point x="42" y="421"/>
      <point x="43" y="412"/>
      <point x="46" y="404" type="curve" smooth="yes"/>
      <point x="49" y="396"/>
      <point x="53" y="391"/>
      <point x="59" y="385" type="curve" smooth="yes"/>
      <point x="65" y="379"/>
      <point x="70" y="375"/>
      <point x="78" y="372" type="curve" smooth="yes"/>
      <point x="86" y="369"/>
      <point x="94" y="368"/>
      <point x="102" y="368" type="curve" smooth="yes"/>
      <point x="110" y="368"/>
      <point x="118" y="369"/>
      <point x="126" y="372" type="curve" smooth="yes"/>
      <point x="134" y="375"/>
      <point x="140" y="379"/>
      <point x="146" y="385" type="curve" smooth="yes"/>
      <point x="152" y="391"/>
      <point x="156" y="396"/>
      <point x="159" y="404" type="curve" smooth="yes"/>
      <point x="162" y="412"/>
      <point x="164" y="420"/>
      <point x="164" y="429" type="curve" smooth="yes"/>
      <point x="164" y="437"/>
      <point x="162" y="445"/>
      <point x="159" y="453" type="curve" smooth="yes"/>
      <point x="156" y="461"/>
      <point x="152" y="466"/>
      <point x="146" y="472" type="curve" smooth="yes"/>
      <point x="140" y="478"/>
      <point x="134" y="482"/>
      <point x="126" y="486" type="curve" smooth="yes"/>
      <point x="118" y="490"/>
      <point x="110" y="491"/>
      <point x="102" y="491" type="curve" smooth="yes"/>
      <point x="94" y="491"/>
      <point x="86" y="490"/>
      <point x="78" y="486" type="curve" smooth="yes"/>
      <point x="70" y="482"/>
      <point x="65" y="478"/>
      <point x="59" y="472" type="curve" smooth="yes"/>
      <point x="53" y="466"/>
      <point x="49" y="461"/>
      <point x="46" y="453" type="curve" smooth="yes"/>
      <point x="43" y="445"/>
      <point x="42" y="437"/>
      <point x="42" y="429" type="curve"/>
    </contour>
  </outline>
</glyph>
<glyph name="equal" format="1">
  <advance width="526"/>
  <unicode hex="003D"/>
  <note>
    equal
  </note>
  <outline>
    <contour>
      <point x="48" y="287" type="line"/>
      <point x="48" y="220" type="line"/>
      <point x="478" y="220" type="line"/>
      <point x="478" y="287" type="line"/>
    </contour>
    <contour>
      <point x="48" y="454" type="line"/>
      <point x="48" y="387" type="line"/>
      <point x="478" y="387" type="line"/>
      <point x="478" y="454" type="line"/>
    </contour>
  </outline>
</glyph>
<glyph name="at" format="1">
  <advance width="799"/>
  <unicode hex="0040"/>
  <note>
    at
  </note>
  <outline>
    <contour>
      <point x="571" y="93" type="line"/>
      <point x="599" y="93"/>
      <point x="625" y="100"/>
      <point x="649" y="112" type="curve" smooth="yes"/>
      <point x="673" y="124"/>
      <point x="694" y="142"/>
      <point x="712" y="164" type="curve" smooth="yes"/>
      <point x="730" y="186"/>
      <point x="744" y="214"/>
      <point x="754" y="244" type="curve" smooth="yes"/>
      <point x="764" y="274"/>
      <point x="769" y="308"/>
      <point x="769" y="344" type="curve" smooth="yes"/>
      <point x="769" y="380"/>
      <point x="765" y="412"/>
      <point x="756" y="442" type="curve" smooth="yes"/>
      <point x="747" y="472"/>
      <point x="734" y="501"/>
      <point x="718" y="526" type="curve" smooth="yes"/>
      <point x="702" y="551"/>
      <point x="683" y="573"/>
      <point x="661" y="592" type="curve" smooth="yes"/>
      <point x="639" y="611"/>
      <point x="615" y="627"/>
      <point x="589" y="640" type="curve" smooth="yes"/>
      <point x="563" y="653"/>
      <point x="536" y="663"/>
      <point x="506" y="669" type="curve" smooth="yes"/>
      <point x="476" y="675"/>
      <point x="446" y="679"/>
      <point x="416" y="679" type="curve" smooth="yes"/>
      <point x="380" y="679"/>
      <point x="345" y="674"/>
      <point x="312" y="664" type="curve" smooth="yes"/>
      <point x="279" y="654"/>
      <point x="248" y="641"/>
      <point x="220" y="624" type="curve" smooth="yes"/>
      <point x="192" y="607"/>
      <point x="166" y="587"/>
      <point x="142" y="563" type="curve" smooth="yes"/>
      <point x="118" y="539"/>
      <point x="98" y="513"/>
      <point x="82" y="484" type="curve" smooth="yes"/>
      <point x="66" y="455"/>
      <point x="52" y="424"/>
      <point x="43" y="390" type="curve" smooth="yes"/>
      <point x="34" y="356"/>
      <point x="30" y="320"/>
      <point x="30" y="284" type="curve" smooth="yes"/>
      <point x="30" y="220"/>
      <point x="40" y="164"/>
      <point x="61" y="114" type="curve" smooth="yes"/>
      <point x="82" y="64"/>
      <point x="111" y="22"/>
      <point x="147" y="-12" type="curve" smooth="yes"/>
      <point x="183" y="-46"/>
      <point x="226" y="-74"/>
      <point x="276" y="-92" type="curve" smooth="yes"/>
      <point x="326" y="-110"/>
      <point x="378" y="-120"/>
      <point x="436" y="-120" type="curve" smooth="yes"/>
      <point x="494" y="-120"/>
      <point x="545" y="-113"/>
      <point x="591" y="-99" type="curve" smooth="yes"/>
      <point x="637" y="-85"/>
      <point x="676" y="-66"/>
      <point x="712" y="-42" type="curve"/>
      <point x="700" y="-10" type="line"/>
      <point x="696" y="-2"/>
      <point x="691" y="2"/>
      <point x="684" y="2" type="curve" smooth="yes"/>
      <point x="680" y="2"/>
      <point x="676" y="1"/>
      <point x="671" y="-2" type="curve" smooth="yes"/>
      <point x="643" y="-19"/>
      <point x="609" y="-33"/>
      <point x="570" y="-44" type="curve" smooth="yes"/>
      <point x="531" y="-55"/>
      <point x="486" y="-60"/>
      <point x="436" y="-60" type="curve" smooth="yes"/>
      <point x="388" y="-60"/>
      <point x="344" y="-52"/>
      <point x="302" y="-38" type="curve" smooth="yes"/>
      <point x="260" y="-24"/>
      <point x="225" y="-2"/>
      <point x="194" y="27" type="curve" smooth="yes"/>
      <point x="163" y="56"/>
      <point x="138" y="92"/>
      <point x="120" y="135" type="curve" smooth="yes"/>
      <point x="102" y="178"/>
      <point x="93" y="228"/>
      <point x="93" y="284" type="curve" smooth="yes"/>
      <point x="93" y="332"/>
      <point x="102" y="377"/>
      <point x="118" y="418" type="curve" smooth="yes"/>
      <point x="134" y="459"/>
      <point x="157" y="494"/>
      <point x="186" y="524" type="curve" smooth="yes"/>
      <point x="215" y="554"/>
      <point x="249" y="578"/>
      <point x="288" y="595" type="curve" smooth="yes"/>
      <point x="327" y="612"/>
      <point x="370" y="620"/>
      <point x="414" y="620" type="curve" smooth="yes"/>
      <point x="454" y="620"/>
      <point x="493" y="615"/>
      <point x="528" y="603" type="curve" smooth="yes"/>
      <point x="563" y="591"/>
      <point x="593" y="574"/>
      <point x="619" y="551" type="curve" smooth="yes"/>
      <point x="645" y="528"/>
      <point x="665" y="498"/>
      <point x="680" y="464" type="curve" smooth="yes"/>
      <point x="695" y="430"/>
      <point x="703" y="390"/>
      <point x="703" y="344" type="curve" smooth="yes"/>
      <point x="703" y="315"/>
      <point x="699" y="288"/>
      <point x="693" y="264" type="curve" smooth="yes"/>
      <point x="687" y="240"/>
      <point x="677" y="219"/>
      <point x="666" y="202" type="curve" smooth="yes"/>
      <point x="655" y="185"/>
      <point x="642" y="173"/>
      <point x="628" y="163" type="curve" smooth="yes"/>
      <point x="614" y="153"/>
      <point x="598" y="149"/>
      <point x="582" y="149" type="curve" smooth="yes"/>
      <point x="574" y="149"/>
      <point x="567" y="150"/>
      <point x="560" y="152" type="curve" smooth="yes"/>
      <point x="553" y="154"/>
      <point x="547" y="156"/>
      <point x="542" y="160" type="curve" smooth="yes"/>
      <point x="537" y="164"/>
      <point x="533" y="171"/>
      <point x="530" y="179" type="curve" smooth="yes"/>
      <point x="527" y="187"/>
      <point x="525" y="197"/>
      <point x="525" y="209" type="curve" smooth="yes"/>
      <point x="525" y="225"/>
      <point x="528" y="246"/>
      <point x="534" y="271" type="curve" smooth="yes"/>
      <point x="581" y="452" type="line"/>
      <point x="566" y="458"/>
      <point x="550" y="462"/>
      <point x="533" y="466" type="curve" smooth="yes"/>
      <point x="516" y="470"/>
      <point x="496" y="472"/>
      <point x="474" y="472" type="curve" smooth="yes"/>
      <point x="432" y="472"/>
      <point x="396" y="464"/>
      <point x="364" y="450" type="curve" smooth="yes"/>
      <point x="332" y="436"/>
      <point x="306" y="416"/>
      <point x="284" y="393" type="curve" smooth="yes"/>
      <point x="262" y="370"/>
      <point x="246" y="344"/>
      <point x="235" y="315" type="curve" smooth="yes"/>
      <point x="224" y="286"/>
      <point x="218" y="257"/>
      <point x="218" y="229" type="curve" smooth="yes"/>
      <point x="218" y="209"/>
      <point x="221" y="191"/>
      <point x="226" y="175" type="curve" smooth="yes"/>
      <point x="231" y="159"/>
      <point x="238" y="144"/>
      <point x="248" y="132" type="curve" smooth="yes"/>
      <point x="258" y="120"/>
      <point x="271" y="111"/>
      <point x="285" y="104" type="curve" smooth="yes"/>
      <point x="299" y="97"/>
      <point x="317" y="93"/>
      <point x="337" y="93" type="curve" smooth="yes"/>
      <point x="363" y="93"/>
      <point x="388" y="98"/>
      <point x="410" y="110" type="curve" smooth="yes"/>
      <point x="432" y="122"/>
      <point x="453" y="141"/>
      <point x="473" y="168" type="curve"/>
      <point x="477" y="142"/>
      <point x="488" y="122"/>
      <point x="504" y="110" type="curve" smooth="yes"/>
      <point x="520" y="98"/>
      <point x="542" y="92"/>
      <point x="568" y="92" type="curve"/>
    </contour>
    <contour>
      <point x="355" y="152" type="line"/>
      <point x="333" y="152"/>
      <point x="317" y="159"/>
      <point x="306" y="173" type="curve" smooth="yes"/>
      <point x="295" y="187"/>
      <point x="290" y="206"/>
      <point x="290" y="230" type="curve" smooth="yes"/>
      <point x="290" y="253"/>
      <point x="294" y="276"/>
      <point x="302" y="298" type="curve" smooth="yes"/>
      <point x="310" y="320"/>
      <point x="322" y="339"/>
      <point x="337" y="356" type="curve" smooth="yes"/>
      <point x="352" y="373"/>
      <point x="370" y="388"/>
      <point x="391" y="398" type="curve" smooth="yes"/>
      <point x="412" y="408"/>
      <point x="435" y="413"/>
      <point x="460" y="413" type="curve" smooth="yes"/>
      <point x="476" y="413"/>
      <point x="489" y="411"/>
      <point x="502" y="408" type="curve"/>
      <point x="464" y="261" type="line" smooth="yes"/>
      <point x="458" y="239"/>
      <point x="452" y="221"/>
      <point x="444" y="207" type="curve" smooth="yes"/>
      <point x="436" y="193"/>
      <point x="427" y="180"/>
      <point x="417" y="172" type="curve" smooth="yes"/>
      <point x="407" y="164"/>
      <point x="396" y="158"/>
      <point x="386" y="154" type="curve" smooth="yes"/>
      <point x="376" y="150"/>
      <point x="365" y="150"/>
      <point x="355" y="150" type="curve"/>
    </contour>
  </outline>
</glyph>
<glyph name="B" format="1">
  <advance width="630"/>
  <unicode hex="0042"/>
  <note>
    B
  </note>
  <outline>
    <contour>
      <point x="541" y="396"/>
      <point x="586" y="448"/>
      <point x="586" y="536" type="curve" smooth="yes"/>
      <point x="586" y="663"/>
      <point x="483" y="716"/>
      <point x="334" y="716" type="curve" smooth="yes"/>
      <point x="33" y="716" type="line"/>
      <point x="33" y="672" type="line" smooth="yes"/>
      <point x="33" y="662"/>
      <point x="38" y="656"/>
      <point x="48" y="654" type="curve"/>
      <point x="105" y="642" type="line"/>
      <point x="105" y="74" type="line"/>
      <point x="48" y="62" type="line" smooth="yes"/>
      <point x="38" y="60"/>
      <point x="33" y="54"/>
      <point x="33" y="44" type="curve" smooth="yes"/>
      <point x="33" y="0" type="line"/>
      <point x="358" y="0" type="line" smooth="yes"/>
      <point x="502" y="0"/>
      <point x="610" y="70"/>
      <point x="610" y="204" type="curve" smooth="yes"/>
      <point x="610" y="292"/>
      <point x="558" y="347"/>
      <point x="452" y="368" type="curve"/>
    </contour>
    <contour>
      <point x="202" y="638" type="line"/>
      <point x="334" y="638" type="line" smooth="yes"/>
      <point x="432" y="638"/>
      <point x="490" y="606"/>
      <point x="490" y="516" type="curve" smooth="yes"/>
      <point x="490" y="433"/>
      <point x="428" y="396"/>
      <point x="330" y="396" type="curve" smooth="yes"/>
      <point x="202" y="396" type="line"/>
    </contour>
    <contour>
      <point x="358" y="77" type="curve"/>
      <point x="202" y="77" type="line"/>
      <point x="202" y="326" type="line"/>
      <point x="357" y="326" type="line" smooth="yes"/>
      <point x="450" y="326"/>
      <point x="514" y="292"/>
      <point x="514" y="206" type="curve" smooth="yes"/>
      <point x="514" y="124"/>
      <point x="465" y="76"/>
    </contour>
    <contour>
      <point x="315" y="716" type="move" name="top"/>
    </contour>
    <contour>
      <point x="315" y="0" type="move" name="bottom"/>
    </contour>
  </outline>
</glyph>
<glyph name="I" format="1">
  <advance width="305"/>
  <unicode hex="0049"/>
  <note>
    I
  </note>
  <outline>
    <contour>
      <point x="260" y="655" type="line" smooth="yes"/>
      <point x="270" y="657"/>
      <point x="275" y="664"/>
      <point x="275" y="674" type="curve" smooth="yes"/>
      <point x="275" y="716" type="line"/>
      <point x="34" y="716" type="line"/>
      <point x="34" y="674" type="line" smooth="yes"/>
      <point x="34" y="664"/>
      <point x="38" y="658"/>
      <point x="46" y="656" type="curve" smooth="yes"/>
      <point x="54" y="654"/>
      <point x="74" y="650"/>
      <point x="106" y="644" type="curve"/>
      <point x="106" y="73" type="line"/>
      <point x="48" y="62" type="line" smooth="yes"/>
      <point x="38" y="60"/>
      <point x="34" y="53"/>
      <point x="34" y="43" type="curve" smooth="yes"/>
      <point x="34" y="0" type="line"/>
      <point x="275" y="0" type="line"/>
      <point x="275" y="43" type="line" smooth="yes"/>
      <point x="275" y="53"/>
      <point x="271" y="59"/>
      <point x="263" y="61" type="curve" smooth="yes"/>
      <point x="255" y="63"/>
      <point x="234" y="67"/>
      <point x="202" y="73" type="curve"/>
      <point x="202" y="644" type="line"/>
    </contour>
    <contour>
      <point x="274" y="10" type="move" name="ogonek"/>
    </contour>
    <contour>
      <point x="153" y="716" type="move" name="top"/>
    </contour>
    <contour>
      <point x="20" y="716" type="move" name="topleft"/>
    </contour>
    <contour>
      <point x="153" y="0" type="move" name="bottom"/>
    </contour>
  </outline>
</glyph>
<glyph name="N" format="1">
  <advance width="776"/>
  <unicode hex="004E"/>
  <note>
    N
  </note>
  <outline>
    <contour>
      <point x="604" y="160" type="line"/>
      <point x="190" y="700" type="line"/>
      <point x="184" y="706"/>
      <point x="179" y="711"/>
      <point x="175" y="713" type="curve" smooth="yes"/>
      <point x="171" y="715"/>
      <point x="164" y="716"/>
      <point x="156" y="716" type="curve" smooth="yes"/>
      <point x="34" y="716" type="line"/>
      <point x="34" y="673" type="line" smooth="yes"/>
      <point x="34" y="663"/>
      <point x="39" y="656"/>
      <point x="49" y="654" type="curve"/>
      <point x="55" y="652"/>
      <point x="74" y="648"/>
      <point x="106" y="642" type="curve"/>
      <point x="106" y="72" type="line"/>
      <point x="49" y="60" type="line" smooth="yes"/>
      <point x="39" y="58"/>
      <point x="34" y="52"/>
      <point x="34" y="42" type="curve" smooth="yes"/>
      <point x="34" y="-1" type="line"/>
      <point x="272" y="-1" type="line"/>
      <point x="272" y="42" type="line" smooth="yes"/>
      <point x="272" y="52"/>
      <point x="268" y="58"/>
      <point x="258" y="60" type="curve" smooth="yes"/>
      <point x="253" y="61"/>
      <point x="231" y="66"/>
      <point x="191" y="72" type="curve"/>
      <point x="191" y="510" type="line" smooth="yes"/>
      <point x="191" y="524"/>
      <point x="191" y="539"/>
      <point x="189" y="556" type="curve"/>
      <point x="604" y="16" type="line"/>
      <point x="614" y="4"/>
      <point x="624" y="-1"/>
      <point x="638" y="-1" type="curve" smooth="yes"/>
      <point x="687" y="-1" type="line"/>
      <point x="687" y="642" type="line"/>
      <point x="744" y="654" type="line" smooth="yes"/>
      <point x="754" y="656"/>
      <point x="760" y="662"/>
      <point x="760" y="672" type="curve" smooth="yes"/>
      <point x="760" y="716" type="line"/>
      <point x="687" y="716" type="line"/>
      <point x="602" y="716" type="line"/>
      <point x="520" y="716" type="line"/>
      <point x="520" y="672" type="line" smooth="yes"/>
      <point x="520" y="662"/>
      <point x="526" y="656"/>
      <point x="536" y="654" type="curve" smooth="yes"/>
      <point x="542" y="653"/>
      <point x="563" y="648"/>
      <point x="602" y="642" type="curve"/>
      <point x="602" y="208" type="line" smooth="yes"/>
      <point x="602" y="190"/>
      <point x="602" y="172"/>
      <point x="604" y="158" type="curve"/>
    </contour>
    <contour>
      <point x="388" y="716" type="move" name="top"/>
    </contour>
    <contour>
      <point x="388" y="0" type="move" name="bottom"/>
    </contour>
  </outline>
</glyph>
<glyph name="P" format="1">
  <advance width="591"/>
  <unicode hex="0050"/>
  <note>
    P
  </note>
  <outline>
    <contour>
      <point x="422" y="701" type="line"/>
      <point x="388" y="711"/>
      <point x="350" y="716"/>
      <point x="304" y="716" type="curve" smooth="yes"/>
      <point x="34" y="716" type="line"/>
      <point x="34" y="674" type="line" smooth="yes"/>
      <point x="34" y="664"/>
      <point x="39" y="657"/>
      <point x="49" y="655" type="curve"/>
      <point x="55" y="653"/>
      <point x="74" y="649"/>
      <point x="106" y="643" type="curve"/>
      <point x="106" y="72" type="line"/>
      <point x="49" y="61" type="line" smooth="yes"/>
      <point x="39" y="59"/>
      <point x="34" y="52"/>
      <point x="34" y="42" type="curve" smooth="yes"/>
      <point x="34" y="0" type="line"/>
      <point x="274" y="0" type="line"/>
      <point x="274" y="42" type="line" smooth="yes"/>
      <point x="274" y="52"/>
      <point x="270" y="59"/>
      <point x="260" y="61" type="curve" smooth="yes"/>
      <point x="228" y="67"/>
      <point x="208" y="71"/>
      <point x="202" y="73" type="curve"/>
      <point x="202" y="268" type="line"/>
      <point x="304" y="268" type="line" smooth="yes"/>
      <point x="388" y="268"/>
      <point x="454" y="290"/>
      <point x="502" y="332" type="curve" smooth="yes"/>
      <point x="548" y="372"/>
      <point x="570" y="426"/>
      <point x="570" y="494" type="curve" smooth="yes"/>
      <point x="570" y="600"/>
      <point x="521" y="670"/>
      <point x="422" y="702" type="curve"/>
    </contour>
    <contour>
      <point x="474" y="495" type="line"/>
      <point x="474" y="449"/>
      <point x="459" y="413"/>
      <point x="429" y="386" type="curve" smooth="yes"/>
      <point x="399" y="359"/>
      <point x="358" y="346"/>
      <point x="304" y="346" type="curve" smooth="yes"/>
      <point x="202" y="346" type="line"/>
      <point x="202" y="640" type="line"/>
      <point x="304" y="640" type="line" smooth="yes"/>
      <point x="361" y="640"/>
      <point x="403" y="628"/>
      <point x="431" y="602" type="curve" smooth="yes"/>
      <point x="459" y="576"/>
      <point x="473" y="542"/>
      <point x="473" y="496" type="curve"/>
    </contour>
    <contour>
      <point x="296" y="716" type="move" name="top"/>
    </contour>
    <contour>
      <point x="296" y="0" type="move" name="bottom"/>
    </contour>
  </outline>
</glyph>
<glyph name="X" format="1">
  <advance width="754"/>
  <unicode hex="0058"/>
  <note>
    X
  </note>
  <outline>
    <contour>
      <point x="710" y="62" type="line"/>
      <point x="704" y="64"/>
      <point x="682" y="68"/>
      <point x="644" y="74" type="curve"/>
      <point x="447" y="373" type="line"/>
      <point x="634" y="644" type="line"/>
      <point x="672" y="650"/>
      <point x="695" y="654"/>
      <point x="703" y="656" type="curve" smooth="yes"/>
      <point x="711" y="658"/>
      <point x="716" y="664"/>
      <point x="716" y="674" type="curve" smooth="yes"/>
      <point x="716" y="717" type="line"/>
      <point x="458" y="717" type="line"/>
      <point x="458" y="674" type="line" smooth="yes"/>
      <point x="458" y="664"/>
      <point x="464" y="658"/>
      <point x="474" y="656" type="curve" smooth="yes"/>
      <point x="500" y="651"/>
      <point x="518" y="646"/>
      <point x="530" y="644" type="curve"/>
      <point x="393" y="440" type="line" smooth="yes"/>
      <point x="388" y="432"/>
      <point x="384" y="423"/>
      <point x="382" y="416" type="curve"/>
      <point x="233" y="646" type="line"/>
      <point x="255" y="650"/>
      <point x="271" y="653"/>
      <point x="281" y="655" type="curve" smooth="yes"/>
      <point x="291" y="657"/>
      <point x="297" y="664"/>
      <point x="297" y="674" type="curve" smooth="yes"/>
      <point x="297" y="716" type="line"/>
      <point x="42" y="716" type="line"/>
      <point x="42" y="674" type="line" smooth="yes"/>
      <point x="42" y="664"/>
      <point x="47" y="657"/>
      <point x="57" y="655" type="curve"/>
      <point x="63" y="653"/>
      <point x="85" y="649"/>
      <point x="123" y="643" type="curve"/>
      <point x="310" y="368" type="line"/>
      <point x="112" y="72" type="line"/>
      <point x="70" y="65"/>
      <point x="48" y="61"/>
      <point x="46" y="61" type="curve"/>
      <point x="36" y="59"/>
      <point x="30" y="52"/>
      <point x="30" y="42" type="curve" smooth="yes"/>
      <point x="30" y="0" type="line"/>
      <point x="288" y="0" type="line"/>
      <point x="288" y="42" type="line" smooth="yes"/>
      <point x="288" y="52"/>
      <point x="283" y="59"/>
      <point x="273" y="61" type="curve" smooth="yes"/>
      <point x="237" y="68"/>
      <point x="218" y="72"/>
      <point x="216" y="72" type="curve"/>
      <point x="367" y="298" type="line" smooth="yes"/>
      <point x="371" y="304"/>
      <point x="374" y="311"/>
      <point x="376" y="318" type="curve"/>
      <point x="533" y="72" type="line"/>
      <point x="533" y="72"/>
      <point x="524" y="71"/>
      <point x="507" y="67" type="curve" smooth="yes"/>
      <point x="490" y="63"/>
      <point x="480" y="61"/>
      <point x="476" y="61" type="curve"/>
      <point x="466" y="59"/>
      <point x="461" y="52"/>
      <point x="461" y="42" type="curve" smooth="yes"/>
      <point x="461" y="0" type="line"/>
      <point x="724" y="0" type="line"/>
      <point x="724" y="42" type="line" smooth="yes"/>
      <point x="724" y="52"/>
      <point x="720" y="59"/>
      <point x="710" y="61" type="curve"/>
    </contour>
    <contour>
      <point x="377" y="716" type="move" name="top"/>
    </contour>
    <contour>
      <point x="377" y="0" type="move" name="bottom"/>
    </contour>
  </outline>
</glyph>
<glyph name="bracketleft" format="1">
  <advance width="260"/>
  <unicode hex="005B"/>
  <note>
    bracketleft
  </note>
  <outline>
    <contour>
      <point x="56" y="-144" type="line"/>
      <point x="240" y="-144" type="line"/>
      <point x="240" y="-110" type="line" smooth="yes"/>
      <point x="240" y="-102"/>
      <point x="236" y="-96"/>
      <point x="232" y="-92" type="curve" smooth="yes"/>
      <point x="228" y="-88"/>
      <point x="222" y="-86"/>
      <point x="214" y="-86" type="curve" smooth="yes"/>
      <point x="130" y="-86" type="line"/>
      <point x="130" y="708" type="line"/>
      <point x="214" y="708" type="line" smooth="yes"/>
      <point x="222" y="708"/>
      <point x="228" y="710"/>
      <point x="232" y="714" type="curve" smooth="yes"/>
      <point x="236" y="718"/>
      <point x="239" y="722"/>
      <point x="239" y="730" type="curve" smooth="yes"/>
      <point x="239" y="766" type="line"/>
      <point x="55" y="766" type="line"/>
    </contour>
  </outline>
</glyph>
<glyph name="asciicircum" format="1">
  <advance width="471"/>
  <unicode hex="005E"/>
  <note>
    asciicircum
  </note>
  <outline>
    <contour>
      <point x="207" y="716" type="line"/>
      <point x="28" y="394" type="line"/>
      <point x="96" y="394" type="line" smooth="yes"/>
      <point x="102" y="394"/>
      <point x="108" y="394"/>
      <point x="112" y="398" type="curve" smooth="yes"/>
      <point x="116" y="402"/>
      <point x="119" y="406"/>
      <point x="121" y="410" type="curve"/>
      <point x="218" y="586" type="line" smooth="yes"/>
      <point x="226" y="600"/>
      <point x="232" y="616"/>
      <point x="236" y="630" type="curve"/>
      <point x="238" y="623"/>
      <point x="241" y="616"/>
      <point x="244" y="609" type="curve" smooth="yes"/>
      <point x="247" y="602"/>
      <point x="251" y="595"/>
      <point x="255" y="587" type="curve"/>
      <point x="353" y="411" type="line"/>
      <point x="355" y="407"/>
      <point x="359" y="403"/>
      <point x="363" y="399" type="curve" smooth="yes"/>
      <point x="367" y="395"/>
      <point x="372" y="394"/>
      <point x="378" y="394" type="curve" smooth="yes"/>
      <point x="442" y="394" type="line"/>
      <point x="263" y="717" type="line"/>
    </contour>
  </outline>
</glyph>
<glyph name="underscore" format="1">
  <advance width="513"/>
  <unicode hex="005F"/>
  <note>
    underscore
  </note>
  <outline>
    <contour>
      <point x="453" y="-82" type="line"/>
      <point x="59" y="-82" type="line"/>
      <point x="59" y="-142" type="line"/>
      <point x="453" y="-142" type="line"/>
    </contour>
  </outline>
</glyph>
<glyph name="j" format="1">
  <advance width="258"/>
  <unicode hex="006A"/>
  <note>
    j
  </note>
  <outline>
    <contour>
      <point x="216" y="698"/>
      <point x="212" y="705"/>
      <point x="206" y="711" type="curve" smooth="yes"/>
      <point x="200" y="717"/>
      <point x="194" y="721"/>
      <point x="186" y="725" type="curve" smooth="yes"/>
      <point x="178" y="729"/>
      <point x="170" y="730"/>
      <point x="162" y="730" type="curve" smooth="yes"/>
      <point x="154" y="730"/>
      <point x="146" y="729"/>
      <point x="138" y="725" type="curve" smooth="yes"/>
      <point x="130" y="721"/>
      <point x="124" y="717"/>
      <point x="118" y="711" type="curve" smooth="yes"/>
      <point x="112" y="705"/>
      <point x="108" y="698"/>
      <point x="104" y="690" type="curve" smooth="yes"/>
      <point x="100" y="682"/>
      <point x="99" y="673"/>
      <point x="99" y="665" type="curve" smooth="yes"/>
      <point x="99" y="657"/>
      <point x="100" y="649"/>
      <point x="104" y="641" type="curve" smooth="yes"/>
      <point x="108" y="633"/>
      <point x="112" y="627"/>
      <point x="118" y="621" type="curve" smooth="yes"/>
      <point x="124" y="615"/>
      <point x="130" y="611"/>
      <point x="138" y="607" type="curve" smooth="yes"/>
      <point x="146" y="603"/>
      <point x="154" y="602"/>
      <point x="162" y="602" type="curve" smooth="yes"/>
      <point x="170" y="602"/>
      <point x="178" y="603"/>
      <point x="186" y="607" type="curve" smooth="yes"/>
      <point x="194" y="611"/>
      <point x="200" y="615"/>
      <point x="206" y="621" type="curve" smooth="yes"/>
      <point x="212" y="627"/>
      <point x="216" y="633"/>
      <point x="220" y="641" type="curve" smooth="yes"/>
      <point x="224" y="649"/>
      <point x="225" y="657"/>
      <point x="225" y="665" type="curve" smooth="yes"/>
      <point x="225" y="673"/>
      <point x="224" y="682"/>
      <point x="220" y="690" type="curve" smooth="yes"/>
    </contour>
    <contour>
      <point x="127" y="-172" type="line"/>
      <point x="179" y="-150"/>
      <point x="204" y="-106"/>
      <point x="204" y="-38" type="curve" smooth="yes"/>
      <point x="204" y="506" type="line"/>
      <point x="116" y="506" type="line"/>
      <point x="44" y="506" type="line"/>
      <point x="44" y="463" type="line" smooth="yes"/>
      <point x="44" y="453"/>
      <point x="48" y="446"/>
      <point x="58" y="444" type="curve" smooth="yes"/>
      <point x="86" y="438"/>
      <point x="106" y="435"/>
      <point x="116" y="433" type="curve"/>
      <point x="116" y="-38" type="line" smooth="yes"/>
      <point x="116" y="-65"/>
      <point x="110" y="-84"/>
      <point x="99" y="-96" type="curve" smooth="yes"/>
      <point x="88" y="-108"/>
      <point x="70" y="-114"/>
      <point x="44" y="-114" type="curve" smooth="yes"/>
      <point x="24" y="-114" type="line" smooth="yes"/>
      <point x="14" y="-114"/>
      <point x="9" y="-118"/>
      <point x="8" y="-124" type="curve"/>
      <point x="4" y="-172" type="line"/>
      <point x="22" y="-178"/>
      <point x="44" y="-182"/>
      <point x="66" y="-182" type="curve" smooth="yes"/>
      <point x="88" y="-182"/>
      <point x="109" y="-179"/>
      <point x="127" y="-171" type="curve"/>
    </contour>
  </outline>
</glyph>
<glyph name="l" format="1">
  <advance width="290"/>
  <unicode hex="006C"/>
  <note>
    l
  </note>
  <outline>
    <contour>
      <point x="244" y="64"/>
      <point x="226" y="68"/>
      <point x="194" y="74" type="curve"/>
      <point x="194" y="737" type="line"/>
      <point x="32" y="737" type="line"/>
      <point x="32" y="694" type="line" smooth="yes"/>
      <point x="32" y="684"/>
      <point x="38" y="678"/>
      <point x="48" y="676" type="curve"/>
      <point x="54" y="674"/>
      <point x="72" y="670"/>
      <point x="104" y="664" type="curve"/>
      <point x="104" y="73" type="line"/>
      <point x="48" y="62" type="line" smooth="yes"/>
      <point x="38" y="60"/>
      <point x="32" y="53"/>
      <point x="32" y="43" type="curve" smooth="yes"/>
      <point x="32" y="0" type="line"/>
      <point x="266" y="0" type="line"/>
      <point x="266" y="43" type="line" smooth="yes"/>
      <point x="266" y="53"/>
      <point x="260" y="60"/>
      <point x="250" y="62" type="curve"/>
    </contour>
    <contour>
      <point x="145" y="0" type="move" name="bottom"/>
    </contour>
    <contour>
      <point x="145" y="506" type="move" name="top"/>
    </contour>
    <contour>
      <point x="270" y="506" type="move" name="topright"/>
    </contour>
    <contour>
      <point x="145" y="253" type="move" name="center"/>
    </contour>
  </outline>
</glyph>
<glyph name="m" format="1">
  <advance width="890"/>
  <unicode hex="006D"/>
  <note>
    m
  </note>
  <outline>
    <contour>
      <point x="189" y="436" type="line"/>
      <point x="182" y="488" type="line"/>
      <point x="178" y="500"/>
      <point x="170" y="506"/>
      <point x="158" y="506" type="curve" smooth="yes"/>
      <point x="106" y="506" type="line"/>
      <point x="34" y="506" type="line"/>
      <point x="34" y="464" type="line" smooth="yes"/>
      <point x="34" y="454"/>
      <point x="38" y="447"/>
      <point x="48" y="445" type="curve"/>
      <point x="54" y="443"/>
      <point x="74" y="439"/>
      <point x="106" y="433" type="curve"/>
      <point x="106" y="72" type="line"/>
      <point x="48" y="61" type="line" smooth="yes"/>
      <point x="38" y="59"/>
      <point x="34" y="52"/>
      <point x="34" y="42" type="curve" smooth="yes"/>
      <point x="34" y="0" type="line"/>
      <point x="267" y="0" type="line"/>
      <point x="267" y="42" type="line" smooth="yes"/>
      <point x="267" y="52"/>
      <point x="262" y="59"/>
      <point x="252" y="61" type="curve"/>
      <point x="250" y="61"/>
      <point x="240" y="63"/>
      <point x="222" y="67" type="curve"/>
      <point x="195" y="72" type="line"/>
      <point x="195" y="376" type="line"/>
      <point x="229" y="420"/>
      <point x="266" y="442"/>
      <point x="308" y="442" type="curve" smooth="yes"/>
      <point x="372" y="442"/>
      <point x="404" y="402"/>
      <point x="404" y="322" type="curve" smooth="yes"/>
      <point x="404" y="-1" type="line"/>
      <point x="565" y="-1" type="line"/>
      <point x="565" y="42" type="line" smooth="yes"/>
      <point x="565" y="52"/>
      <point x="560" y="58"/>
      <point x="550" y="60" type="curve" smooth="yes"/>
      <point x="518" y="66"/>
      <point x="499" y="71"/>
      <point x="493" y="72" type="curve"/>
      <point x="493" y="322" type="line" smooth="yes"/>
      <point x="493" y="360"/>
      <point x="504" y="390"/>
      <point x="526" y="412" type="curve" smooth="yes"/>
      <point x="546" y="432"/>
      <point x="572" y="442"/>
      <point x="602" y="442" type="curve" smooth="yes"/>
      <point x="635" y="442"/>
      <point x="660" y="431"/>
      <point x="678" y="411" type="curve" smooth="yes"/>
      <point x="696" y="391"/>
      <point x="704" y="361"/>
      <point x="704" y="321" type="curve" smooth="yes"/>
      <point x="704" y="-2" type="line"/>
      <point x="865" y="-2" type="line"/>
      <point x="865" y="42" type="line" smooth="yes"/>
      <point x="865" y="52"/>
      <point x="860" y="58"/>
      <point x="850" y="60" type="curve"/>
      <point x="844" y="62"/>
      <point x="824" y="66"/>
      <point x="792" y="72" type="curve"/>
      <point x="792" y="322" type="line" smooth="yes"/>
      <point x="792" y="383"/>
      <point x="778" y="430"/>
      <point x="748" y="464" type="curve" smooth="yes"/>
      <point x="734" y="480"/>
      <point x="715" y="493"/>
      <point x="694" y="501" type="curve" smooth="yes"/>
      <point x="673" y="509"/>
      <point x="647" y="514"/>
      <point x="616" y="514" type="curve" smooth="yes"/>
      <point x="585" y="514"/>
      <point x="556" y="504"/>
      <point x="528" y="488" type="curve" smooth="yes"/>
      <point x="497" y="470"/>
      <point x="476" y="443"/>
      <point x="462" y="408" type="curve"/>
      <point x="452" y="440"/>
      <point x="437" y="466"/>
      <point x="416" y="485" type="curve" smooth="yes"/>
      <point x="395" y="504"/>
      <point x="366" y="514"/>
      <point x="332" y="514" type="curve" smooth="yes"/>
      <point x="279" y="514"/>
      <point x="231" y="487"/>
      <point x="189" y="435" type="curve"/>
    </contour>
    <contour>
      <point x="445" y="506" type="move" name="top"/>
    </contour>
    <contour>
      <point x="445" y="0" type="move" name="bottom"/>
    </contour>
  </outline>
</glyph>
<glyph name="n" format="1">
  <advance width="625"/>
  <unicode hex="006E"/>
  <note>
    n
  </note>
  <outline>
    <contour>
      <point x="190" y="433" type="line"/>
      <point x="182" y="488" type="line"/>
      <point x="178" y="500"/>
      <point x="170" y="506"/>
      <point x="158" y="506" type="curve" smooth="yes"/>
      <point x="106" y="506" type="line"/>
      <point x="34" y="506" type="line"/>
      <point x="34" y="464" type="line" smooth="yes"/>
      <point x="34" y="454"/>
      <point x="38" y="447"/>
      <point x="48" y="445" type="curve"/>
      <point x="54" y="443"/>
      <point x="74" y="439"/>
      <point x="106" y="433" type="curve"/>
      <point x="106" y="72" type="line"/>
      <point x="48" y="61" type="line" smooth="yes"/>
      <point x="38" y="59"/>
      <point x="34" y="52"/>
      <point x="34" y="42" type="curve" smooth="yes"/>
      <point x="34" y="0" type="line"/>
      <point x="267" y="0" type="line"/>
      <point x="267" y="42" type="line" smooth="yes"/>
      <point x="267" y="52"/>
      <point x="262" y="59"/>
      <point x="252" y="61" type="curve" smooth="yes"/>
      <point x="216" y="69"/>
      <point x="196" y="73"/>
      <point x="194" y="73" type="curve"/>
      <point x="194" y="373" type="line"/>
      <point x="236" y="420"/>
      <point x="282" y="444"/>
      <point x="332" y="444" type="curve" smooth="yes"/>
      <point x="403" y="444"/>
      <point x="438" y="402"/>
      <point x="438" y="322" type="curve" smooth="yes"/>
      <point x="438" y="0" type="line"/>
      <point x="600" y="0" type="line"/>
      <point x="600" y="43" type="line" smooth="yes"/>
      <point x="600" y="53"/>
      <point x="594" y="60"/>
      <point x="584" y="62" type="curve"/>
      <point x="578" y="64"/>
      <point x="559" y="68"/>
      <point x="527" y="74" type="curve"/>
      <point x="527" y="323" type="line" smooth="yes"/>
      <point x="527" y="381"/>
      <point x="512" y="428"/>
      <point x="484" y="462" type="curve" smooth="yes"/>
      <point x="454" y="498"/>
      <point x="412" y="515"/>
      <point x="358" y="515" type="curve" smooth="yes"/>
      <point x="296" y="515"/>
      <point x="240" y="488"/>
      <point x="190" y="434" type="curve"/>
    </contour>
    <contour>
      <point x="313" y="506" type="move" name="top"/>
    </contour>
    <contour>
      <point x="313" y="0" type="move" name="bottom"/>
    </contour>
  </outline>
</glyph>
<glyph name="p" format="1">
  <advance width="556"/>
  <unicode hex="0070"/>
  <note>
    p
  </note>
  <outline>
    <contour>
      <point x="171" y="428" type="line"/>
      <point x="164" y="488" type="line"/>
      <point x="160" y="500"/>
      <point x="152" y="506"/>
      <point x="140" y="506" type="curve" smooth="yes"/>
      <point x="86" y="506" type="line"/>
      <point x="14" y="506" type="line"/>
      <point x="14" y="464" type="line" smooth="yes"/>
      <point x="14" y="454"/>
      <point x="20" y="447"/>
      <point x="30" y="445" type="curve"/>
      <point x="36" y="443"/>
      <point x="54" y="439"/>
      <point x="86" y="433" type="curve"/>
      <point x="86" y="-99" type="line"/>
      <point x="30" y="-110" type="line" smooth="yes"/>
      <point x="20" y="-112"/>
      <point x="14" y="-119"/>
      <point x="14" y="-129" type="curve" smooth="yes"/>
      <point x="14" y="-172" type="line"/>
      <point x="248" y="-172" type="line"/>
      <point x="248" y="-129" type="line" smooth="yes"/>
      <point x="248" y="-119"/>
      <point x="242" y="-112"/>
      <point x="232" y="-110" type="curve"/>
      <point x="230" y="-110"/>
      <point x="220" y="-108"/>
      <point x="203" y="-104" type="curve" smooth="yes"/>
      <point x="186" y="-100"/>
      <point x="177" y="-98"/>
      <point x="176" y="-98" type="curve"/>
      <point x="176" y="52" type="line"/>
      <point x="212" y="12"/>
      <point x="260" y="-7"/>
      <point x="322" y="-7" type="curve" smooth="yes"/>
      <point x="384" y="-7"/>
      <point x="436" y="19"/>
      <point x="476" y="69" type="curve" smooth="yes"/>
      <point x="514" y="117"/>
      <point x="534" y="180"/>
      <point x="534" y="256" type="curve" smooth="yes"/>
      <point x="534" y="339"/>
      <point x="516" y="404"/>
      <point x="482" y="450" type="curve" smooth="yes"/>
      <point x="448" y="494"/>
      <point x="402" y="516"/>
      <point x="342" y="516" type="curve" smooth="yes"/>
      <point x="276" y="516"/>
      <point x="220" y="486"/>
      <point x="172" y="428" type="curve"/>
    </contour>
    <contour>
      <point x="176" y="367" type="line"/>
      <point x="214" y="418"/>
      <point x="260" y="444"/>
      <point x="312" y="444" type="curve" smooth="yes"/>
      <point x="398" y="444"/>
      <point x="442" y="380"/>
      <point x="442" y="256" type="curve" smooth="yes"/>
      <point x="442" y="194"/>
      <point x="430" y="146"/>
      <point x="404" y="112" type="curve" smooth="yes"/>
      <point x="378" y="78"/>
      <point x="340" y="62"/>
      <point x="292" y="62" type="curve" smooth="yes"/>
      <point x="244" y="62"/>
      <point x="206" y="82"/>
      <point x="176" y="122" type="curve"/>
    </contour>
    <contour>
      <point x="278" y="506" type="move" name="top"/>
    </contour>
    <contour>
      <point x="278" y="0" type="move" name="bottom"/>
    </contour>
  </outline>
</glyph>
<glyph name="u" format="1">
  <advance width="606"/>
  <unicode hex="0075"/>
  <note>
    u
  </note>
  <outline>
    <contour>
      <point x="282" y="63" type="line"/>
      <point x="246" y="63"/>
      <point x="220" y="73"/>
      <point x="202" y="94" type="curve" smooth="yes"/>
      <point x="184" y="115"/>
      <point x="176" y="146"/>
      <point x="176" y="184" type="curve" smooth="yes"/>
      <point x="176" y="506" type="line"/>
      <point x="14" y="506" type="line"/>
      <point x="14" y="464" type="line" smooth="yes"/>
      <point x="14" y="454"/>
      <point x="20" y="447"/>
      <point x="30" y="445" type="curve"/>
      <point x="36" y="443"/>
      <point x="54" y="439"/>
      <point x="86" y="433" type="curve"/>
      <point x="86" y="183" type="line" smooth="yes"/>
      <point x="86" y="123"/>
      <point x="102" y="78"/>
      <point x="130" y="44" type="curve" smooth="yes"/>
      <point x="160" y="9"/>
      <point x="202" y="-9"/>
      <point x="256" y="-9" type="curve" smooth="yes"/>
      <point x="320" y="-9"/>
      <point x="376" y="18"/>
      <point x="424" y="72" type="curve"/>
      <point x="431" y="18" type="line"/>
      <point x="435" y="6"/>
      <point x="443" y="-1"/>
      <point x="455" y="-1" type="curve" smooth="yes"/>
      <point x="580" y="-1" type="line"/>
      <point x="580" y="42" type="line" smooth="yes"/>
      <point x="580" y="52"/>
      <point x="575" y="58"/>
      <point x="565" y="60" type="curve"/>
      <point x="559" y="62"/>
      <point x="540" y="66"/>
      <point x="508" y="72" type="curve"/>
      <point x="508" y="506" type="line"/>
      <point x="419" y="506" type="line"/>
      <point x="347" y="506" type="line"/>
      <point x="347" y="463" type="line" smooth="yes"/>
      <point x="347" y="453"/>
      <point x="352" y="446"/>
      <point x="362" y="444" type="curve" smooth="yes"/>
      <point x="394" y="438"/>
      <point x="413" y="434"/>
      <point x="419" y="432" type="curve"/>
      <point x="419" y="132" type="line"/>
      <point x="378" y="86"/>
      <point x="332" y="62"/>
      <point x="282" y="62" type="curve"/>
    </contour>
    <contour>
      <point x="545" y="10" type="move" name="ogonek"/>
    </contour>
    <contour>
      <point x="303" y="506" type="move" name="top"/>
    </contour>
    <contour>
      <point x="586" y="506" type="move" name="topright"/>
    </contour>
    <contour>
      <point x="303" y="0" type="move" name="bottom"/>
    </contour>
  </outline>
</glyph>
<glyph name="x" format="1">
  <advance width="571"/>
  <unicode hex="0078"/>
  <note>
    x
  </note>
  <outline>
    <contour>
      <point x="474" y="71" type="line"/>
      <point x="344" y="264" type="line"/>
      <point x="464" y="434" type="line"/>
      <point x="488" y="438"/>
      <point x="507" y="442"/>
      <point x="517" y="444" type="curve" smooth="yes"/>
      <point x="527" y="446"/>
      <point x="532" y="453"/>
      <point x="532" y="463" type="curve" smooth="yes"/>
      <point x="532" y="506" type="line"/>
      <point x="334" y="506" type="line"/>
      <point x="334" y="463" type="line" smooth="yes"/>
      <point x="334" y="453"/>
      <point x="339" y="446"/>
      <point x="349" y="444" type="curve"/>
      <point x="349" y="444"/>
      <point x="354" y="443"/>
      <point x="360" y="442" type="curve" smooth="yes"/>
      <point x="366" y="441"/>
      <point x="372" y="440"/>
      <point x="376" y="439" type="curve"/>
      <point x="302" y="330" type="line"/>
      <point x="296" y="320"/>
      <point x="292" y="312"/>
      <point x="289" y="302" type="curve"/>
      <point x="200" y="440" type="line"/>
      <point x="213" y="442"/>
      <point x="219" y="444"/>
      <point x="220" y="444" type="curve"/>
      <point x="230" y="446"/>
      <point x="236" y="452"/>
      <point x="236" y="462" type="curve" smooth="yes"/>
      <point x="236" y="506" type="line"/>
      <point x="38" y="506" type="line"/>
      <point x="38" y="462" type="line" smooth="yes"/>
      <point x="38" y="452"/>
      <point x="42" y="446"/>
      <point x="52" y="444" type="curve"/>
      <point x="58" y="442"/>
      <point x="77" y="440"/>
      <point x="105" y="434" type="curve"/>
      <point x="226" y="258" type="line"/>
      <point x="97" y="70" type="line"/>
      <point x="93" y="70"/>
      <point x="85" y="68"/>
      <point x="73" y="66" type="curve" smooth="yes"/>
      <point x="61" y="64"/>
      <point x="53" y="61"/>
      <point x="49" y="60" type="curve"/>
      <point x="39" y="58"/>
      <point x="34" y="52"/>
      <point x="34" y="42" type="curve" smooth="yes"/>
      <point x="34" y="-1" type="line"/>
      <point x="233" y="-1" type="line"/>
      <point x="233" y="42" type="line" smooth="yes"/>
      <point x="233" y="52"/>
      <point x="228" y="58"/>
      <point x="218" y="60" type="curve"/>
      <point x="216" y="60"/>
      <point x="210" y="62"/>
      <point x="200" y="64" type="curve"/>
      <point x="196" y="65"/>
      <point x="192" y="66"/>
      <point x="188" y="66" type="curve"/>
      <point x="272" y="190" type="line"/>
      <point x="276" y="198"/>
      <point x="280" y="206"/>
      <point x="282" y="216" type="curve"/>
      <point x="380" y="65" type="line"/>
      <point x="366" y="63"/>
      <point x="356" y="60"/>
      <point x="354" y="60" type="curve"/>
      <point x="344" y="58"/>
      <point x="339" y="52"/>
      <point x="339" y="42" type="curve" smooth="yes"/>
      <point x="339" y="-1" type="line"/>
      <point x="538" y="-1" type="line"/>
      <point x="538" y="42" type="line" smooth="yes"/>
      <point x="538" y="52"/>
      <point x="532" y="60"/>
      <point x="520" y="62" type="curve" smooth="yes"/>
      <point x="508" y="64"/>
      <point x="494" y="66"/>
      <point x="476" y="70" type="curve"/>
    </contour>
    <contour>
      <point x="286" y="506" type="move" name="top"/>
    </contour>
    <contour>
      <point x="286" y="0" type="move" name="bottom"/>
    </contour>
  </outline>
</glyph>
<glyph name="y" format="1">
  <advance width="596"/>
  <unicode hex="0079"/>
  <note>
    y
  </note>
  <outline>
    <contour>
      <point x="540" y="506" type="line"/>
      <point x="352" y="506" type="line"/>
      <point x="352" y="464" type="line" smooth="yes"/>
      <point x="352" y="454"/>
      <point x="356" y="447"/>
      <point x="366" y="445" type="curve" smooth="yes"/>
      <point x="376" y="443"/>
      <point x="394" y="440"/>
      <point x="421" y="434" type="curve"/>
      <point x="312" y="170" type="line" smooth="yes"/>
      <point x="308" y="160"/>
      <point x="302" y="144"/>
      <point x="296" y="124" type="curve"/>
      <point x="292" y="140"/>
      <point x="289" y="156"/>
      <point x="283" y="170" type="curve" smooth="yes"/>
      <point x="170" y="434" type="line"/>
      <point x="202" y="440"/>
      <point x="220" y="444"/>
      <point x="226" y="446" type="curve"/>
      <point x="236" y="448"/>
      <point x="241" y="454"/>
      <point x="241" y="464" type="curve" smooth="yes"/>
      <point x="241" y="507" type="line"/>
      <point x="14" y="507" type="line"/>
      <point x="14" y="464" type="line" smooth="yes"/>
      <point x="14" y="454"/>
      <point x="19" y="448"/>
      <point x="29" y="446" type="curve"/>
      <point x="35" y="444"/>
      <point x="50" y="440"/>
      <point x="74" y="436" type="curve"/>
      <point x="252" y="30" type="line"/>
      <point x="160" y="-171" type="line"/>
      <point x="226" y="-171" type="line" smooth="yes"/>
      <point x="240" y="-171"/>
      <point x="252" y="-163"/>
      <point x="258" y="-149" type="curve" smooth="yes"/>
      <point x="509" y="435" type="line"/>
      <point x="511" y="435"/>
      <point x="520" y="437"/>
      <point x="534" y="440" type="curve" smooth="yes"/>
      <point x="548" y="443"/>
      <point x="558" y="446"/>
      <point x="561" y="446" type="curve"/>
      <point x="571" y="448"/>
      <point x="576" y="454"/>
      <point x="576" y="464" type="curve" smooth="yes"/>
      <point x="576" y="507" type="line"/>
    </contour>
    <contour>
      <point x="298" y="506" type="move" name="top"/>
    </contour>
    <contour>
      <point x="298" y="0" type="move" name="bottom"/>
    </contour>
  </outline>
</glyph>
<glyph name="z" format="1">
  <advance width="461"/>
  <unicode hex="007A"/>
  <note>
    z
  </note>
  <outline>
    <contour>
      <point x="100" y="506" type="line"/>
      <point x="49" y="506" type="line"/>
      <point x="49" y="363" type="line"/>
      <point x="84" y="363" type="line" smooth="yes"/>
      <point x="92" y="363"/>
      <point x="98" y="368"/>
      <point x="100" y="376" type="curve"/>
      <point x="100" y="380"/>
      <point x="102" y="399"/>
      <point x="105" y="436" type="curve"/>
      <point x="322" y="436" type="line"/>
      <point x="46" y="69" type="line" smooth="yes"/>
      <point x="38" y="58"/>
      <point x="34" y="47"/>
      <point x="34" y="37" type="curve" smooth="yes"/>
      <point x="34" y="0" type="line"/>
      <point x="420" y="0" type="line"/>
      <point x="420" y="148" type="line"/>
      <point x="385" y="148" type="line" smooth="yes"/>
      <point x="377" y="148"/>
      <point x="372" y="144"/>
      <point x="370" y="136" type="curve"/>
      <point x="370" y="132"/>
      <point x="367" y="110"/>
      <point x="364" y="70" type="curve"/>
      <point x="139" y="70" type="line"/>
      <point x="413" y="435" type="line" smooth="yes"/>
      <point x="421" y="445"/>
      <point x="426" y="457"/>
      <point x="426" y="469" type="curve" smooth="yes"/>
      <point x="426" y="507" type="line"/>
    </contour>
    <contour>
      <point x="231" y="506" type="move" name="top"/>
    </contour>
    <contour>
      <point x="231" y="0" type="move" name="bottom"/>
    </contour>
  </outline>
</glyph>
<glyph name="braceleft" format="1">
  <advance width="277"/>
  <unicode hex="007B"/>
  <note>
    braceleft
  </note>
  <outline>
    <contour>
      <point x="91" y="212" type="line"/>
      <point x="91" y="196"/>
      <point x="89" y="179"/>
      <point x="87" y="163" type="curve" smooth="yes"/>
      <point x="85" y="147"/>
      <point x="81" y="130"/>
      <point x="78" y="114" type="curve" smooth="yes"/>
      <point x="75" y="98"/>
      <point x="72" y="80"/>
      <point x="70" y="64" type="curve" smooth="yes"/>
      <point x="68" y="48"/>
      <point x="66" y="31"/>
      <point x="66" y="13" type="curve" smooth="yes"/>
      <point x="66" y="-10"/>
      <point x="69" y="-30"/>
      <point x="76" y="-50" type="curve" smooth="yes"/>
      <point x="83" y="-70"/>
      <point x="94" y="-86"/>
      <point x="108" y="-100" type="curve" smooth="yes"/>
      <point x="122" y="-114"/>
      <point x="140" y="-126"/>
      <point x="160" y="-134" type="curve" smooth="yes"/>
      <point x="180" y="-142"/>
      <point x="204" y="-146"/>
      <point x="232" y="-146" type="curve" smooth="yes"/>
      <point x="258" y="-146" type="line"/>
      <point x="258" y="-106" type="line" smooth="yes"/>
      <point x="258" y="-100"/>
      <point x="255" y="-94"/>
      <point x="251" y="-91" type="curve" smooth="yes"/>
      <point x="247" y="-88"/>
      <point x="242" y="-86"/>
      <point x="238" y="-86" type="curve" smooth="yes"/>
      <point x="228" y="-86" type="line" smooth="yes"/>
      <point x="202" y="-86"/>
      <point x="182" y="-78"/>
      <point x="167" y="-62" type="curve" smooth="yes"/>
      <point x="152" y="-46"/>
      <point x="144" y="-22"/>
      <point x="144" y="7" type="curve" smooth="yes"/>
      <point x="144" y="25"/>
      <point x="146" y="43"/>
      <point x="148" y="61" type="curve" smooth="yes"/>
      <point x="150" y="79"/>
      <point x="153" y="96"/>
      <point x="156" y="112" type="curve" smooth="yes"/>
      <point x="159" y="128"/>
      <point x="162" y="146"/>
      <point x="164" y="162" type="curve" smooth="yes"/>
      <point x="166" y="178"/>
      <point x="168" y="195"/>
      <point x="168" y="211" type="curve" smooth="yes"/>
      <point x="168" y="223"/>
      <point x="166" y="236"/>
      <point x="162" y="246" type="curve" smooth="yes"/>
      <point x="158" y="256"/>
      <point x="153" y="266"/>
      <point x="146" y="274" type="curve" smooth="yes"/>
      <point x="139" y="282"/>
      <point x="131" y="290"/>
      <point x="122" y="296" type="curve" smooth="yes"/>
      <point x="113" y="302"/>
      <point x="103" y="307"/>
      <point x="92" y="310" type="curve"/>
      <point x="103" y="313"/>
      <point x="113" y="317"/>
      <point x="122" y="323" type="curve" smooth="yes"/>
      <point x="131" y="329"/>
      <point x="139" y="337"/>
      <point x="146" y="345" type="curve" smooth="yes"/>
      <point x="153" y="353"/>
      <point x="158" y="363"/>
      <point x="162" y="374" type="curve" smooth="yes"/>
      <point x="166" y="385"/>
      <point x="167" y="397"/>
      <point x="167" y="409" type="curve" smooth="yes"/>
      <point x="167" y="425"/>
      <point x="166" y="442"/>
      <point x="164" y="458" type="curve" smooth="yes"/>
      <point x="162" y="474"/>
      <point x="159" y="492"/>
      <point x="156" y="508" type="curve" smooth="yes"/>
      <point x="153" y="524"/>
      <point x="150" y="541"/>
      <point x="148" y="559" type="curve" smooth="yes"/>
      <point x="146" y="577"/>
      <point x="144" y="595"/>
      <point x="144" y="613" type="curve" smooth="yes"/>
      <point x="144" y="641"/>
      <point x="151" y="664"/>
      <point x="166" y="681" type="curve" smooth="yes"/>
      <point x="181" y="698"/>
      <point x="201" y="706"/>
      <point x="227" y="706" type="curve" smooth="yes"/>
      <point x="237" y="706" type="line" smooth="yes"/>
      <point x="241" y="706"/>
      <point x="246" y="708"/>
      <point x="250" y="711" type="curve" smooth="yes"/>
      <point x="254" y="714"/>
      <point x="257" y="720"/>
      <point x="257" y="726" type="curve" smooth="yes"/>
      <point x="257" y="765" type="line"/>
      <point x="230" y="765" type="line" smooth="yes"/>
      <point x="202" y="765"/>
      <point x="178" y="762"/>
      <point x="158" y="754" type="curve" smooth="yes"/>
      <point x="138" y="746"/>
      <point x="121" y="735"/>
      <point x="107" y="721" type="curve" smooth="yes"/>
      <point x="93" y="707"/>
      <point x="83" y="691"/>
      <point x="76" y="671" type="curve" smooth="yes"/>
      <point x="69" y="651"/>
      <point x="65" y="631"/>
      <point x="65" y="608" type="curve" smooth="yes"/>
      <point x="65" y="590"/>
      <point x="67" y="572"/>
      <point x="69" y="556" type="curve" smooth="yes"/>
      <point x="71" y="540"/>
      <point x="75" y="523"/>
      <point x="78" y="507" type="curve" smooth="yes"/>
      <point x="81" y="491"/>
      <point x="84" y="474"/>
      <point x="86" y="458" type="curve" smooth="yes"/>
      <point x="88" y="442"/>
      <point x="90" y="424"/>
      <point x="90" y="408" type="curve" smooth="yes"/>
      <point x="90" y="386"/>
      <point x="84" y="370"/>
      <point x="72" y="356" type="curve" smooth="yes"/>
      <point x="60" y="342"/>
      <point x="44" y="336"/>
      <point x="22" y="336" type="curve"/>
      <point x="22" y="282" type="line"/>
      <point x="44" y="282"/>
      <point x="60" y="276"/>
      <point x="72" y="262" type="curve" smooth="yes"/>
      <point x="84" y="248"/>
      <point x="90" y="231"/>
      <point x="90" y="210" type="curve"/>
    </contour>
  </outline>
</glyph>
<glyph name="sterling" format="1">
  <advance width="581"/>
  <unicode hex="00A3"/>
  <note>
    sterling
  </note>
  <outline>
    <contour>
      <point x="26" y="336" type="line"/>
      <point x="26" y="307" type="line"/>
      <point x="124" y="307" type="line"/>
      <point x="124" y="162" type="line" smooth="yes"/>
      <point x="124" y="146"/>
      <point x="121" y="134"/>
      <point x="116" y="122" type="curve" smooth="yes"/>
      <point x="111" y="110"/>
      <point x="105" y="100"/>
      <point x="97" y="92" type="curve" smooth="yes"/>
      <point x="89" y="84"/>
      <point x="80" y="77"/>
      <point x="70" y="71" type="curve" smooth="yes"/>
      <point x="60" y="65"/>
      <point x="48" y="62"/>
      <point x="36" y="58" type="curve"/>
      <point x="36" y="0" type="line"/>
      <point x="518" y="0" type="line" smooth="yes"/>
      <point x="524" y="0"/>
      <point x="530" y="2"/>
      <point x="534" y="4" type="curve" smooth="yes"/>
      <point x="538" y="6"/>
      <point x="542" y="9"/>
      <point x="546" y="13" type="curve" smooth="yes"/>
      <point x="550" y="17"/>
      <point x="552" y="22"/>
      <point x="554" y="26" type="curve" smooth="yes"/>
      <point x="556" y="30"/>
      <point x="558" y="35"/>
      <point x="558" y="39" type="curve" smooth="yes"/>
      <point x="558" y="77" type="line"/>
      <point x="220" y="77" type="line" smooth="yes"/>
      <point x="210" y="77"/>
      <point x="200" y="77"/>
      <point x="190" y="76" type="curve" smooth="yes"/>
      <point x="180" y="75"/>
      <point x="172" y="74"/>
      <point x="162" y="72" type="curve"/>
      <point x="178" y="87"/>
      <point x="190" y="103"/>
      <point x="200" y="121" type="curve" smooth="yes"/>
      <point x="210" y="139"/>
      <point x="214" y="161"/>
      <point x="214" y="186" type="curve" smooth="yes"/>
      <point x="214" y="307" type="line"/>
      <point x="409" y="307" type="line" smooth="yes"/>
      <point x="417" y="307"/>
      <point x="423" y="309"/>
      <point x="428" y="314" type="curve" smooth="yes"/>
      <point x="433" y="319"/>
      <point x="435" y="325"/>
      <point x="435" y="331" type="curve" smooth="yes"/>
      <point x="435" y="367" type="line"/>
      <point x="214" y="367" type="line"/>
      <point x="214" y="498" type="line" smooth="yes"/>
      <point x="214" y="520"/>
      <point x="216" y="542"/>
      <point x="222" y="560" type="curve" smooth="yes"/>
      <point x="228" y="578"/>
      <point x="236" y="594"/>
      <point x="246" y="607" type="curve" smooth="yes"/>
      <point x="256" y="620"/>
      <point x="270" y="630"/>
      <point x="286" y="637" type="curve" smooth="yes"/>
      <point x="302" y="644"/>
      <point x="321" y="648"/>
      <point x="342" y="648" type="curve" smooth="yes"/>
      <point x="357" y="648"/>
      <point x="370" y="646"/>
      <point x="381" y="642" type="curve" smooth="yes"/>
      <point x="392" y="638"/>
      <point x="402" y="634"/>
      <point x="410" y="628" type="curve" smooth="yes"/>
      <point x="418" y="622"/>
      <point x="426" y="615"/>
      <point x="433" y="607" type="curve" smooth="yes"/>
      <point x="440" y="599"/>
      <point x="447" y="590"/>
      <point x="453" y="582" type="curve"/>
      <point x="457" y="578"/>
      <point x="460" y="574"/>
      <point x="464" y="572" type="curve" smooth="yes"/>
      <point x="468" y="570"/>
      <point x="474" y="570"/>
      <point x="478" y="570" type="curve" smooth="yes"/>
      <point x="482" y="570"/>
      <point x="484" y="570"/>
      <point x="488" y="571" type="curve" smooth="yes"/>
      <point x="492" y="572"/>
      <point x="494" y="574"/>
      <point x="498" y="576" type="curve"/>
      <point x="534" y="598" type="line"/>
      <point x="526" y="616"/>
      <point x="517" y="632"/>
      <point x="505" y="647" type="curve" smooth="yes"/>
      <point x="493" y="662"/>
      <point x="480" y="674"/>
      <point x="464" y="686" type="curve" smooth="yes"/>
      <point x="448" y="698"/>
      <point x="431" y="708"/>
      <point x="411" y="714" type="curve" smooth="yes"/>
      <point x="391" y="720"/>
      <point x="368" y="723"/>
      <point x="342" y="723" type="curve" smooth="yes"/>
      <point x="306" y="723"/>
      <point x="274" y="717"/>
      <point x="246" y="705" type="curve" smooth="yes"/>
      <point x="218" y="693"/>
      <point x="195" y="676"/>
      <point x="177" y="656" type="curve" smooth="yes"/>
      <point x="159" y="636"/>
      <point x="145" y="612"/>
      <point x="136" y="584" type="curve" smooth="yes"/>
      <point x="127" y="556"/>
      <point x="122" y="528"/>
      <point x="122" y="496" type="curve" smooth="yes"/>
      <point x="122" y="366" type="line"/>
      <point x="56" y="366" type="line" smooth="yes"/>
      <point x="46" y="366"/>
      <point x="39" y="362"/>
      <point x="33" y="356" type="curve" smooth="yes"/>
      <point x="27" y="350"/>
      <point x="25" y="342"/>
      <point x="25" y="334" type="curve"/>
    </contour>
  </outline>
</glyph>
<glyph name="brokenbar" format="1">
  <advance width="175"/>
  <unicode hex="00A6"/>
  <note>
    brokenbar
  </note>
  <outline>
    <contour>
      <point x="54" y="766" type="line"/>
      <point x="54" y="370" type="line"/>
      <point x="122" y="370" type="line"/>
      <point x="122" y="766" type="line"/>
    </contour>
    <contour>
      <point x="54" y="226" type="line"/>
      <point x="54" y="-172" type="line"/>
      <point x="122" y="-172" type="line"/>
      <point x="122" y="226" type="line"/>
    </contour>
  </outline>
</glyph>
<glyph name="section" format="1">
  <advance width="451"/>
  <unicode hex="00A7"/>
  <note>
    section
  </note>
  <outline>
    <contour>
      <point x="380" y="632" type="line"/>
      <point x="400" y="665" type="line"/>
      <point x="380" y="683"/>
      <point x="357" y="698"/>
      <point x="331" y="708" type="curve" smooth="yes"/>
      <point x="305" y="718"/>
      <point x="275" y="724"/>
      <point x="241" y="724" type="curve" smooth="yes"/>
      <point x="213" y="724"/>
      <point x="186" y="720"/>
      <point x="164" y="712" type="curve" smooth="yes"/>
      <point x="142" y="704"/>
      <point x="124" y="694"/>
      <point x="108" y="680" type="curve" smooth="yes"/>
      <point x="92" y="666"/>
      <point x="80" y="651"/>
      <point x="72" y="633" type="curve" smooth="yes"/>
      <point x="64" y="615"/>
      <point x="60" y="597"/>
      <point x="60" y="577" type="curve" smooth="yes"/>
      <point x="60" y="552"/>
      <point x="66" y="531"/>
      <point x="76" y="513" type="curve" smooth="yes"/>
      <point x="86" y="495"/>
      <point x="100" y="480"/>
      <point x="116" y="468" type="curve"/>
      <point x="85" y="456"/>
      <point x="62" y="440"/>
      <point x="48" y="419" type="curve" smooth="yes"/>
      <point x="34" y="398"/>
      <point x="27" y="374"/>
      <point x="27" y="348" type="curve" smooth="yes"/>
      <point x="27" y="326"/>
      <point x="32" y="309"/>
      <point x="40" y="293" type="curve" smooth="yes"/>
      <point x="48" y="277"/>
      <point x="58" y="264"/>
      <point x="72" y="252" type="curve" smooth="yes"/>
      <point x="86" y="240"/>
      <point x="101" y="230"/>
      <point x="119" y="222" type="curve" smooth="yes"/>
      <point x="173" y="198" type="line" smooth="yes"/>
      <point x="191" y="190"/>
      <point x="209" y="184"/>
      <point x="227" y="177" type="curve" smooth="yes"/>
      <point x="245" y="170"/>
      <point x="260" y="162"/>
      <point x="274" y="154" type="curve" smooth="yes"/>
      <point x="288" y="146"/>
      <point x="298" y="135"/>
      <point x="306" y="124" type="curve" smooth="yes"/>
      <point x="314" y="113"/>
      <point x="319" y="100"/>
      <point x="319" y="85" type="curve" smooth="yes"/>
      <point x="319" y="73"/>
      <point x="316" y="60"/>
      <point x="312" y="50" type="curve" smooth="yes"/>
      <point x="308" y="40"/>
      <point x="301" y="32"/>
      <point x="292" y="24" type="curve" smooth="yes"/>
      <point x="283" y="16"/>
      <point x="271" y="10"/>
      <point x="258" y="6" type="curve" smooth="yes"/>
      <point x="245" y="2"/>
      <point x="230" y="0"/>
      <point x="214" y="0" type="curve" smooth="yes"/>
      <point x="193" y="0"/>
      <point x="176" y="3"/>
      <point x="162" y="7" type="curve" smooth="yes"/>
      <point x="148" y="11"/>
      <point x="136" y="16"/>
      <point x="126" y="22" type="curve" smooth="yes"/>
      <point x="116" y="28"/>
      <point x="108" y="34"/>
      <point x="102" y="38" type="curve" smooth="yes"/>
      <point x="96" y="42"/>
      <point x="89" y="45"/>
      <point x="83" y="45" type="curve" smooth="yes"/>
      <point x="77" y="45"/>
      <point x="72" y="44"/>
      <point x="68" y="42" type="curve" smooth="yes"/>
      <point x="64" y="40"/>
      <point x="60" y="35"/>
      <point x="58" y="31" type="curve"/>
      <point x="38" y="-3" type="line"/>
      <point x="58" y="-21"/>
      <point x="83" y="-36"/>
      <point x="111" y="-48" type="curve" smooth="yes"/>
      <point x="139" y="-60"/>
      <point x="171" y="-65"/>
      <point x="207" y="-65" type="curve" smooth="yes"/>
      <point x="237" y="-65"/>
      <point x="264" y="-60"/>
      <point x="288" y="-52" type="curve" smooth="yes"/>
      <point x="312" y="-44"/>
      <point x="332" y="-32"/>
      <point x="348" y="-18" type="curve" smooth="yes"/>
      <point x="364" y="-4"/>
      <point x="377" y="14"/>
      <point x="385" y="34" type="curve" smooth="yes"/>
      <point x="393" y="54"/>
      <point x="398" y="74"/>
      <point x="398" y="98" type="curve" smooth="yes"/>
      <point x="398" y="121"/>
      <point x="392" y="142"/>
      <point x="382" y="158" type="curve" smooth="yes"/>
      <point x="372" y="174"/>
      <point x="358" y="189"/>
      <point x="342" y="201" type="curve"/>
      <point x="370" y="213"/>
      <point x="390" y="231"/>
      <point x="403" y="252" type="curve" smooth="yes"/>
      <point x="416" y="273"/>
      <point x="422" y="297"/>
      <point x="422" y="324" type="curve" smooth="yes"/>
      <point x="422" y="344"/>
      <point x="418" y="362"/>
      <point x="410" y="378" type="curve" smooth="yes"/>
      <point x="402" y="394"/>
      <point x="392" y="406"/>
      <point x="379" y="418" type="curve" smooth="yes"/>
      <point x="366" y="430"/>
      <point x="351" y="441"/>
      <point x="334" y="450" type="curve" smooth="yes"/>
      <point x="317" y="459"/>
      <point x="300" y="467"/>
      <point x="282" y="475" type="curve" smooth="yes"/>
      <point x="264" y="483"/>
      <point x="247" y="490"/>
      <point x="230" y="497" type="curve" smooth="yes"/>
      <point x="213" y="504"/>
      <point x="198" y="512"/>
      <point x="185" y="520" type="curve" smooth="yes"/>
      <point x="172" y="528"/>
      <point x="162" y="536"/>
      <point x="154" y="546" type="curve" smooth="yes"/>
      <point x="146" y="556"/>
      <point x="142" y="566"/>
      <point x="142" y="578" type="curve" smooth="yes"/>
      <point x="142" y="588"/>
      <point x="144" y="598"/>
      <point x="148" y="608" type="curve" smooth="yes"/>
      <point x="152" y="618"/>
      <point x="159" y="626"/>
      <point x="168" y="633" type="curve" smooth="yes"/>
      <point x="177" y="640"/>
      <point x="189" y="646"/>
      <point x="202" y="650" type="curve" smooth="yes"/>
      <point x="215" y="654"/>
      <point x="229" y="656"/>
      <point x="245" y="656" type="curve" smooth="yes"/>
      <point x="263" y="656"/>
      <point x="278" y="654"/>
      <point x="290" y="650" type="curve" smooth="yes"/>
      <point x="302" y="646"/>
      <point x="313" y="641"/>
      <point x="322" y="637" type="curve" smooth="yes"/>
      <point x="331" y="633"/>
      <point x="340" y="629"/>
      <point x="346" y="625" type="curve" smooth="yes"/>
      <point x="352" y="621"/>
      <point x="357" y="620"/>
      <point x="362" y="620" type="curve" smooth="yes"/>
      <point x="370" y="620"/>
      <point x="377" y="622"/>
      <point x="381" y="630" type="curve"/>
    </contour>
    <contour>
      <point x="108" y="361" type="line" smooth="yes"/>
      <point x="108" y="377"/>
      <point x="113" y="391"/>
      <point x="122" y="403" type="curve" smooth="yes"/>
      <point x="131" y="415"/>
      <point x="146" y="426"/>
      <point x="168" y="436" type="curve"/>
      <point x="182" y="430"/>
      <point x="196" y="423"/>
      <point x="210" y="417" type="curve" smooth="yes"/>
      <point x="224" y="411"/>
      <point x="237" y="405"/>
      <point x="250" y="399" type="curve" smooth="yes"/>
      <point x="263" y="393"/>
      <point x="275" y="386"/>
      <point x="287" y="380" type="curve" smooth="yes"/>
      <point x="299" y="374"/>
      <point x="309" y="368"/>
      <point x="317" y="360" type="curve" smooth="yes"/>
      <point x="325" y="352"/>
      <point x="333" y="344"/>
      <point x="338" y="334" type="curve" smooth="yes"/>
      <point x="343" y="324"/>
      <point x="345" y="314"/>
      <point x="345" y="302" type="curve" smooth="yes"/>
      <point x="345" y="286"/>
      <point x="341" y="272"/>
      <point x="333" y="260" type="curve" smooth="yes"/>
      <point x="325" y="248"/>
      <point x="312" y="236"/>
      <point x="294" y="228" type="curve"/>
      <point x="274" y="238"/>
      <point x="252" y="249"/>
      <point x="230" y="258" type="curve" smooth="yes"/>
      <point x="208" y="267"/>
      <point x="188" y="275"/>
      <point x="170" y="285" type="curve" smooth="yes"/>
      <point x="152" y="295"/>
      <point x="138" y="305"/>
      <point x="126" y="317" type="curve" smooth="yes"/>
      <point x="114" y="329"/>
      <point x="108" y="343"/>
      <point x="108" y="360" type="curve" smooth="yes"/>
    </contour>
  </outline>
</glyph>
<glyph name="macron" format="1">
  <advance width="377"/>
  <unicode hex="00AF"/>
  <note>
    macron
  </note>
  <outline>
    <contour>
      <point x="46" y="674" type="line"/>
      <point x="46" y="616" type="line"/>
      <point x="333" y="616" type="line"/>
      <point x="333" y="674" type="line"/>
    </contour>
  </outline>
</glyph>
<glyph name="plusminus" format="1">
  <advance width="545"/>
  <unicode hex="00B1"/>
  <note>
    plusminus
  </note>
  <outline>
    <contour>
      <point x="310" y="601" type="line"/>
      <point x="237" y="601" type="line"/>
      <point x="237" y="413" type="line"/>
      <point x="34" y="413" type="line"/>
      <point x="34" y="345" type="line"/>
      <point x="237" y="345" type="line"/>
      <point x="237" y="161" type="line"/>
      <point x="310" y="161" type="line"/>
      <point x="310" y="345" type="line"/>
      <point x="514" y="345" type="line"/>
      <point x="514" y="413" type="line"/>
      <point x="310" y="413" type="line"/>
    </contour>
    <contour>
      <point x="34" y="108" type="line"/>
      <point x="34" y="40" type="line"/>
      <point x="514" y="40" type="line"/>
      <point x="514" y="108" type="line"/>
    </contour>
  </outline>
</glyph>
<glyph name="twosuperior" format="1">
  <advance width="326"/>
  <unicode hex="00B2"/>
  <note>
    twosuperior
  </note>
  <outline>
    <contour>
      <point x="124" y="502" type="line"/>
      <point x="206" y="585" type="line" smooth="yes"/>
      <point x="216" y="595"/>
      <point x="225" y="604"/>
      <point x="234" y="614" type="curve" smooth="yes"/>
      <point x="266" y="648"/>
      <point x="281" y="681"/>
      <point x="281" y="714" type="curve" smooth="yes"/>
      <point x="281" y="746"/>
      <point x="271" y="771"/>
      <point x="250" y="790" type="curve" smooth="yes"/>
      <point x="229" y="809"/>
      <point x="200" y="818"/>
      <point x="166" y="818" type="curve" smooth="yes"/>
      <point x="132" y="818"/>
      <point x="103" y="810"/>
      <point x="80" y="792" type="curve" smooth="yes"/>
      <point x="57" y="774"/>
      <point x="43" y="748"/>
      <point x="38" y="712" type="curve"/>
      <point x="74" y="706" type="line"/>
      <point x="82" y="706" type="line" smooth="yes"/>
      <point x="91" y="706"/>
      <point x="98" y="710"/>
      <point x="104" y="720" type="curve"/>
      <point x="114" y="750"/>
      <point x="134" y="766"/>
      <point x="163" y="766" type="curve" smooth="yes"/>
      <point x="178" y="766"/>
      <point x="190" y="761"/>
      <point x="200" y="752" type="curve" smooth="yes"/>
      <point x="210" y="743"/>
      <point x="216" y="730"/>
      <point x="216" y="713" type="curve" smooth="yes"/>
      <point x="216" y="683"/>
      <point x="196" y="648"/>
      <point x="156" y="608" type="curve" smooth="yes"/>
      <point x="45" y="498" type="line" smooth="yes"/>
      <point x="37" y="490"/>
      <point x="34" y="482"/>
      <point x="34" y="472" type="curve" smooth="yes"/>
      <point x="34" y="450" type="line"/>
      <point x="290" y="450" type="line"/>
      <point x="290" y="547" type="line"/>
      <point x="262" y="547" type="line" smooth="yes"/>
      <point x="256" y="547"/>
      <point x="252" y="543"/>
      <point x="250" y="537" type="curve"/>
      <point x="250" y="535"/>
      <point x="249" y="526"/>
      <point x="247" y="510" type="curve"/>
      <point x="170" y="510" type="line" smooth="yes"/>
      <point x="158" y="510"/>
      <point x="142" y="507"/>
      <point x="124" y="503" type="curve"/>
    </contour>
  </outline>
</glyph>
<glyph name="cedilla" format="1">
  <advance width="264"/>
  <unicode hex="00B8"/>
  <note>
    cedilla
  </note>
  <outline>
    <contour>
      <point x="60" y="-124" type="line"/>
      <point x="54" y="-124"/>
      <point x="51" y="-126"/>
      <point x="49" y="-132" type="curve" smooth="yes"/>
      <point x="40" y="-160" type="line"/>
      <point x="50" y="-164"/>
      <point x="63" y="-169"/>
      <point x="75" y="-172" type="curve" smooth="yes"/>
      <point x="87" y="-175"/>
      <point x="100" y="-176"/>
      <point x="114" y="-176" type="curve" smooth="yes"/>
      <point x="130" y="-176"/>
      <point x="144" y="-175"/>
      <point x="158" y="-172" type="curve" smooth="yes"/>
      <point x="172" y="-169"/>
      <point x="182" y="-164"/>
      <point x="192" y="-158" type="curve" smooth="yes"/>
      <point x="202" y="-152"/>
      <point x="209" y="-144"/>
      <point x="215" y="-136" type="curve" smooth="yes"/>
      <point x="221" y="-128"/>
      <point x="223" y="-118"/>
      <point x="223" y="-108" type="curve" smooth="yes"/>
      <point x="223" y="-90"/>
      <point x="216" y="-76"/>
      <point x="202" y="-64" type="curve" smooth="yes"/>
      <point x="188" y="-52"/>
      <point x="167" y="-43"/>
      <point x="137" y="-37" type="curve"/>
      <point x="149" y="3" type="line"/>
      <point x="93" y="3" type="line"/>
      <point x="72" y="-68" type="line"/>
      <point x="84" y="-70"/>
      <point x="96" y="-71"/>
      <point x="106" y="-73" type="curve" smooth="yes"/>
      <point x="116" y="-75"/>
      <point x="124" y="-77"/>
      <point x="131" y="-80" type="curve" smooth="yes"/>
      <point x="138" y="-83"/>
      <point x="142" y="-88"/>
      <point x="146" y="-92" type="curve" smooth="yes"/>
      <point x="150" y="-96"/>
      <point x="152" y="-102"/>
      <point x="152" y="-108" type="curve" smooth="yes"/>
      <point x="152" y="-116"/>
      <point x="149" y="-123"/>
      <point x="142" y="-129" type="curve" smooth="yes"/>
      <point x="135" y="-135"/>
      <point x="124" y="-138"/>
      <point x="110" y="-138" type="curve" smooth="yes"/>
      <point x="103" y="-138"/>
      <point x="98" y="-137"/>
      <point x="92" y="-136" type="curve" smooth="yes"/>
      <point x="86" y="-135"/>
      <point x="82" y="-134"/>
      <point x="78" y="-132" type="curve" smooth="yes"/>
      <point x="74" y="-130"/>
      <point x="71" y="-129"/>
      <point x="69" y="-128" type="curve" smooth="yes"/>
      <point x="67" y="-127"/>
      <point x="64" y="-126"/>
      <point x="62" y="-126" type="curve"/>
    </contour>
  </outline>
</glyph>
<glyph name="onehalf" format="1">
  <advance width="685"/>
  <unicode hex="00BD"/>
  <note>
    onehalf
  </note>
  <outline>
    <contour>
      <point x="490" y="52" type="line"/>
      <point x="572" y="135" type="line" smooth="yes"/>
      <point x="582" y="145"/>
      <point x="591" y="154"/>
      <point x="600" y="164" type="curve" smooth="yes"/>
      <point x="632" y="198"/>
      <point x="647" y="231"/>
      <point x="647" y="264" type="curve" smooth="yes"/>
      <point x="647" y="296"/>
      <point x="637" y="321"/>
      <point x="616" y="340" type="curve" smooth="yes"/>
      <point x="595" y="359"/>
      <point x="566" y="368"/>
      <point x="532" y="368" type="curve" smooth="yes"/>
      <point x="498" y="368"/>
      <point x="469" y="360"/>
      <point x="446" y="342" type="curve" smooth="yes"/>
      <point x="423" y="324"/>
      <point x="409" y="298"/>
      <point x="404" y="262" type="curve"/>
      <point x="440" y="256" type="line"/>
      <point x="448" y="256" type="line" smooth="yes"/>
      <point x="457" y="256"/>
      <point x="464" y="260"/>
      <point x="470" y="270" type="curve"/>
      <point x="480" y="300"/>
      <point x="500" y="316"/>
      <point x="528" y="316" type="curve" smooth="yes"/>
      <point x="544" y="316"/>
      <point x="556" y="311"/>
      <point x="566" y="302" type="curve" smooth="yes"/>
      <point x="576" y="293"/>
      <point x="582" y="280"/>
      <point x="582" y="263" type="curve" smooth="yes"/>
      <point x="582" y="233"/>
      <point x="562" y="198"/>
      <point x="522" y="158" type="curve" smooth="yes"/>
      <point x="411" y="48" type="line" smooth="yes"/>
      <point x="403" y="40"/>
      <point x="400" y="32"/>
      <point x="400" y="22" type="curve" smooth="yes"/>
      <point x="400" y="0" type="line"/>
      <point x="656" y="0" type="line"/>
      <point x="656" y="97" type="line"/>
      <point x="628" y="97" type="line" smooth="yes"/>
      <point x="622" y="97"/>
      <point x="618" y="93"/>
      <point x="616" y="87" type="curve"/>
      <point x="616" y="85"/>
      <point x="615" y="76"/>
      <point x="613" y="60" type="curve"/>
      <point x="536" y="60" type="line" smooth="yes"/>
      <point x="524" y="60"/>
      <point x="508" y="57"/>
      <point x="490" y="53" type="curve"/>
    </contour>
    <contour>
      <point x="46" y="394" type="line"/>
      <point x="46" y="352" type="line"/>
      <point x="250" y="352" type="line"/>
      <point x="250" y="394" type="line"/>
      <point x="184" y="394" type="line"/>
      <point x="184" y="718" type="line"/>
      <point x="130" y="718" type="line"/>
      <point x="20" y="622" type="line"/>
      <point x="39" y="594" type="line"/>
      <point x="42" y="590"/>
      <point x="46" y="588"/>
      <point x="52" y="588" type="curve" smooth="yes"/>
      <point x="58" y="588"/>
      <point x="64" y="589"/>
      <point x="68" y="592" type="curve"/>
      <point x="121" y="636" type="line"/>
      <point x="119" y="614" type="line"/>
      <point x="119" y="394" type="line"/>
    </contour>
    <contour>
      <point x="574" y="717" type="line"/>
      <point x="536" y="717" type="line" smooth="yes"/>
      <point x="516" y="717"/>
      <point x="500" y="706"/>
      <point x="488" y="686" type="curve" smooth="yes"/>
      <point x="79" y="0" type="line"/>
      <point x="117" y="0" type="line" smooth="yes"/>
      <point x="137" y="0"/>
      <point x="153" y="9"/>
      <point x="163" y="27" type="curve" smooth="yes"/>
    </contour>
  </outline>
</glyph>
<glyph name="threequarters" format="1">
  <advance width="712"/>
  <unicode hex="00BE"/>
  <note>
    threequarters
  </note>
  <outline>
    <contour>
      <point x="638" y="134" type="line"/>
      <point x="638" y="364" type="line"/>
      <point x="576" y="364" type="line"/>
      <point x="405" y="130" type="line"/>
      <point x="410" y="102" type="line"/>
      <point x="410" y="98"/>
      <point x="412" y="94"/>
      <point x="416" y="92" type="curve" smooth="yes"/>
      <point x="420" y="90"/>
      <point x="424" y="88"/>
      <point x="430" y="88" type="curve" smooth="yes"/>
      <point x="583" y="88" type="line"/>
      <point x="583" y="0" type="line"/>
      <point x="638" y="0" type="line"/>
      <point x="638" y="88" type="line"/>
      <point x="678" y="88" type="line" smooth="yes"/>
      <point x="682" y="88"/>
      <point x="687" y="90"/>
      <point x="689" y="92" type="curve" smooth="yes"/>
      <point x="691" y="94"/>
      <point x="692" y="96"/>
      <point x="692" y="100" type="curve" smooth="yes"/>
      <point x="692" y="133" type="line"/>
    </contour>
    <contour>
      <point x="159" y="720" type="line"/>
      <point x="143" y="720"/>
      <point x="128" y="716"/>
      <point x="114" y="712" type="curve" smooth="yes"/>
      <point x="100" y="708"/>
      <point x="87" y="701"/>
      <point x="76" y="692" type="curve" smooth="yes"/>
      <point x="65" y="683"/>
      <point x="56" y="673"/>
      <point x="48" y="660" type="curve" smooth="yes"/>
      <point x="40" y="647"/>
      <point x="36" y="632"/>
      <point x="34" y="614" type="curve"/>
      <point x="67" y="608" type="line"/>
      <point x="69" y="608"/>
      <point x="70" y="606"/>
      <point x="72" y="606" type="curve" smooth="yes"/>
      <point x="76" y="606" type="line" smooth="yes"/>
      <point x="81" y="606"/>
      <point x="85" y="608"/>
      <point x="88" y="610" type="curve" smooth="yes"/>
      <point x="91" y="612"/>
      <point x="94" y="616"/>
      <point x="96" y="622" type="curve"/>
      <point x="100" y="636"/>
      <point x="106" y="646"/>
      <point x="116" y="654" type="curve" smooth="yes"/>
      <point x="126" y="662"/>
      <point x="138" y="666"/>
      <point x="154" y="666" type="curve" smooth="yes"/>
      <point x="170" y="666"/>
      <point x="182" y="661"/>
      <point x="192" y="653" type="curve" smooth="yes"/>
      <point x="202" y="645"/>
      <point x="207" y="632"/>
      <point x="207" y="616" type="curve" smooth="yes"/>
      <point x="207" y="598"/>
      <point x="201" y="584"/>
      <point x="189" y="574" type="curve" smooth="yes"/>
      <point x="177" y="564"/>
      <point x="157" y="559"/>
      <point x="128" y="559" type="curve"/>
      <point x="128" y="516" type="line"/>
      <point x="144" y="516"/>
      <point x="156" y="514"/>
      <point x="167" y="512" type="curve" smooth="yes"/>
      <point x="178" y="510"/>
      <point x="187" y="506"/>
      <point x="193" y="502" type="curve" smooth="yes"/>
      <point x="199" y="498"/>
      <point x="204" y="491"/>
      <point x="207" y="484" type="curve" smooth="yes"/>
      <point x="210" y="477"/>
      <point x="212" y="468"/>
      <point x="212" y="458" type="curve" smooth="yes"/>
      <point x="212" y="451"/>
      <point x="210" y="444"/>
      <point x="208" y="438" type="curve" smooth="yes"/>
      <point x="206" y="432"/>
      <point x="202" y="425"/>
      <point x="196" y="420" type="curve" smooth="yes"/>
      <point x="190" y="415"/>
      <point x="184" y="412"/>
      <point x="176" y="408" type="curve" smooth="yes"/>
      <point x="168" y="404"/>
      <point x="158" y="402"/>
      <point x="148" y="402" type="curve" smooth="yes"/>
      <point x="138" y="402"/>
      <point x="129" y="404"/>
      <point x="122" y="407" type="curve" smooth="yes"/>
      <point x="115" y="410"/>
      <point x="109" y="414"/>
      <point x="104" y="418" type="curve" smooth="yes"/>
      <point x="99" y="422"/>
      <point x="95" y="428"/>
      <point x="92" y="434" type="curve" smooth="yes"/>
      <point x="89" y="440"/>
      <point x="86" y="444"/>
      <point x="84" y="448" type="curve" smooth="yes"/>
      <point x="80" y="456"/>
      <point x="74" y="460"/>
      <point x="64" y="460" type="curve" smooth="yes"/>
      <point x="60" y="460"/>
      <point x="55" y="459"/>
      <point x="50" y="457" type="curve" smooth="yes"/>
      <point x="22" y="445" type="line"/>
      <point x="27" y="429"/>
      <point x="33" y="416"/>
      <point x="40" y="404" type="curve" smooth="yes"/>
      <point x="47" y="392"/>
      <point x="56" y="382"/>
      <point x="66" y="374" type="curve" smooth="yes"/>
      <point x="76" y="366"/>
      <point x="88" y="360"/>
      <point x="102" y="356" type="curve" smooth="yes"/>
      <point x="116" y="352"/>
      <point x="133" y="350"/>
      <point x="152" y="350" type="curve" smooth="yes"/>
      <point x="168" y="350"/>
      <point x="183" y="352"/>
      <point x="198" y="357" type="curve" smooth="yes"/>
      <point x="213" y="362"/>
      <point x="226" y="368"/>
      <point x="238" y="378" type="curve" smooth="yes"/>
      <point x="250" y="388"/>
      <point x="259" y="400"/>
      <point x="266" y="414" type="curve" smooth="yes"/>
      <point x="273" y="428"/>
      <point x="276" y="444"/>
      <point x="276" y="462" type="curve" smooth="yes"/>
      <point x="276" y="482"/>
      <point x="270" y="499"/>
      <point x="258" y="512" type="curve" smooth="yes"/>
      <point x="246" y="525"/>
      <point x="230" y="536"/>
      <point x="208" y="542" type="curve"/>
      <point x="248" y="557"/>
      <point x="268" y="586"/>
      <point x="268" y="628" type="curve" smooth="yes"/>
      <point x="268" y="642"/>
      <point x="266" y="654"/>
      <point x="260" y="666" type="curve" smooth="yes"/>
      <point x="254" y="678"/>
      <point x="246" y="688"/>
      <point x="236" y="696" type="curve" smooth="yes"/>
      <point x="226" y="704"/>
      <point x="215" y="711"/>
      <point x="201" y="716" type="curve" smooth="yes"/>
      <point x="187" y="721"/>
      <point x="172" y="723"/>
      <point x="155" y="723" type="curve"/>
    </contour>
    <contour>
      <point x="580" y="257" type="line"/>
      <point x="580" y="136" type="line"/>
      <point x="462" y="136" type="line"/>
      <point x="582" y="300" type="line"/>
      <point x="581" y="292"/>
      <point x="580" y="286"/>
      <point x="580" y="278" type="curve" smooth="yes"/>
      <point x="580" y="256" type="line"/>
    </contour>
    <contour>
      <point x="617" y="719" type="line"/>
      <point x="578" y="719" type="line" smooth="yes"/>
      <point x="568" y="719"/>
      <point x="560" y="717"/>
      <point x="552" y="711" type="curve" smooth="yes"/>
      <point x="544" y="705"/>
      <point x="537" y="698"/>
      <point x="531" y="688" type="curve" smooth="yes"/>
      <point x="122" y="2" type="line"/>
      <point x="160" y="2" type="line" smooth="yes"/>
      <point x="170" y="2"/>
      <point x="178" y="4"/>
      <point x="186" y="8" type="curve" smooth="yes"/>
      <point x="194" y="12"/>
      <point x="200" y="19"/>
      <point x="206" y="29" type="curve" smooth="yes"/>
    </contour>
  </outline>
</glyph>
<glyph name="questiondown" format="1">
  <advance width="414"/>
  <unicode hex="00BF"/>
  <note>
    questiondown
  </note>
  <outline>
    <contour>
      <point x="392" y="-106" type="line"/>
      <point x="368" y="-68" type="line"/>
      <point x="366" y="-64"/>
      <point x="363" y="-62"/>
      <point x="360" y="-60" type="curve" smooth="yes"/>
      <point x="357" y="-58"/>
      <point x="352" y="-57"/>
      <point x="348" y="-57" type="curve" smooth="yes"/>
      <point x="344" y="-57"/>
      <point x="339" y="-59"/>
      <point x="333" y="-64" type="curve" smooth="yes"/>
      <point x="327" y="-69"/>
      <point x="318" y="-75"/>
      <point x="308" y="-81" type="curve" smooth="yes"/>
      <point x="298" y="-87"/>
      <point x="286" y="-93"/>
      <point x="272" y="-98" type="curve" smooth="yes"/>
      <point x="258" y="-103"/>
      <point x="239" y="-105"/>
      <point x="219" y="-105" type="curve" smooth="yes"/>
      <point x="204" y="-105"/>
      <point x="190" y="-102"/>
      <point x="177" y="-98" type="curve" smooth="yes"/>
      <point x="164" y="-94"/>
      <point x="153" y="-88"/>
      <point x="143" y="-80" type="curve" smooth="yes"/>
      <point x="133" y="-72"/>
      <point x="126" y="-62"/>
      <point x="120" y="-50" type="curve" smooth="yes"/>
      <point x="114" y="-38"/>
      <point x="112" y="-26"/>
      <point x="112" y="-12" type="curve" smooth="yes"/>
      <point x="112" y="8"/>
      <point x="115" y="24"/>
      <point x="123" y="38" type="curve" smooth="yes"/>
      <point x="131" y="52"/>
      <point x="140" y="63"/>
      <point x="152" y="73" type="curve" smooth="yes"/>
      <point x="164" y="83"/>
      <point x="175" y="92"/>
      <point x="188" y="100" type="curve" smooth="yes"/>
      <point x="201" y="108"/>
      <point x="214" y="116"/>
      <point x="226" y="124" type="curve" smooth="yes"/>
      <point x="238" y="132"/>
      <point x="246" y="143"/>
      <point x="254" y="153" type="curve" smooth="yes"/>
      <point x="262" y="163"/>
      <point x="265" y="176"/>
      <point x="265" y="190" type="curve" smooth="yes"/>
      <point x="265" y="196" type="line"/>
      <point x="259" y="280" type="line"/>
      <point x="198" y="280" type="line"/>
      <point x="189" y="203" type="line"/>
      <point x="187" y="192"/>
      <point x="182" y="182"/>
      <point x="174" y="174" type="curve" smooth="yes"/>
      <point x="166" y="166"/>
      <point x="156" y="158"/>
      <point x="144" y="150" type="curve" smooth="yes"/>
      <point x="132" y="142"/>
      <point x="119" y="134"/>
      <point x="105" y="125" type="curve" smooth="yes"/>
      <point x="91" y="116"/>
      <point x="80" y="104"/>
      <point x="68" y="92" type="curve" smooth="yes"/>
      <point x="56" y="80"/>
      <point x="47" y="66"/>
      <point x="39" y="48" type="curve" smooth="yes"/>
      <point x="31" y="30"/>
      <point x="28" y="9"/>
      <point x="28" y="-17" type="curve" smooth="yes"/>
      <point x="28" y="-42"/>
      <point x="32" y="-64"/>
      <point x="42" y="-84" type="curve" smooth="yes"/>
      <point x="52" y="-104"/>
      <point x="64" y="-120"/>
      <point x="80" y="-134" type="curve" smooth="yes"/>
      <point x="96" y="-148"/>
      <point x="117" y="-157"/>
      <point x="139" y="-165" type="curve" smooth="yes"/>
      <point x="161" y="-173"/>
      <point x="186" y="-176"/>
      <point x="212" y="-176" type="curve" smooth="yes"/>
      <point x="232" y="-176"/>
      <point x="250" y="-174"/>
      <point x="268" y="-170" type="curve" smooth="yes"/>
      <point x="286" y="-166"/>
      <point x="302" y="-160"/>
      <point x="316" y="-154" type="curve" smooth="yes"/>
      <point x="330" y="-148"/>
      <point x="345" y="-140"/>
      <point x="357" y="-132" type="curve" smooth="yes"/>
      <point x="369" y="-124"/>
      <point x="382" y="-115"/>
      <point x="392" y="-105" type="curve"/>
    </contour>
    <contour>
      <point x="168" y="443"/>
      <point x="170" y="436"/>
      <point x="173" y="428" type="curve" smooth="yes"/>
      <point x="176" y="420"/>
      <point x="180" y="414"/>
      <point x="186" y="408" type="curve" smooth="yes"/>
      <point x="192" y="402"/>
      <point x="198" y="398"/>
      <point x="206" y="395" type="curve" smooth="yes"/>
      <point x="214" y="392"/>
      <point x="222" y="390"/>
      <point x="230" y="390" type="curve" smooth="yes"/>
      <point x="238" y="390"/>
      <point x="246" y="392"/>
      <point x="254" y="395" type="curve" smooth="yes"/>
      <point x="262" y="398"/>
      <point x="267" y="402"/>
      <point x="273" y="408" type="curve" smooth="yes"/>
      <point x="279" y="414"/>
      <point x="283" y="420"/>
      <point x="286" y="428" type="curve" smooth="yes"/>
      <point x="289" y="436"/>
      <point x="290" y="443"/>
      <point x="290" y="452" type="curve" smooth="yes"/>
      <point x="290" y="460"/>
      <point x="289" y="468"/>
      <point x="286" y="476" type="curve" smooth="yes"/>
      <point x="283" y="484"/>
      <point x="279" y="490"/>
      <point x="273" y="496" type="curve" smooth="yes"/>
      <point x="267" y="502"/>
      <point x="262" y="505"/>
      <point x="254" y="509" type="curve" smooth="yes"/>
      <point x="246" y="513"/>
      <point x="238" y="514"/>
      <point x="230" y="514" type="curve" smooth="yes"/>
      <point x="222" y="514"/>
      <point x="214" y="513"/>
      <point x="206" y="509" type="curve" smooth="yes"/>
      <point x="198" y="505"/>
      <point x="192" y="502"/>
      <point x="186" y="496" type="curve" smooth="yes"/>
      <point x="180" y="490"/>
      <point x="176" y="484"/>
      <point x="173" y="476" type="curve" smooth="yes"/>
      <point x="170" y="468"/>
      <point x="168" y="460"/>
      <point x="168" y="452" type="curve" smooth="yes"/>
    </contour>
  </outline>
</glyph>
<glyph name="Edieresis" format="1">
  <advance width="586"/>
  <unicode hex="00CB"/>
  <note>
    Edieresis
  </note>
  <outline>
    <contour>
      <point x="34" y="716" type="line"/>
      <point x="34" y="674" type="line" smooth="yes"/>
      <point x="34" y="664"/>
      <point x="38" y="657"/>
      <point x="48" y="655" type="curve"/>
      <point x="54" y="653"/>
      <point x="74" y="649"/>
      <point x="106" y="643" type="curve"/>
      <point x="106" y="72" type="line"/>
      <point x="48" y="61" type="line" smooth="yes"/>
      <point x="38" y="59"/>
      <point x="34" y="52"/>
      <point x="34" y="42" type="curve" smooth="yes"/>
      <point x="34" y="0" type="line"/>
      <point x="547" y="0" type="line"/>
      <point x="547" y="166" type="line"/>
      <point x="499" y="166" type="line" smooth="yes"/>
      <point x="487" y="166"/>
      <point x="480" y="162"/>
      <point x="478" y="150" type="curve"/>
      <point x="478" y="147"/>
      <point x="476" y="122"/>
      <point x="472" y="78" type="curve"/>
      <point x="204" y="78" type="line"/>
      <point x="204" y="323" type="line"/>
      <point x="468" y="323" type="line"/>
      <point x="468" y="399" type="line"/>
      <point x="204" y="399" type="line"/>
      <point x="204" y="637" type="line"/>
      <point x="472" y="637" type="line"/>
      <point x="476" y="589"/>
      <point x="478" y="563"/>
      <point x="478" y="560" type="curve"/>
      <point x="480" y="548"/>
      <point x="488" y="543"/>
      <point x="500" y="543" type="curve" smooth="yes"/>
      <point x="548" y="543" type="line"/>
      <point x="548" y="716" type="line"/>
    </contour>
    <contour>
      <point x="282" y="832" type="line"/>
      <point x="282" y="840"/>
      <point x="281" y="847"/>
      <point x="278" y="854" type="curve" smooth="yes"/>
      <point x="275" y="861"/>
      <point x="271" y="867"/>
      <point x="266" y="872" type="curve" smooth="yes"/>
      <point x="261" y="877"/>
      <point x="255" y="881"/>
      <point x="248" y="884" type="curve" smooth="yes"/>
      <point x="241" y="887"/>
      <point x="234" y="888"/>
      <point x="226" y="888" type="curve" smooth="yes"/>
      <point x="219" y="888"/>
      <point x="211" y="887"/>
      <point x="205" y="884" type="curve" smooth="yes"/>
      <point x="199" y="881"/>
      <point x="193" y="877"/>
      <point x="188" y="872" type="curve" smooth="yes"/>
      <point x="183" y="867"/>
      <point x="179" y="861"/>
      <point x="176" y="854" type="curve" smooth="yes"/>
      <point x="173" y="847"/>
      <point x="171" y="840"/>
      <point x="171" y="832" type="curve" smooth="yes"/>
      <point x="171" y="824"/>
      <point x="173" y="817"/>
      <point x="176" y="811" type="curve" smooth="yes"/>
      <point x="179" y="805"/>
      <point x="183" y="799"/>
      <point x="188" y="794" type="curve" smooth="yes"/>
      <point x="193" y="789"/>
      <point x="198" y="785"/>
      <point x="204" y="782" type="curve" smooth="yes"/>
      <point x="210" y="779"/>
      <point x="217" y="777"/>
      <point x="224" y="777" type="curve" smooth="yes"/>
      <point x="232" y="777"/>
      <point x="239" y="779"/>
      <point x="246" y="782" type="curve" smooth="yes"/>
      <point x="253" y="785"/>
      <point x="259" y="789"/>
      <point x="264" y="794" type="curve" smooth="yes"/>
      <point x="269" y="799"/>
      <point x="273" y="804"/>
      <point x="276" y="810" type="curve" smooth="yes"/>
      <point x="279" y="816"/>
      <point x="280" y="824"/>
      <point x="280" y="832" type="curve"/>
    </contour>
    <contour>
      <point x="494" y="832" type="line" smooth="yes"/>
      <point x="494" y="840"/>
      <point x="492" y="846"/>
      <point x="489" y="853" type="curve" smooth="yes"/>
      <point x="486" y="860"/>
      <point x="482" y="866"/>
      <point x="477" y="871" type="curve" smooth="yes"/>
      <point x="472" y="876"/>
      <point x="466" y="880"/>
      <point x="460" y="883" type="curve" smooth="yes"/>
      <point x="454" y="886"/>
      <point x="446" y="888"/>
      <point x="438" y="888" type="curve" smooth="yes"/>
      <point x="430" y="888"/>
      <point x="424" y="886"/>
      <point x="418" y="883" type="curve" smooth="yes"/>
      <point x="412" y="880"/>
      <point x="405" y="876"/>
      <point x="400" y="871" type="curve" smooth="yes"/>
      <point x="395" y="866"/>
      <point x="391" y="860"/>
      <point x="388" y="853" type="curve" smooth="yes"/>
      <point x="385" y="846"/>
      <point x="384" y="839"/>
      <point x="384" y="831" type="curve" smooth="yes"/>
      <point x="384" y="823"/>
      <point x="385" y="816"/>
      <point x="388" y="810" type="curve" smooth="yes"/>
      <point x="391" y="804"/>
      <point x="395" y="797"/>
      <point x="400" y="792" type="curve" smooth="yes"/>
      <point x="405" y="787"/>
      <point x="412" y="783"/>
      <point x="418" y="780" type="curve" smooth="yes"/>
      <point x="424" y="777"/>
      <point x="430" y="776"/>
      <point x="438" y="776" type="curve" smooth="yes"/>
      <point x="446" y="776"/>
      <point x="454" y="777"/>
      <point x="460" y="780" type="curve" smooth="yes"/>
      <point x="466" y="783"/>
      <point x="472" y="787"/>
      <point x="477" y="792" type="curve" smooth="yes"/>
      <point x="482" y="797"/>
      <point x="486" y="804"/>
      <point x="489" y="810" type="curve" smooth="yes"/>
      <point x="492" y="816"/>
      <point x="494" y="822"/>
      <point x="494" y="830" type="curve" smooth="yes"/>
    </contour>
  </outline>
</glyph>
<glyph name="Igrave" format="1">
  <advance width="336"/>
  <unicode hex="00CC"/>
  <note>
    Igrave
  </note>
  <outline>
    <contour>
      <point x="290" y="655" type="line" smooth="yes"/>
      <point x="300" y="657"/>
      <point x="306" y="664"/>
      <point x="306" y="674" type="curve" smooth="yes"/>
      <point x="306" y="716" type="line"/>
      <point x="64" y="716" type="line"/>
      <point x="64" y="674" type="line" smooth="yes"/>
      <point x="64" y="664"/>
      <point x="68" y="658"/>
      <point x="76" y="656" type="curve" smooth="yes"/>
      <point x="84" y="654"/>
      <point x="104" y="650"/>
      <point x="136" y="644" type="curve"/>
      <point x="136" y="73" type="line"/>
      <point x="80" y="62" type="line" smooth="yes"/>
      <point x="70" y="60"/>
      <point x="64" y="53"/>
      <point x="64" y="43" type="curve" smooth="yes"/>
      <point x="64" y="0" type="line"/>
      <point x="306" y="0" type="line"/>
      <point x="306" y="43" type="line" smooth="yes"/>
      <point x="306" y="53"/>
      <point x="302" y="59"/>
      <point x="294" y="61" type="curve" smooth="yes"/>
      <point x="286" y="63"/>
      <point x="266" y="67"/>
      <point x="234" y="73" type="curve"/>
      <point x="234" y="644" type="line"/>
    </contour>
    <contour>
      <point x="6" y="891" type="line"/>
      <point x="153" y="782" type="line"/>
      <point x="159" y="778"/>
      <point x="164" y="776"/>
      <point x="168" y="775" type="curve" smooth="yes"/>
      <point x="172" y="774"/>
      <point x="177" y="774"/>
      <point x="184" y="774" type="curve" smooth="yes"/>
      <point x="254" y="774" type="line"/>
      <point x="148" y="875" type="line" smooth="yes"/>
      <point x="142" y="881"/>
      <point x="136" y="886"/>
      <point x="130" y="888" type="curve" smooth="yes"/>
      <point x="124" y="890"/>
      <point x="116" y="891"/>
      <point x="106" y="891" type="curve" smooth="yes"/>
    </contour>
  </outline>
</glyph>
<glyph name="Iacute" format="1">
  <advance width="330"/>
  <unicode hex="00CD"/>
  <note>
    Iacute
  </note>
  <outline>
    <contour>
      <point x="260" y="655" type="line" smooth="yes"/>
      <point x="270" y="657"/>
      <point x="275" y="664"/>
      <point x="275" y="674" type="curve" smooth="yes"/>
      <point x="275" y="716" type="line"/>
      <point x="34" y="716" type="line"/>
      <point x="34" y="674" type="line" smooth="yes"/>
      <point x="34" y="664"/>
      <point x="38" y="658"/>
      <point x="46" y="656" type="curve" smooth="yes"/>
      <point x="54" y="654"/>
      <point x="74" y="650"/>
      <point x="106" y="644" type="curve"/>
      <point x="106" y="73" type="line"/>
      <point x="48" y="62" type="line" smooth="yes"/>
      <point x="38" y="60"/>
      <point x="34" y="53"/>
      <point x="34" y="43" type="curve" smooth="yes"/>
      <point x="34" y="0" type="line"/>
      <point x="275" y="0" type="line"/>
      <point x="275" y="43" type="line" smooth="yes"/>
      <point x="275" y="53"/>
      <point x="271" y="59"/>
      <point x="263" y="61" type="curve" smooth="yes"/>
      <point x="255" y="63"/>
      <point x="234" y="67"/>
      <point x="202" y="73" type="curve"/>
      <point x="202" y="644" type="line"/>
    </contour>
    <contour>
      <point x="326" y="891" type="line"/>
      <point x="225" y="891" type="line" smooth="yes"/>
      <point x="219" y="891"/>
      <point x="216" y="890"/>
      <point x="212" y="890" type="curve" smooth="yes"/>
      <point x="208" y="890"/>
      <point x="205" y="889"/>
      <point x="202" y="887" type="curve" smooth="yes"/>
      <point x="199" y="885"/>
      <point x="195" y="884"/>
      <point x="192" y="882" type="curve" smooth="yes"/>
      <point x="189" y="880"/>
      <point x="187" y="878"/>
      <point x="183" y="874" type="curve" smooth="yes"/>
      <point x="78" y="772" type="line"/>
      <point x="146" y="772" type="line" smooth="yes"/>
      <point x="153" y="772"/>
      <point x="160" y="772"/>
      <point x="164" y="774" type="curve" smooth="yes"/>
      <point x="168" y="776"/>
      <point x="172" y="778"/>
      <point x="178" y="782" type="curve"/>
    </contour>
  </outline>
</glyph>
<glyph name="Idieresis" format="1">
  <advance width="333"/>
  <unicode hex="00CF"/>
  <note>
    Idieresis
  </note>
  <outline>
    <contour>
      <point x="272" y="655" type="line" smooth="yes"/>
      <point x="282" y="657"/>
      <point x="287" y="664"/>
      <point x="287" y="674" type="curve" smooth="yes"/>
      <point x="287" y="716" type="line"/>
      <point x="46" y="716" type="line"/>
      <point x="46" y="674" type="line" smooth="yes"/>
      <point x="46" y="664"/>
      <point x="50" y="658"/>
      <point x="58" y="656" type="curve" smooth="yes"/>
      <point x="66" y="654"/>
      <point x="86" y="650"/>
      <point x="118" y="644" type="curve"/>
      <point x="118" y="73" type="line"/>
      <point x="60" y="62" type="line" smooth="yes"/>
      <point x="50" y="60"/>
      <point x="46" y="53"/>
      <point x="46" y="43" type="curve" smooth="yes"/>
      <point x="46" y="0" type="line"/>
      <point x="287" y="0" type="line"/>
      <point x="287" y="43" type="line" smooth="yes"/>
      <point x="287" y="53"/>
      <point x="283" y="59"/>
      <point x="275" y="61" type="curve" smooth="yes"/>
      <point x="267" y="63"/>
      <point x="246" y="67"/>
      <point x="214" y="73" type="curve"/>
      <point x="214" y="644" type="line"/>
    </contour>
    <contour>
      <point x="116" y="833" type="line"/>
      <point x="116" y="841"/>
      <point x="114" y="847"/>
      <point x="111" y="854" type="curve" smooth="yes"/>
      <point x="108" y="861"/>
      <point x="104" y="867"/>
      <point x="99" y="872" type="curve" smooth="yes"/>
      <point x="94" y="877"/>
      <point x="88" y="881"/>
      <point x="81" y="884" type="curve" smooth="yes"/>
      <point x="74" y="887"/>
      <point x="67" y="889"/>
      <point x="59" y="889" type="curve" smooth="yes"/>
      <point x="52" y="889"/>
      <point x="44" y="887"/>
      <point x="38" y="884" type="curve" smooth="yes"/>
      <point x="32" y="881"/>
      <point x="26" y="877"/>
      <point x="21" y="872" type="curve" smooth="yes"/>
      <point x="16" y="867"/>
      <point x="12" y="861"/>
      <point x="9" y="854" type="curve" smooth="yes"/>
      <point x="6" y="847"/>
      <point x="4" y="840"/>
      <point x="4" y="832" type="curve" smooth="yes"/>
      <point x="4" y="824"/>
      <point x="6" y="818"/>
      <point x="9" y="812" type="curve" smooth="yes"/>
      <point x="12" y="806"/>
      <point x="16" y="799"/>
      <point x="21" y="794" type="curve" smooth="yes"/>
      <point x="26" y="789"/>
      <point x="32" y="785"/>
      <point x="38" y="782" type="curve" smooth="yes"/>
      <point x="44" y="779"/>
      <point x="51" y="778"/>
      <point x="58" y="778" type="curve" smooth="yes"/>
      <point x="66" y="778"/>
      <point x="73" y="779"/>
      <point x="80" y="782" type="curve" smooth="yes"/>
      <point x="87" y="785"/>
      <point x="93" y="789"/>
      <point x="98" y="794" type="curve" smooth="yes"/>
      <point x="103" y="799"/>
      <point x="107" y="805"/>
      <point x="110" y="811" type="curve" smooth="yes"/>
      <point x="113" y="817"/>
      <point x="114" y="824"/>
      <point x="114" y="832" type="curve"/>
    </contour>
    <contour>
      <point x="327" y="832" type="line" smooth="yes"/>
      <point x="327" y="840"/>
      <point x="325" y="847"/>
      <point x="322" y="854" type="curve" smooth="yes"/>
      <point x="319" y="861"/>
      <point x="315" y="867"/>
      <point x="310" y="872" type="curve" smooth="yes"/>
      <point x="305" y="877"/>
      <point x="299" y="881"/>
      <point x="293" y="884" type="curve" smooth="yes"/>
      <point x="287" y="887"/>
      <point x="280" y="888"/>
      <point x="272" y="888" type="curve" smooth="yes"/>
      <point x="264" y="888"/>
      <point x="257" y="887"/>
      <point x="251" y="884" type="curve" smooth="yes"/>
      <point x="245" y="881"/>
      <point x="239" y="877"/>
      <point x="234" y="872" type="curve" smooth="yes"/>
      <point x="229" y="867"/>
      <point x="225" y="861"/>
      <point x="222" y="854" type="curve" smooth="yes"/>
      <point x="219" y="847"/>
      <point x="217" y="840"/>
      <point x="217" y="832" type="curve" smooth="yes"/>
      <point x="217" y="824"/>
      <point x="219" y="816"/>
      <point x="222" y="810" type="curve" smooth="yes"/>
      <point x="225" y="804"/>
      <point x="229" y="798"/>
      <point x="234" y="793" type="curve" smooth="yes"/>
      <point x="239" y="788"/>
      <point x="245" y="784"/>
      <point x="251" y="781" type="curve" smooth="yes"/>
      <point x="257" y="778"/>
      <point x="264" y="776"/>
      <point x="272" y="776" type="curve" smooth="yes"/>
      <point x="280" y="776"/>
      <point x="287" y="778"/>
      <point x="293" y="781" type="curve" smooth="yes"/>
      <point x="299" y="784"/>
      <point x="305" y="788"/>
      <point x="310" y="793" type="curve" smooth="yes"/>
      <point x="315" y="798"/>
      <point x="319" y="804"/>
      <point x="322" y="810" type="curve" smooth="yes"/>
      <point x="325" y="816"/>
      <point x="327" y="823"/>
      <point x="327" y="831" type="curve" smooth="yes"/>
    </contour>
  </outline>
</glyph>
<glyph name="Eth" format="1">
  <advance width="743"/>
  <unicode hex="00D0"/>
  <note>
    Eth
  </note>
  <outline>
    <contour>
      <point x="675" y="548"/>
      <point x="651" y="586"/>
      <point x="620" y="618" type="curve" smooth="yes"/>
      <point x="589" y="650"/>
      <point x="552" y="673"/>
      <point x="508" y="690" type="curve" smooth="yes"/>
      <point x="464" y="707"/>
      <point x="416" y="716"/>
      <point x="364" y="716" type="curve" smooth="yes"/>
      <point x="106" y="716" type="line"/>
      <point x="34" y="716" type="line"/>
      <point x="34" y="673" type="line" smooth="yes"/>
      <point x="34" y="664"/>
      <point x="41" y="656"/>
      <point x="50" y="654" type="curve" smooth="yes"/>
      <point x="59" y="652"/>
      <point x="106" y="644"/>
      <point x="106" y="644" type="curve"/>
      <point x="106" y="390" type="line"/>
      <point x="8" y="390" type="line"/>
      <point x="8" y="333" type="line"/>
      <point x="106" y="333" type="line"/>
      <point x="106" y="73" type="line"/>
      <point x="106" y="73"/>
      <point x="59" y="64"/>
      <point x="50" y="62" type="curve" smooth="yes"/>
      <point x="41" y="60"/>
      <point x="34" y="52"/>
      <point x="34" y="43" type="curve" smooth="yes"/>
      <point x="34" y="0" type="line"/>
      <point x="106" y="0" type="line"/>
      <point x="364" y="0" type="line" smooth="yes"/>
      <point x="416" y="0"/>
      <point x="464" y="9"/>
      <point x="508" y="26" type="curve" smooth="yes"/>
      <point x="552" y="43"/>
      <point x="589" y="66"/>
      <point x="620" y="98" type="curve" smooth="yes"/>
      <point x="651" y="130"/>
      <point x="675" y="168"/>
      <point x="692" y="212" type="curve" smooth="yes"/>
      <point x="709" y="256"/>
      <point x="718" y="304"/>
      <point x="718" y="358" type="curve" smooth="yes"/>
      <point x="718" y="412"/>
      <point x="709" y="460"/>
      <point x="692" y="504" type="curve" smooth="yes"/>
    </contour>
    <contour>
      <point x="588" y="206"/>
      <point x="571" y="176"/>
      <point x="549" y="152" type="curve" smooth="yes"/>
      <point x="527" y="128"/>
      <point x="501" y="109"/>
      <point x="469" y="97" type="curve" smooth="yes"/>
      <point x="437" y="85"/>
      <point x="402" y="78"/>
      <point x="364" y="78" type="curve" smooth="yes"/>
      <point x="203" y="78" type="line"/>
      <point x="203" y="332" type="line"/>
      <point x="394" y="332" type="line"/>
      <point x="394" y="390" type="line"/>
      <point x="203" y="390" type="line"/>
      <point x="203" y="638" type="line"/>
      <point x="364" y="638" type="line" smooth="yes"/>
      <point x="402" y="638"/>
      <point x="437" y="630"/>
      <point x="469" y="618" type="curve" smooth="yes"/>
      <point x="501" y="606"/>
      <point x="527" y="588"/>
      <point x="549" y="564" type="curve" smooth="yes"/>
      <point x="571" y="540"/>
      <point x="588" y="510"/>
      <point x="600" y="476" type="curve" smooth="yes"/>
      <point x="612" y="442"/>
      <point x="618" y="402"/>
      <point x="618" y="358" type="curve" smooth="yes"/>
      <point x="618" y="314"/>
      <point x="612" y="274"/>
      <point x="600" y="240" type="curve" smooth="yes"/>
    </contour>
  </outline>
</glyph>
<glyph name="Ocircumflex" format="1">
  <advance width="754"/>
  <unicode hex="00D4"/>
  <note>
    Ocircumflex
  </note>
  <outline>
    <contour>
      <point x="729" y="358" type="line"/>
      <point x="729" y="412"/>
      <point x="721" y="461"/>
      <point x="704" y="506" type="curve" smooth="yes"/>
      <point x="687" y="551"/>
      <point x="663" y="590"/>
      <point x="632" y="622" type="curve" smooth="yes"/>
      <point x="601" y="654"/>
      <point x="564" y="679"/>
      <point x="520" y="697" type="curve" smooth="yes"/>
      <point x="476" y="715"/>
      <point x="428" y="724"/>
      <point x="376" y="724" type="curve" smooth="yes"/>
      <point x="324" y="724"/>
      <point x="276" y="715"/>
      <point x="232" y="697" type="curve" smooth="yes"/>
      <point x="188" y="679"/>
      <point x="151" y="653"/>
      <point x="120" y="621" type="curve" smooth="yes"/>
      <point x="89" y="589"/>
      <point x="65" y="550"/>
      <point x="48" y="505" type="curve" smooth="yes"/>
      <point x="31" y="460"/>
      <point x="22" y="411"/>
      <point x="22" y="357" type="curve" smooth="yes"/>
      <point x="22" y="303"/>
      <point x="31" y="254"/>
      <point x="48" y="209" type="curve" smooth="yes"/>
      <point x="65" y="164"/>
      <point x="89" y="125"/>
      <point x="120" y="93" type="curve" smooth="yes"/>
      <point x="151" y="61"/>
      <point x="188" y="36"/>
      <point x="232" y="18" type="curve" smooth="yes"/>
      <point x="276" y="0"/>
      <point x="324" y="-10"/>
      <point x="376" y="-10" type="curve" smooth="yes"/>
      <point x="428" y="-10"/>
      <point x="476" y="0"/>
      <point x="520" y="18" type="curve" smooth="yes"/>
      <point x="564" y="36"/>
      <point x="600" y="61"/>
      <point x="631" y="93" type="curve" smooth="yes"/>
      <point x="662" y="125"/>
      <point x="686" y="164"/>
      <point x="703" y="209" type="curve" smooth="yes"/>
      <point x="720" y="254"/>
      <point x="728" y="302"/>
      <point x="728" y="356" type="curve"/>
    </contour>
    <contour>
      <point x="629" y="356" type="line"/>
      <point x="629" y="312"/>
      <point x="623" y="273"/>
      <point x="611" y="238" type="curve" smooth="yes"/>
      <point x="599" y="203"/>
      <point x="582" y="174"/>
      <point x="560" y="150" type="curve" smooth="yes"/>
      <point x="538" y="126"/>
      <point x="512" y="107"/>
      <point x="480" y="94" type="curve" smooth="yes"/>
      <point x="448" y="81"/>
      <point x="413" y="74"/>
      <point x="375" y="74" type="curve" smooth="yes"/>
      <point x="337" y="74"/>
      <point x="302" y="81"/>
      <point x="270" y="94" type="curve" smooth="yes"/>
      <point x="238" y="107"/>
      <point x="212" y="126"/>
      <point x="190" y="150" type="curve" smooth="yes"/>
      <point x="168" y="174"/>
      <point x="150" y="203"/>
      <point x="138" y="238" type="curve" smooth="yes"/>
      <point x="126" y="273"/>
      <point x="120" y="312"/>
      <point x="120" y="356" type="curve" smooth="yes"/>
      <point x="120" y="400"/>
      <point x="126" y="440"/>
      <point x="138" y="475" type="curve" smooth="yes"/>
      <point x="150" y="510"/>
      <point x="168" y="540"/>
      <point x="190" y="564" type="curve" smooth="yes"/>
      <point x="212" y="588"/>
      <point x="238" y="606"/>
      <point x="270" y="619" type="curve" smooth="yes"/>
      <point x="302" y="632"/>
      <point x="336" y="638"/>
      <point x="374" y="638" type="curve" smooth="yes"/>
      <point x="412" y="638"/>
      <point x="448" y="632"/>
      <point x="480" y="619" type="curve" smooth="yes"/>
      <point x="512" y="606"/>
      <point x="538" y="588"/>
      <point x="560" y="564" type="curve" smooth="yes"/>
      <point x="582" y="540"/>
      <point x="598" y="510"/>
      <point x="610" y="475" type="curve" smooth="yes"/>
      <point x="622" y="440"/>
      <point x="628" y="400"/>
      <point x="628" y="356" type="curve"/>
    </contour>
    <contour>
      <point x="538" y="772" type="line"/>
      <point x="420" y="876" type="line"/>
      <point x="332" y="876" type="line"/>
      <point x="212" y="772" type="line"/>
      <point x="280" y="772" type="line" smooth="yes"/>
      <point x="284" y="772"/>
      <point x="289" y="772"/>
      <point x="293" y="773" type="curve" smooth="yes"/>
      <point x="297" y="774"/>
      <point x="301" y="776"/>
      <point x="304" y="778" type="curve" smooth="yes"/>
      <point x="370" y="825" type="line"/>
      <point x="372" y="825"/>
      <point x="374" y="827"/>
      <point x="376" y="829" type="curve"/>
      <point x="378" y="827"/>
      <point x="380" y="826"/>
      <point x="382" y="824" type="curve"/>
      <point x="446" y="777" type="line"/>
      <point x="449" y="775"/>
      <point x="454" y="773"/>
      <point x="458" y="772" type="curve" smooth="yes"/>
      <point x="462" y="771"/>
      <point x="467" y="771"/>
      <point x="471" y="771" type="curve" smooth="yes"/>
    </contour>
  </outline>
</glyph>
<glyph name="Oslash" format="1">
  <advance width="754"/>
  <unicode hex="00D8"/>
  <note>
    Oslash
  </note>
  <outline>
    <contour>
      <point x="729" y="358" type="line"/>
      <point x="729" y="415"/>
      <point x="719" y="467"/>
      <point x="701" y="513" type="curve" smooth="yes"/>
      <point x="683" y="559"/>
      <point x="656" y="600"/>
      <point x="622" y="632" type="curve"/>
      <point x="708" y="749" type="line"/>
      <point x="658" y="749" type="line" smooth="yes"/>
      <point x="648" y="749"/>
      <point x="640" y="747"/>
      <point x="634" y="743" type="curve" smooth="yes"/>
      <point x="628" y="739"/>
      <point x="622" y="733"/>
      <point x="616" y="724" type="curve"/>
      <point x="574" y="668" type="line"/>
      <point x="546" y="686"/>
      <point x="517" y="700"/>
      <point x="483" y="710" type="curve" smooth="yes"/>
      <point x="449" y="720"/>
      <point x="413" y="724"/>
      <point x="375" y="724" type="curve" smooth="yes"/>
      <point x="323" y="724"/>
      <point x="275" y="715"/>
      <point x="231" y="697" type="curve" smooth="yes"/>
      <point x="187" y="679"/>
      <point x="151" y="653"/>
      <point x="120" y="621" type="curve" smooth="yes"/>
      <point x="89" y="589"/>
      <point x="65" y="550"/>
      <point x="48" y="505" type="curve" smooth="yes"/>
      <point x="31" y="460"/>
      <point x="22" y="411"/>
      <point x="22" y="357" type="curve" smooth="yes"/>
      <point x="22" y="297"/>
      <point x="32" y="244"/>
      <point x="52" y="196" type="curve" smooth="yes"/>
      <point x="72" y="148"/>
      <point x="102" y="106"/>
      <point x="140" y="74" type="curve"/>
      <point x="44" y="-56" type="line"/>
      <point x="83" y="-56" type="line" smooth="yes"/>
      <point x="93" y="-56"/>
      <point x="102" y="-53"/>
      <point x="112" y="-49" type="curve" smooth="yes"/>
      <point x="122" y="-45"/>
      <point x="129" y="-38"/>
      <point x="137" y="-28" type="curve"/>
      <point x="187" y="40" type="line"/>
      <point x="213" y="24"/>
      <point x="242" y="12"/>
      <point x="274" y="4" type="curve" smooth="yes"/>
      <point x="306" y="-4"/>
      <point x="339" y="-8"/>
      <point x="375" y="-8" type="curve" smooth="yes"/>
      <point x="427" y="-8"/>
      <point x="475" y="1"/>
      <point x="519" y="19" type="curve" smooth="yes"/>
      <point x="563" y="37"/>
      <point x="599" y="62"/>
      <point x="630" y="94" type="curve" smooth="yes"/>
      <point x="661" y="126"/>
      <point x="685" y="165"/>
      <point x="702" y="210" type="curve" smooth="yes"/>
      <point x="719" y="255"/>
      <point x="728" y="304"/>
      <point x="728" y="358" type="curve"/>
    </contour>
    <contour>
      <point x="120" y="402"/>
      <point x="126" y="441"/>
      <point x="138" y="476" type="curve" smooth="yes"/>
      <point x="150" y="511"/>
      <point x="168" y="541"/>
      <point x="190" y="565" type="curve" smooth="yes"/>
      <point x="212" y="589"/>
      <point x="238" y="607"/>
      <point x="270" y="620" type="curve" smooth="yes"/>
      <point x="302" y="633"/>
      <point x="336" y="640"/>
      <point x="374" y="640" type="curve" smooth="yes"/>
      <point x="403" y="640"/>
      <point x="431" y="637"/>
      <point x="455" y="630" type="curve" smooth="yes"/>
      <point x="479" y="623"/>
      <point x="502" y="612"/>
      <point x="522" y="598" type="curve"/>
      <point x="192" y="148" type="line"/>
      <point x="169" y="172"/>
      <point x="151" y="203"/>
      <point x="139" y="238" type="curve" smooth="yes"/>
      <point x="127" y="273"/>
      <point x="120" y="313"/>
      <point x="120" y="358" type="curve" smooth="yes"/>
    </contour>
    <contour>
      <point x="628" y="358" type="line"/>
      <point x="628" y="314"/>
      <point x="622" y="274"/>
      <point x="610" y="239" type="curve" smooth="yes"/>
      <point x="598" y="204"/>
      <point x="581" y="174"/>
      <point x="559" y="150" type="curve" smooth="yes"/>
      <point x="537" y="126"/>
      <point x="511" y="108"/>
      <point x="479" y="95" type="curve" smooth="yes"/>
      <point x="447" y="82"/>
      <point x="412" y="76"/>
      <point x="374" y="76" type="curve" smooth="yes"/>
      <point x="322" y="76"/>
      <point x="276" y="86"/>
      <point x="238" y="110" type="curve"/>
      <point x="566" y="556" type="line"/>
      <point x="586" y="532"/>
      <point x="601" y="504"/>
      <point x="612" y="470" type="curve" smooth="yes"/>
      <point x="623" y="436"/>
      <point x="628" y="398"/>
      <point x="628" y="356" type="curve"/>
    </contour>
  </outline>
</glyph>
<glyph name="Udieresis" format="1">
  <advance width="749"/>
  <unicode hex="00DC"/>
  <note>
    Udieresis
  </note>
  <outline>
    <contour>
      <point x="660" y="716" type="line"/>
      <point x="564" y="716" type="line"/>
      <point x="482" y="716" type="line"/>
      <point x="482" y="674" type="line" smooth="yes"/>
      <point x="482" y="664"/>
      <point x="488" y="657"/>
      <point x="498" y="655" type="curve" smooth="yes"/>
      <point x="503" y="654"/>
      <point x="525" y="650"/>
      <point x="564" y="644" type="curve"/>
      <point x="564" y="281" type="line" smooth="yes"/>
      <point x="564" y="220"/>
      <point x="547" y="171"/>
      <point x="514" y="134" type="curve" smooth="yes"/>
      <point x="480" y="96"/>
      <point x="432" y="77"/>
      <point x="374" y="77" type="curve" smooth="yes"/>
      <point x="316" y="77"/>
      <point x="269" y="96"/>
      <point x="235" y="134" type="curve" smooth="yes"/>
      <point x="201" y="171"/>
      <point x="185" y="221"/>
      <point x="185" y="282" type="curve" smooth="yes"/>
      <point x="185" y="644" type="line"/>
      <point x="225" y="650"/>
      <point x="247" y="654"/>
      <point x="252" y="655" type="curve" smooth="yes"/>
      <point x="262" y="657"/>
      <point x="267" y="664"/>
      <point x="267" y="674" type="curve" smooth="yes"/>
      <point x="267" y="716" type="line"/>
      <point x="16" y="716" type="line"/>
      <point x="16" y="674" type="line" smooth="yes"/>
      <point x="16" y="664"/>
      <point x="22" y="657"/>
      <point x="32" y="655" type="curve"/>
      <point x="38" y="653"/>
      <point x="56" y="649"/>
      <point x="88" y="643" type="curve"/>
      <point x="88" y="280" type="line" smooth="yes"/>
      <point x="88" y="196"/>
      <point x="114" y="128"/>
      <point x="165" y="74" type="curve" smooth="yes"/>
      <point x="217" y="19"/>
      <point x="288" y="-9"/>
      <point x="374" y="-9" type="curve" smooth="yes"/>
      <point x="461" y="-9"/>
      <point x="530" y="19"/>
      <point x="582" y="74" type="curve" smooth="yes"/>
      <point x="632" y="128"/>
      <point x="658" y="196"/>
      <point x="658" y="280" type="curve" smooth="yes"/>
      <point x="658" y="643" type="line"/>
      <point x="716" y="654" type="line" smooth="yes"/>
      <point x="726" y="656"/>
      <point x="731" y="663"/>
      <point x="731" y="673" type="curve" smooth="yes"/>
      <point x="731" y="716" type="line"/>
    </contour>
    <contour>
      <point x="322" y="832" type="line"/>
      <point x="322" y="840"/>
      <point x="321" y="847"/>
      <point x="318" y="854" type="curve" smooth="yes"/>
      <point x="315" y="861"/>
      <point x="311" y="867"/>
      <point x="306" y="872" type="curve" smooth="yes"/>
      <point x="301" y="877"/>
      <point x="295" y="881"/>
      <point x="288" y="884" type="curve" smooth="yes"/>
      <point x="281" y="887"/>
      <point x="274" y="888"/>
      <point x="266" y="888" type="curve" smooth="yes"/>
      <point x="259" y="888"/>
      <point x="251" y="887"/>
      <point x="245" y="884" type="curve" smooth="yes"/>
      <point x="239" y="881"/>
      <point x="233" y="877"/>
      <point x="228" y="872" type="curve" smooth="yes"/>
      <point x="223" y="867"/>
      <point x="219" y="861"/>
      <point x="216" y="854" type="curve" smooth="yes"/>
      <point x="213" y="847"/>
      <point x="211" y="840"/>
      <point x="211" y="832" type="curve" smooth="yes"/>
      <point x="211" y="824"/>
      <point x="213" y="817"/>
      <point x="216" y="811" type="curve" smooth="yes"/>
      <point x="219" y="805"/>
      <point x="223" y="799"/>
      <point x="228" y="794" type="curve" smooth="yes"/>
      <point x="233" y="789"/>
      <point x="238" y="785"/>
      <point x="244" y="782" type="curve" smooth="yes"/>
      <point x="250" y="779"/>
      <point x="257" y="777"/>
      <point x="264" y="777" type="curve" smooth="yes"/>
      <point x="272" y="777"/>
      <point x="279" y="779"/>
      <point x="286" y="782" type="curve" smooth="yes"/>
      <point x="293" y="785"/>
      <point x="299" y="789"/>
      <point x="304" y="794" type="curve" smooth="yes"/>
      <point x="309" y="799"/>
      <point x="313" y="804"/>
      <point x="316" y="810" type="curve" smooth="yes"/>
      <point x="319" y="816"/>
      <point x="320" y="824"/>
      <point x="320" y="832" type="curve"/>
    </contour>
    <contour>
      <point x="534" y="832" type="line" smooth="yes"/>
      <point x="534" y="840"/>
      <point x="532" y="846"/>
      <point x="529" y="853" type="curve" smooth="yes"/>
      <point x="526" y="860"/>
      <point x="522" y="866"/>
      <point x="517" y="871" type="curve" smooth="yes"/>
      <point x="512" y="876"/>
      <point x="506" y="880"/>
      <point x="500" y="883" type="curve" smooth="yes"/>
      <point x="494" y="886"/>
      <point x="486" y="888"/>
      <point x="478" y="888" type="curve" smooth="yes"/>
      <point x="470" y="888"/>
      <point x="464" y="886"/>
      <point x="458" y="883" type="curve" smooth="yes"/>
      <point x="452" y="880"/>
      <point x="445" y="876"/>
      <point x="440" y="871" type="curve" smooth="yes"/>
      <point x="435" y="866"/>
      <point x="431" y="860"/>
      <point x="428" y="853" type="curve" smooth="yes"/>
      <point x="425" y="846"/>
      <point x="424" y="839"/>
      <point x="424" y="831" type="curve" smooth="yes"/>
      <point x="424" y="823"/>
      <point x="425" y="816"/>
      <point x="428" y="810" type="curve" smooth="yes"/>
      <point x="431" y="804"/>
      <point x="435" y="797"/>
      <point x="440" y="792" type="curve" smooth="yes"/>
      <point x="445" y="787"/>
      <point x="452" y="783"/>
      <point x="458" y="780" type="curve" smooth="yes"/>
      <point x="464" y="777"/>
      <point x="470" y="776"/>
      <point x="478" y="776" type="curve" smooth="yes"/>
      <point x="486" y="776"/>
      <point x="494" y="777"/>
      <point x="500" y="780" type="curve" smooth="yes"/>
      <point x="506" y="783"/>
      <point x="512" y="787"/>
      <point x="517" y="792" type="curve" smooth="yes"/>
      <point x="522" y="797"/>
      <point x="526" y="804"/>
      <point x="529" y="810" type="curve" smooth="yes"/>
      <point x="532" y="816"/>
      <point x="534" y="822"/>
      <point x="534" y="830" type="curve" smooth="yes"/>
    </contour>
  </outline>
</glyph>
<glyph name="germandbls" format="1">
  <advance width="542"/>
  <unicode hex="00DF"/>
  <note>
    germandbls
  </note>
  <outline>
    <contour>
      <point x="291" y="727" type="line"/>
      <point x="255" y="727"/>
      <point x="221" y="721"/>
      <point x="191" y="710" type="curve" smooth="yes"/>
      <point x="161" y="699"/>
      <point x="136" y="684"/>
      <point x="114" y="664" type="curve" smooth="yes"/>
      <point x="92" y="644"/>
      <point x="76" y="618"/>
      <point x="64" y="590" type="curve" smooth="yes"/>
      <point x="52" y="562"/>
      <point x="47" y="530"/>
      <point x="47" y="496" type="curve" smooth="yes"/>
      <point x="47" y="0" type="line"/>
      <point x="136" y="0" type="line"/>
      <point x="136" y="492" type="line" smooth="yes"/>
      <point x="136" y="520"/>
      <point x="140" y="545"/>
      <point x="147" y="566" type="curve" smooth="yes"/>
      <point x="154" y="587"/>
      <point x="164" y="604"/>
      <point x="177" y="618" type="curve" smooth="yes"/>
      <point x="190" y="632"/>
      <point x="206" y="643"/>
      <point x="224" y="650" type="curve" smooth="yes"/>
      <point x="242" y="657"/>
      <point x="264" y="660"/>
      <point x="286" y="660" type="curve" smooth="yes"/>
      <point x="307" y="660"/>
      <point x="325" y="658"/>
      <point x="340" y="652" type="curve" smooth="yes"/>
      <point x="355" y="646"/>
      <point x="366" y="639"/>
      <point x="376" y="631" type="curve" smooth="yes"/>
      <point x="386" y="623"/>
      <point x="392" y="613"/>
      <point x="396" y="602" type="curve" smooth="yes"/>
      <point x="400" y="591"/>
      <point x="402" y="579"/>
      <point x="402" y="569" type="curve" smooth="yes"/>
      <point x="402" y="553"/>
      <point x="399" y="539"/>
      <point x="391" y="527" type="curve" smooth="yes"/>
      <point x="383" y="515"/>
      <point x="374" y="504"/>
      <point x="363" y="494" type="curve" smooth="yes"/>
      <point x="352" y="484"/>
      <point x="340" y="475"/>
      <point x="327" y="466" type="curve" smooth="yes"/>
      <point x="314" y="457"/>
      <point x="302" y="446"/>
      <point x="291" y="436" type="curve" smooth="yes"/>
      <point x="280" y="426"/>
      <point x="271" y="413"/>
      <point x="263" y="400" type="curve" smooth="yes"/>
      <point x="255" y="387"/>
      <point x="252" y="372"/>
      <point x="252" y="354" type="curve" smooth="yes"/>
      <point x="252" y="332"/>
      <point x="256" y="314"/>
      <point x="266" y="300" type="curve" smooth="yes"/>
      <point x="276" y="286"/>
      <point x="286" y="275"/>
      <point x="300" y="265" type="curve" smooth="yes"/>
      <point x="314" y="255"/>
      <point x="330" y="247"/>
      <point x="346" y="240" type="curve" smooth="yes"/>
      <point x="362" y="233"/>
      <point x="378" y="224"/>
      <point x="392" y="216" type="curve" smooth="yes"/>
      <point x="406" y="208"/>
      <point x="416" y="198"/>
      <point x="426" y="186" type="curve" smooth="yes"/>
      <point x="436" y="174"/>
      <point x="440" y="160"/>
      <point x="440" y="142" type="curve" smooth="yes"/>
      <point x="440" y="130"/>
      <point x="438" y="117"/>
      <point x="434" y="107" type="curve" smooth="yes"/>
      <point x="430" y="97"/>
      <point x="423" y="88"/>
      <point x="415" y="80" type="curve" smooth="yes"/>
      <point x="407" y="72"/>
      <point x="398" y="66"/>
      <point x="386" y="62" type="curve" smooth="yes"/>
      <point x="374" y="58"/>
      <point x="360" y="55"/>
      <point x="346" y="55" type="curve" smooth="yes"/>
      <point x="328" y="55"/>
      <point x="314" y="58"/>
      <point x="302" y="62" type="curve" smooth="yes"/>
      <point x="290" y="66"/>
      <point x="278" y="71"/>
      <point x="269" y="77" type="curve" smooth="yes"/>
      <point x="260" y="83"/>
      <point x="252" y="88"/>
      <point x="246" y="92" type="curve" smooth="yes"/>
      <point x="240" y="96"/>
      <point x="232" y="99"/>
      <point x="226" y="99" type="curve" smooth="yes"/>
      <point x="220" y="99"/>
      <point x="216" y="98"/>
      <point x="212" y="96" type="curve" smooth="yes"/>
      <point x="208" y="94"/>
      <point x="204" y="89"/>
      <point x="202" y="85" type="curve"/>
      <point x="182" y="51" type="line"/>
      <point x="202" y="33"/>
      <point x="225" y="18"/>
      <point x="251" y="6" type="curve" smooth="yes"/>
      <point x="277" y="-6"/>
      <point x="308" y="-11"/>
      <point x="340" y="-11" type="curve" smooth="yes"/>
      <point x="366" y="-11"/>
      <point x="391" y="-8"/>
      <point x="413" y="0" type="curve" smooth="yes"/>
      <point x="435" y="8"/>
      <point x="456" y="18"/>
      <point x="472" y="32" type="curve" smooth="yes"/>
      <point x="488" y="46"/>
      <point x="500" y="64"/>
      <point x="510" y="84" type="curve" smooth="yes"/>
      <point x="520" y="104"/>
      <point x="524" y="128"/>
      <point x="524" y="154" type="curve" smooth="yes"/>
      <point x="524" y="180"/>
      <point x="520" y="201"/>
      <point x="511" y="218" type="curve" smooth="yes"/>
      <point x="502" y="235"/>
      <point x="492" y="249"/>
      <point x="478" y="261" type="curve" smooth="yes"/>
      <point x="464" y="273"/>
      <point x="450" y="282"/>
      <point x="434" y="290" type="curve" smooth="yes"/>
      <point x="418" y="298"/>
      <point x="404" y="305"/>
      <point x="390" y="313" type="curve" smooth="yes"/>
      <point x="376" y="321"/>
      <point x="366" y="329"/>
      <point x="357" y="337" type="curve" smooth="yes"/>
      <point x="348" y="345"/>
      <point x="344" y="357"/>
      <point x="344" y="370" type="curve" smooth="yes"/>
      <point x="344" y="380"/>
      <point x="347" y="390"/>
      <point x="354" y="398" type="curve" smooth="yes"/>
      <point x="361" y="406"/>
      <point x="370" y="414"/>
      <point x="380" y="422" type="curve" smooth="yes"/>
      <point x="390" y="430"/>
      <point x="403" y="439"/>
      <point x="415" y="447" type="curve" smooth="yes"/>
      <point x="427" y="455"/>
      <point x="440" y="465"/>
      <point x="450" y="476" type="curve" smooth="yes"/>
      <point x="460" y="487"/>
      <point x="469" y="500"/>
      <point x="476" y="514" type="curve" smooth="yes"/>
      <point x="483" y="528"/>
      <point x="486" y="546"/>
      <point x="486" y="566" type="curve" smooth="yes"/>
      <point x="486" y="583"/>
      <point x="482" y="600"/>
      <point x="474" y="618" type="curve" smooth="yes"/>
      <point x="466" y="636"/>
      <point x="454" y="654"/>
      <point x="438" y="670" type="curve" smooth="yes"/>
      <point x="422" y="686"/>
      <point x="401" y="698"/>
      <point x="376" y="708" type="curve" smooth="yes"/>
      <point x="351" y="718"/>
      <point x="320" y="722"/>
      <point x="286" y="722" type="curve"/>
    </contour>
  </outline>
</glyph>
<glyph name="aacute" format="1">
  <advance width="510"/>
  <unicode hex="00E1"/>
  <note>
    aacute
  </note>
  <outline>
    <contour>
      <point x="46" y="436" type="line"/>
      <point x="62" y="406"/>
      <point x="78" y="391"/>
      <point x="90" y="391" type="curve" smooth="yes"/>
      <point x="97" y="391"/>
      <point x="112" y="400"/>
      <point x="138" y="418" type="curve" smooth="yes"/>
      <point x="164" y="436"/>
      <point x="195" y="445"/>
      <point x="233" y="445" type="curve" smooth="yes"/>
      <point x="299" y="445"/>
      <point x="333" y="404"/>
      <point x="333" y="324" type="curve" smooth="yes"/>
      <point x="333" y="285" type="line"/>
      <point x="227" y="285"/>
      <point x="147" y="268"/>
      <point x="91" y="236" type="curve" smooth="yes"/>
      <point x="67" y="222"/>
      <point x="49" y="204"/>
      <point x="38" y="186" type="curve" smooth="yes"/>
      <point x="27" y="168"/>
      <point x="22" y="142"/>
      <point x="22" y="110" type="curve" smooth="yes"/>
      <point x="22" y="78"/>
      <point x="35" y="50"/>
      <point x="63" y="26" type="curve" smooth="yes"/>
      <point x="75" y="15"/>
      <point x="91" y="8"/>
      <point x="108" y="2" type="curve" smooth="yes"/>
      <point x="125" y="-4"/>
      <point x="154" y="-7"/>
      <point x="194" y="-7" type="curve" smooth="yes"/>
      <point x="234" y="-7"/>
      <point x="284" y="19"/>
      <point x="340" y="69" type="curve"/>
      <point x="350" y="22" type="line"/>
      <point x="352" y="8"/>
      <point x="363" y="1"/>
      <point x="381" y="1" type="curve" smooth="yes"/>
      <point x="485" y="1" type="line"/>
      <point x="485" y="44" type="line" smooth="yes"/>
      <point x="485" y="54"/>
      <point x="482" y="60"/>
      <point x="476" y="61" type="curve" smooth="yes"/>
      <point x="470" y="62"/>
      <point x="452" y="66"/>
      <point x="420" y="72" type="curve"/>
      <point x="420" y="324" type="line" smooth="yes"/>
      <point x="420" y="382"/>
      <point x="404" y="428"/>
      <point x="374" y="462" type="curve" smooth="yes"/>
      <point x="359" y="478"/>
      <point x="341" y="492"/>
      <point x="319" y="502" type="curve" smooth="yes"/>
      <point x="297" y="512"/>
      <point x="260" y="516"/>
      <point x="208" y="516" type="curve" smooth="yes"/>
      <point x="156" y="516"/>
      <point x="102" y="489"/>
      <point x="46" y="435" type="curve"/>
    </contour>
    <contour>
      <point x="106" y="195"/>
      <point x="182" y="227"/>
      <point x="332" y="227" type="curve"/>
      <point x="332" y="122" type="line"/>
      <point x="290" y="76"/>
      <point x="242" y="54"/>
      <point x="188" y="54" type="curve" smooth="yes"/>
      <point x="134" y="54"/>
      <point x="106" y="80"/>
      <point x="106" y="131" type="curve" smooth="yes"/>
    </contour>
    <contour>
      <point x="384" y="724" type="line"/>
      <point x="297" y="724" type="line" smooth="yes"/>
      <point x="287" y="724"/>
      <point x="279" y="722"/>
      <point x="273" y="718" type="curve" smooth="yes"/>
      <point x="267" y="714"/>
      <point x="262" y="710"/>
      <point x="258" y="702" type="curve"/>
      <point x="184" y="580" type="line"/>
      <point x="237" y="580" type="line" smooth="yes"/>
      <point x="244" y="580"/>
      <point x="250" y="582"/>
      <point x="254" y="584" type="curve" smooth="yes"/>
      <point x="258" y="586"/>
      <point x="264" y="589"/>
      <point x="268" y="594" type="curve"/>
    </contour>
  </outline>
</glyph>
<glyph name="ntilde" format="1">
  <advance width="622"/>
  <unicode hex="00F1"/>
  <note>
    ntilde
  </note>
  <outline>
    <contour>
      <point x="188" y="433" type="line"/>
      <point x="181" y="488" type="line"/>
      <point x="177" y="500"/>
      <point x="169" y="506"/>
      <point x="157" y="506" type="curve" smooth="yes"/>
      <point x="104" y="506" type="line"/>
      <point x="32" y="506" type="line"/>
      <point x="32" y="464" type="line" smooth="yes"/>
      <point x="32" y="454"/>
      <point x="37" y="447"/>
      <point x="47" y="445" type="curve"/>
      <point x="53" y="443"/>
      <point x="72" y="439"/>
      <point x="104" y="433" type="curve"/>
      <point x="104" y="72" type="line"/>
      <point x="47" y="61" type="line" smooth="yes"/>
      <point x="37" y="59"/>
      <point x="32" y="52"/>
      <point x="32" y="42" type="curve" smooth="yes"/>
      <point x="32" y="0" type="line"/>
      <point x="266" y="0" type="line"/>
      <point x="266" y="42" type="line" smooth="yes"/>
      <point x="266" y="52"/>
      <point x="260" y="59"/>
      <point x="250" y="61" type="curve" smooth="yes"/>
      <point x="214" y="69"/>
      <point x="195" y="73"/>
      <point x="193" y="73" type="curve"/>
      <point x="193" y="373" type="line"/>
      <point x="235" y="420"/>
      <point x="280" y="444"/>
      <point x="330" y="444" type="curve" smooth="yes"/>
      <point x="401" y="444"/>
      <point x="436" y="402"/>
      <point x="436" y="322" type="curve" smooth="yes"/>
      <point x="436" y="0" type="line"/>
      <point x="598" y="0" type="line"/>
      <point x="598" y="43" type="line" smooth="yes"/>
      <point x="598" y="53"/>
      <point x="592" y="60"/>
      <point x="582" y="62" type="curve"/>
      <point x="576" y="64"/>
      <point x="558" y="68"/>
      <point x="526" y="74" type="curve"/>
      <point x="526" y="323" type="line" smooth="yes"/>
      <point x="526" y="381"/>
      <point x="510" y="428"/>
      <point x="482" y="462" type="curve" smooth="yes"/>
      <point x="452" y="498"/>
      <point x="410" y="515"/>
      <point x="356" y="515" type="curve" smooth="yes"/>
      <point x="294" y="515"/>
      <point x="238" y="488"/>
      <point x="188" y="434" type="curve"/>
    </contour>
    <contour>
      <point x="369" y="663" type="line"/>
      <point x="361" y="663"/>
      <point x="354" y="665"/>
      <point x="346" y="670" type="curve" smooth="yes"/>
      <point x="338" y="675"/>
      <point x="329" y="680"/>
      <point x="320" y="686" type="curve" smooth="yes"/>
      <point x="311" y="692"/>
      <point x="302" y="697"/>
      <point x="292" y="702" type="curve" smooth="yes"/>
      <point x="282" y="707"/>
      <point x="271" y="709"/>
      <point x="259" y="709" type="curve" smooth="yes"/>
      <point x="246" y="709"/>
      <point x="234" y="707"/>
      <point x="223" y="702" type="curve" smooth="yes"/>
      <point x="212" y="697"/>
      <point x="202" y="690"/>
      <point x="194" y="680" type="curve" smooth="yes"/>
      <point x="186" y="670"/>
      <point x="180" y="659"/>
      <point x="176" y="646" type="curve" smooth="yes"/>
      <point x="172" y="633"/>
      <point x="170" y="618"/>
      <point x="170" y="602" type="curve"/>
      <point x="225" y="602" type="line"/>
      <point x="225" y="632"/>
      <point x="238" y="646"/>
      <point x="262" y="646" type="curve" smooth="yes"/>
      <point x="270" y="646"/>
      <point x="278" y="643"/>
      <point x="286" y="638" type="curve" smooth="yes"/>
      <point x="294" y="633"/>
      <point x="302" y="628"/>
      <point x="311" y="622" type="curve" smooth="yes"/>
      <point x="320" y="616"/>
      <point x="330" y="611"/>
      <point x="340" y="606" type="curve" smooth="yes"/>
      <point x="350" y="601"/>
      <point x="360" y="599"/>
      <point x="372" y="599" type="curve" smooth="yes"/>
      <point x="386" y="599"/>
      <point x="397" y="601"/>
      <point x="408" y="606" type="curve" smooth="yes"/>
      <point x="419" y="611"/>
      <point x="429" y="618"/>
      <point x="437" y="628" type="curve" smooth="yes"/>
      <point x="445" y="638"/>
      <point x="451" y="649"/>
      <point x="455" y="662" type="curve" smooth="yes"/>
      <point x="459" y="675"/>
      <point x="461" y="688"/>
      <point x="461" y="704" type="curve"/>
      <point x="407" y="704" type="line"/>
      <point x="407" y="690"/>
      <point x="402" y="679"/>
      <point x="396" y="672" type="curve" smooth="yes"/>
      <point x="390" y="665"/>
      <point x="380" y="662"/>
      <point x="368" y="662" type="curve"/>
    </contour>
  </outline>
</glyph>
<glyph name="oacute" format="1">
  <advance width="526"/>
  <unicode hex="00F3"/>
  <note>
    oacute
  </note>
  <outline>
    <contour>
      <point x="227" y="514"/>
      <point x="193" y="508"/>
      <point x="163" y="496" type="curve" smooth="yes"/>
      <point x="133" y="484"/>
      <point x="107" y="466"/>
      <point x="86" y="444" type="curve" smooth="yes"/>
      <point x="65" y="422"/>
      <point x="50" y="394"/>
      <point x="38" y="362" type="curve" smooth="yes"/>
      <point x="26" y="330"/>
      <point x="21" y="294"/>
      <point x="21" y="254" type="curve" smooth="yes"/>
      <point x="21" y="214"/>
      <point x="26" y="178"/>
      <point x="38" y="146" type="curve" smooth="yes"/>
      <point x="50" y="114"/>
      <point x="65" y="86"/>
      <point x="86" y="64" type="curve" smooth="yes"/>
      <point x="107" y="42"/>
      <point x="133" y="24"/>
      <point x="163" y="12" type="curve" smooth="yes"/>
      <point x="193" y="0"/>
      <point x="227" y="-6"/>
      <point x="264" y="-6" type="curve" smooth="yes"/>
      <point x="301" y="-6"/>
      <point x="334" y="0"/>
      <point x="364" y="12" type="curve" smooth="yes"/>
      <point x="394" y="24"/>
      <point x="419" y="42"/>
      <point x="440" y="64" type="curve" smooth="yes"/>
      <point x="461" y="86"/>
      <point x="477" y="114"/>
      <point x="488" y="146" type="curve" smooth="yes"/>
      <point x="499" y="178"/>
      <point x="505" y="214"/>
      <point x="505" y="254" type="curve" smooth="yes"/>
      <point x="505" y="294"/>
      <point x="499" y="330"/>
      <point x="488" y="362" type="curve" smooth="yes"/>
      <point x="477" y="394"/>
      <point x="461" y="422"/>
      <point x="440" y="444" type="curve" smooth="yes"/>
      <point x="419" y="466"/>
      <point x="394" y="484"/>
      <point x="364" y="496" type="curve" smooth="yes"/>
      <point x="334" y="508"/>
      <point x="301" y="514"/>
      <point x="264" y="514" type="curve" smooth="yes"/>
    </contour>
    <contour>
      <point x="238" y="62"/>
      <point x="216" y="68"/>
      <point x="198" y="76" type="curve" smooth="yes"/>
      <point x="180" y="84"/>
      <point x="163" y="96"/>
      <point x="151" y="112" type="curve" smooth="yes"/>
      <point x="139" y="128"/>
      <point x="129" y="148"/>
      <point x="123" y="172" type="curve" smooth="yes"/>
      <point x="117" y="196"/>
      <point x="114" y="222"/>
      <point x="114" y="252" type="curve" smooth="yes"/>
      <point x="114" y="282"/>
      <point x="117" y="310"/>
      <point x="123" y="334" type="curve" smooth="yes"/>
      <point x="129" y="358"/>
      <point x="139" y="378"/>
      <point x="151" y="394" type="curve" smooth="yes"/>
      <point x="163" y="410"/>
      <point x="180" y="424"/>
      <point x="198" y="432" type="curve" smooth="yes"/>
      <point x="216" y="440"/>
      <point x="238" y="444"/>
      <point x="264" y="444" type="curve" smooth="yes"/>
      <point x="314" y="444"/>
      <point x="352" y="428"/>
      <point x="376" y="394" type="curve" smooth="yes"/>
      <point x="400" y="360"/>
      <point x="412" y="313"/>
      <point x="412" y="253" type="curve" smooth="yes"/>
      <point x="412" y="193"/>
      <point x="400" y="146"/>
      <point x="376" y="112" type="curve" smooth="yes"/>
      <point x="352" y="78"/>
      <point x="314" y="62"/>
      <point x="264" y="62" type="curve" smooth="yes"/>
    </contour>
    <contour>
      <point x="410" y="724" type="line"/>
      <point x="322" y="724" type="line" smooth="yes"/>
      <point x="312" y="724"/>
      <point x="304" y="722"/>
      <point x="298" y="718" type="curve" smooth="yes"/>
      <point x="292" y="714"/>
      <point x="288" y="710"/>
      <point x="284" y="702" type="curve"/>
      <point x="210" y="581" type="line"/>
      <point x="262" y="581" type="line" smooth="yes"/>
      <point x="269" y="581"/>
      <point x="276" y="582"/>
      <point x="280" y="584" type="curve" smooth="yes"/>
      <point x="284" y="586"/>
      <point x="289" y="589"/>
      <point x="293" y="594" type="curve"/>
    </contour>
  </outline>
</glyph>
<glyph name="udieresis" format="1">
  <advance width="604"/>
  <unicode hex="00FC"/>
  <note>
    udieresis
  </note>
  <outline>
    <contour>
      <point x="281" y="63" type="line"/>
      <point x="245" y="63"/>
      <point x="220" y="73"/>
      <point x="202" y="94" type="curve" smooth="yes"/>
      <point x="184" y="115"/>
      <point x="175" y="146"/>
      <point x="175" y="184" type="curve" smooth="yes"/>
      <point x="175" y="506" type="line"/>
      <point x="14" y="506" type="line"/>
      <point x="14" y="464" type="line" smooth="yes"/>
      <point x="14" y="454"/>
      <point x="19" y="447"/>
      <point x="29" y="445" type="curve"/>
      <point x="35" y="443"/>
      <point x="54" y="439"/>
      <point x="86" y="433" type="curve"/>
      <point x="86" y="183" type="line" smooth="yes"/>
      <point x="86" y="123"/>
      <point x="101" y="78"/>
      <point x="129" y="44" type="curve" smooth="yes"/>
      <point x="159" y="9"/>
      <point x="202" y="-9"/>
      <point x="256" y="-9" type="curve" smooth="yes"/>
      <point x="320" y="-9"/>
      <point x="376" y="18"/>
      <point x="424" y="72" type="curve"/>
      <point x="430" y="18" type="line"/>
      <point x="434" y="6"/>
      <point x="442" y="-1"/>
      <point x="454" y="-1" type="curve" smooth="yes"/>
      <point x="580" y="-1" type="line"/>
      <point x="580" y="42" type="line" smooth="yes"/>
      <point x="580" y="52"/>
      <point x="574" y="58"/>
      <point x="564" y="60" type="curve"/>
      <point x="558" y="62"/>
      <point x="540" y="66"/>
      <point x="508" y="72" type="curve"/>
      <point x="508" y="506" type="line"/>
      <point x="418" y="506" type="line"/>
      <point x="346" y="506" type="line"/>
      <point x="346" y="463" type="line" smooth="yes"/>
      <point x="346" y="453"/>
      <point x="352" y="446"/>
      <point x="362" y="444" type="curve" smooth="yes"/>
      <point x="394" y="438"/>
      <point x="412" y="434"/>
      <point x="418" y="432" type="curve"/>
      <point x="418" y="132" type="line"/>
      <point x="377" y="86"/>
      <point x="332" y="62"/>
      <point x="282" y="62" type="curve"/>
    </contour>
    <contour>
      <point x="267" y="644" type="line"/>
      <point x="267" y="652"/>
      <point x="265" y="659"/>
      <point x="262" y="666" type="curve" smooth="yes"/>
      <point x="259" y="673"/>
      <point x="256" y="679"/>
      <point x="250" y="684" type="curve" smooth="yes"/>
      <point x="244" y="689"/>
      <point x="239" y="693"/>
      <point x="232" y="696" type="curve" smooth="yes"/>
      <point x="225" y="699"/>
      <point x="218" y="700"/>
      <point x="210" y="700" type="curve" smooth="yes"/>
      <point x="202" y="700"/>
      <point x="194" y="699"/>
      <point x="188" y="696" type="curve" smooth="yes"/>
      <point x="182" y="693"/>
      <point x="176" y="689"/>
      <point x="171" y="684" type="curve" smooth="yes"/>
      <point x="166" y="679"/>
      <point x="162" y="673"/>
      <point x="159" y="666" type="curve" smooth="yes"/>
      <point x="156" y="659"/>
      <point x="154" y="652"/>
      <point x="154" y="644" type="curve" smooth="yes"/>
      <point x="154" y="636"/>
      <point x="156" y="628"/>
      <point x="159" y="622" type="curve" smooth="yes"/>
      <point x="162" y="616"/>
      <point x="166" y="610"/>
      <point x="171" y="605" type="curve" smooth="yes"/>
      <point x="176" y="600"/>
      <point x="182" y="596"/>
      <point x="188" y="593" type="curve" smooth="yes"/>
      <point x="194" y="590"/>
      <point x="202" y="588"/>
      <point x="210" y="588" type="curve" smooth="yes"/>
      <point x="218" y="588"/>
      <point x="224" y="590"/>
      <point x="231" y="593" type="curve" smooth="yes"/>
      <point x="238" y="596"/>
      <point x="244" y="600"/>
      <point x="250" y="605" type="curve" smooth="yes"/>
      <point x="256" y="610"/>
      <point x="259" y="616"/>
      <point x="262" y="622" type="curve" smooth="yes"/>
      <point x="265" y="628"/>
      <point x="266" y="636"/>
      <point x="266" y="644" type="curve"/>
    </contour>
    <contour>
      <point x="446" y="644" type="line"/>
      <point x="446" y="652"/>
      <point x="445" y="659"/>
      <point x="442" y="666" type="curve" smooth="yes"/>
      <point x="439" y="673"/>
      <point x="435" y="679"/>
      <point x="430" y="684" type="curve" smooth="yes"/>
      <point x="425" y="689"/>
      <point x="419" y="693"/>
      <point x="412" y="696" type="curve" smooth="yes"/>
      <point x="405" y="699"/>
      <point x="398" y="700"/>
      <point x="390" y="700" type="curve" smooth="yes"/>
      <point x="382" y="700"/>
      <point x="375" y="699"/>
      <point x="368" y="696" type="curve" smooth="yes"/>
      <point x="361" y="693"/>
      <point x="355" y="689"/>
      <point x="350" y="684" type="curve" smooth="yes"/>
      <point x="345" y="679"/>
      <point x="341" y="673"/>
      <point x="338" y="666" type="curve" smooth="yes"/>
      <point x="335" y="659"/>
      <point x="333" y="652"/>
      <point x="333" y="644" type="curve" smooth="yes"/>
      <point x="333" y="636"/>
      <point x="335" y="628"/>
      <point x="338" y="622" type="curve" smooth="yes"/>
      <point x="341" y="616"/>
      <point x="345" y="610"/>
      <point x="350" y="605" type="curve" smooth="yes"/>
      <point x="355" y="600"/>
      <point x="361" y="596"/>
      <point x="368" y="593" type="curve" smooth="yes"/>
      <point x="375" y="590"/>
      <point x="381" y="588"/>
      <point x="389" y="588" type="curve" smooth="yes"/>
      <point x="397" y="588"/>
      <point x="403" y="590"/>
      <point x="410" y="593" type="curve" smooth="yes"/>
      <point x="417" y="596"/>
      <point x="423" y="600"/>
      <point x="428" y="605" type="curve" smooth="yes"/>
      <point x="433" y="610"/>
      <point x="437" y="616"/>
      <point x="440" y="622" type="curve" smooth="yes"/>
      <point x="443" y="628"/>
      <point x="445" y="636"/>
      <point x="445" y="644" type="curve"/>
    </contour>
  </outline>
</glyph>
<glyph name="yacute" format="1">
  <advance width="594"/>
  <unicode hex="00FD"/>
  <note>
    yacute
  </note>
  <outline>
    <contour>
      <point x="540" y="506" type="line"/>
      <point x="352" y="506" type="line"/>
      <point x="352" y="464" type="line" smooth="yes"/>
      <point x="352" y="454"/>
      <point x="356" y="447"/>
      <point x="366" y="445" type="curve" smooth="yes"/>
      <point x="376" y="443"/>
      <point x="393" y="440"/>
      <point x="420" y="434" type="curve"/>
      <point x="311" y="170" type="line" smooth="yes"/>
      <point x="307" y="160"/>
      <point x="302" y="144"/>
      <point x="296" y="124" type="curve"/>
      <point x="292" y="140"/>
      <point x="288" y="156"/>
      <point x="282" y="170" type="curve" smooth="yes"/>
      <point x="170" y="434" type="line"/>
      <point x="202" y="440"/>
      <point x="220" y="444"/>
      <point x="226" y="446" type="curve"/>
      <point x="236" y="448"/>
      <point x="240" y="454"/>
      <point x="240" y="464" type="curve" smooth="yes"/>
      <point x="240" y="507" type="line"/>
      <point x="14" y="507" type="line"/>
      <point x="14" y="464" type="line" smooth="yes"/>
      <point x="14" y="454"/>
      <point x="18" y="448"/>
      <point x="28" y="446" type="curve"/>
      <point x="34" y="444"/>
      <point x="50" y="440"/>
      <point x="74" y="436" type="curve"/>
      <point x="252" y="30" type="line"/>
      <point x="160" y="-171" type="line"/>
      <point x="226" y="-171" type="line" smooth="yes"/>
      <point x="240" y="-171"/>
      <point x="251" y="-163"/>
      <point x="257" y="-149" type="curve" smooth="yes"/>
      <point x="508" y="435" type="line"/>
      <point x="510" y="435"/>
      <point x="520" y="437"/>
      <point x="534" y="440" type="curve" smooth="yes"/>
      <point x="548" y="443"/>
      <point x="557" y="446"/>
      <point x="560" y="446" type="curve"/>
      <point x="570" y="448"/>
      <point x="576" y="454"/>
      <point x="576" y="464" type="curve" smooth="yes"/>
      <point x="576" y="507" type="line"/>
    </contour>
    <contour>
      <point x="448" y="725" type="line"/>
      <point x="360" y="725" type="line" smooth="yes"/>
      <point x="350" y="725"/>
      <point x="342" y="724"/>
      <point x="336" y="720" type="curve" smooth="yes"/>
      <point x="330" y="716"/>
      <point x="326" y="711"/>
      <point x="322" y="703" type="curve"/>
      <point x="248" y="582" type="line"/>
      <point x="300" y="582" type="line" smooth="yes"/>
      <point x="307" y="582"/>
      <point x="314" y="583"/>
      <point x="318" y="585" type="curve" smooth="yes"/>
      <point x="322" y="587"/>
      <point x="327" y="591"/>
      <point x="331" y="596" type="curve"/>
    </contour>
  </outline>
</glyph>
<glyph name="cacute" format="1">
  <advance width="449"/>
  <unicode hex="0107"/>
  <note>
    cacute
  </note>
  <outline>
    <contour>
      <point x="407" y="104" type="line"/>
      <point x="403" y="110"/>
      <point x="398" y="112"/>
      <point x="391" y="112" type="curve" smooth="yes"/>
      <point x="384" y="112"/>
      <point x="378" y="110"/>
      <point x="372" y="104" type="curve"/>
      <point x="340" y="76"/>
      <point x="302" y="62"/>
      <point x="260" y="62" type="curve" smooth="yes"/>
      <point x="214" y="62"/>
      <point x="179" y="79"/>
      <point x="153" y="112" type="curve" smooth="yes"/>
      <point x="127" y="146"/>
      <point x="113" y="194"/>
      <point x="113" y="254" type="curve" smooth="yes"/>
      <point x="113" y="314"/>
      <point x="126" y="360"/>
      <point x="152" y="394" type="curve" smooth="yes"/>
      <point x="165" y="410"/>
      <point x="180" y="423"/>
      <point x="198" y="431" type="curve" smooth="yes"/>
      <point x="216" y="439"/>
      <point x="235" y="444"/>
      <point x="253" y="444" type="curve" smooth="yes"/>
      <point x="271" y="444"/>
      <point x="289" y="443"/>
      <point x="309" y="440" type="curve"/>
      <point x="317" y="438"/>
      <point x="330" y="436"/>
      <point x="346" y="431" type="curve"/>
      <point x="346" y="430"/>
      <point x="346" y="420"/>
      <point x="348" y="398" type="curve" smooth="yes"/>
      <point x="350" y="376"/>
      <point x="351" y="364"/>
      <point x="352" y="360" type="curve"/>
      <point x="354" y="350"/>
      <point x="359" y="346"/>
      <point x="369" y="346" type="curve" smooth="yes"/>
      <point x="409" y="346" type="line"/>
      <point x="409" y="478" type="line"/>
      <point x="347" y="502"/>
      <point x="297" y="514"/>
      <point x="259" y="514" type="curve" smooth="yes"/>
      <point x="184" y="514"/>
      <point x="125" y="490"/>
      <point x="82" y="441" type="curve" smooth="yes"/>
      <point x="41" y="393"/>
      <point x="20" y="332"/>
      <point x="20" y="254" type="curve" smooth="yes"/>
      <point x="20" y="174"/>
      <point x="42" y="110"/>
      <point x="85" y="62" type="curve" smooth="yes"/>
      <point x="126" y="16"/>
      <point x="179" y="-7"/>
      <point x="244" y="-7" type="curve" smooth="yes"/>
      <point x="326" y="-7"/>
      <point x="390" y="19"/>
      <point x="432" y="71" type="curve"/>
    </contour>
    <contour>
      <point x="404" y="724" type="line"/>
      <point x="317" y="724" type="line" smooth="yes"/>
      <point x="307" y="724"/>
      <point x="299" y="723"/>
      <point x="293" y="719" type="curve" smooth="yes"/>
      <point x="287" y="715"/>
      <point x="282" y="710"/>
      <point x="278" y="702" type="curve"/>
      <point x="204" y="582" type="line"/>
      <point x="257" y="582" type="line" smooth="yes"/>
      <point x="264" y="582"/>
      <point x="270" y="582"/>
      <point x="274" y="584" type="curve" smooth="yes"/>
      <point x="278" y="586"/>
      <point x="284" y="590"/>
      <point x="288" y="595" type="curve"/>
    </contour>
  </outline>
</glyph>
<glyph name="lslash" format="1">
  <advance width="311"/>
  <unicode hex="0142"/>
  <note>
    lslash
  </note>
  <outline>
    <contour>
      <point x="200" y="450" type="line"/>
      <point x="200" y="736" type="line"/>
      <point x="112" y="736" type="line"/>
      <point x="40" y="736" type="line"/>
      <point x="40" y="693" type="line" smooth="yes"/>
      <point x="40" y="683"/>
      <point x="45" y="676"/>
      <point x="55" y="674" type="curve" smooth="yes"/>
      <point x="83" y="668"/>
      <point x="102" y="666"/>
      <point x="112" y="664" type="curve"/>
      <point x="112" y="417" type="line"/>
      <point x="36" y="383" type="line"/>
      <point x="28" y="379"/>
      <point x="24" y="374"/>
      <point x="24" y="364" type="curve" smooth="yes"/>
      <point x="24" y="311" type="line"/>
      <point x="112" y="349" type="line"/>
      <point x="112" y="74" type="line"/>
      <point x="112" y="74"/>
      <point x="102" y="71"/>
      <point x="86" y="68" type="curve" smooth="yes"/>
      <point x="70" y="65"/>
      <point x="59" y="63"/>
      <point x="55" y="62" type="curve"/>
      <point x="45" y="60"/>
      <point x="40" y="54"/>
      <point x="40" y="44" type="curve" smooth="yes"/>
      <point x="40" y="0" type="line"/>
      <point x="273" y="0" type="line"/>
      <point x="273" y="44" type="line" smooth="yes"/>
      <point x="273" y="54"/>
      <point x="268" y="60"/>
      <point x="258" y="62" type="curve"/>
      <point x="252" y="64"/>
      <point x="232" y="68"/>
      <point x="200" y="74" type="curve"/>
      <point x="200" y="382" type="line"/>
      <point x="276" y="416" type="line" smooth="yes"/>
      <point x="285" y="420"/>
      <point x="290" y="428"/>
      <point x="290" y="438" type="curve" smooth="yes"/>
      <point x="290" y="489" type="line"/>
    </contour>
  </outline>
</glyph>
<glyph name="sacute" format="1">
  <advance width="408"/>
  <unicode hex="015B"/>
  <note>
    sacute
  </note>
  <outline>
    <contour>
      <point x="230" y="514" type="line"/>
      <point x="168" y="514"/>
      <point x="122" y="500"/>
      <point x="88" y="470" type="curve" smooth="yes"/>
      <point x="56" y="442"/>
      <point x="40" y="409"/>
      <point x="40" y="368" type="curve" smooth="yes"/>
      <point x="40" y="328"/>
      <point x="54" y="297"/>
      <point x="82" y="274" type="curve" smooth="yes"/>
      <point x="94" y="264"/>
      <point x="109" y="254"/>
      <point x="127" y="246" type="curve" smooth="yes"/>
      <point x="145" y="238"/>
      <point x="176" y="228"/>
      <point x="220" y="214" type="curve"/>
      <point x="236" y="210"/>
      <point x="250" y="204"/>
      <point x="262" y="198" type="curve" smooth="yes"/>
      <point x="274" y="192"/>
      <point x="284" y="183"/>
      <point x="292" y="174" type="curve" smooth="yes"/>
      <point x="300" y="165"/>
      <point x="304" y="151"/>
      <point x="304" y="132" type="curve" smooth="yes"/>
      <point x="304" y="113"/>
      <point x="295" y="96"/>
      <point x="278" y="81" type="curve" smooth="yes"/>
      <point x="259" y="65"/>
      <point x="233" y="56"/>
      <point x="200" y="56" type="curve" smooth="yes"/>
      <point x="160" y="56"/>
      <point x="125" y="62"/>
      <point x="97" y="76" type="curve"/>
      <point x="93" y="116"/>
      <point x="91" y="137"/>
      <point x="91" y="140" type="curve"/>
      <point x="89" y="148"/>
      <point x="84" y="152"/>
      <point x="76" y="152" type="curve" smooth="yes"/>
      <point x="40" y="152" type="line"/>
      <point x="40" y="20" type="line"/>
      <point x="94" y="2"/>
      <point x="150" y="-7"/>
      <point x="204" y="-7" type="curve" smooth="yes"/>
      <point x="258" y="-7"/>
      <point x="304" y="10"/>
      <point x="338" y="40" type="curve" smooth="yes"/>
      <point x="371" y="69"/>
      <point x="387" y="108"/>
      <point x="387" y="156" type="curve" smooth="yes"/>
      <point x="387" y="193"/>
      <point x="374" y="222"/>
      <point x="346" y="244" type="curve" smooth="yes"/>
      <point x="334" y="254"/>
      <point x="320" y="264"/>
      <point x="304" y="270" type="curve" smooth="yes"/>
      <point x="256" y="288" type="line" smooth="yes"/>
      <point x="240" y="294"/>
      <point x="219" y="299"/>
      <point x="194" y="307" type="curve" smooth="yes"/>
      <point x="169" y="315"/>
      <point x="150" y="326"/>
      <point x="136" y="342" type="curve"/>
      <point x="128" y="350"/>
      <point x="124" y="363"/>
      <point x="124" y="380" type="curve" smooth="yes"/>
      <point x="124" y="397"/>
      <point x="133" y="412"/>
      <point x="151" y="426" type="curve" smooth="yes"/>
      <point x="169" y="440"/>
      <point x="192" y="448"/>
      <point x="220" y="448" type="curve" smooth="yes"/>
      <point x="221" y="448" type="line" smooth="yes"/>
      <point x="243" y="448"/>
      <point x="269" y="444"/>
      <point x="299" y="437" type="curve"/>
      <point x="303" y="395"/>
      <point x="305" y="373"/>
      <point x="305" y="371" type="curve"/>
      <point x="307" y="361"/>
      <point x="312" y="357"/>
      <point x="322" y="357" type="curve" smooth="yes"/>
      <point x="361" y="357" type="line"/>
      <point x="361" y="452" type="line"/>
      <point x="361" y="487" type="line"/>
      <point x="308" y="505"/>
      <point x="264" y="514"/>
      <point x="229" y="514" type="curve"/>
    </contour>
    <contour>
      <point x="377" y="724" type="line"/>
      <point x="290" y="724" type="line" smooth="yes"/>
      <point x="280" y="724"/>
      <point x="272" y="722"/>
      <point x="266" y="718" type="curve" smooth="yes"/>
      <point x="260" y="714"/>
      <point x="255" y="710"/>
      <point x="251" y="702" type="curve"/>
      <point x="177" y="580" type="line"/>
      <point x="230" y="580" type="line" smooth="yes"/>
      <point x="237" y="580"/>
      <point x="243" y="582"/>
      <point x="247" y="584" type="curve" smooth="yes"/>
      <point x="251" y="586"/>
      <point x="256" y="589"/>
      <point x="260" y="594" type="curve"/>
    </contour>
  </outline>
</glyph>
